<svg xmlns="http://www.w3.org/2000/svg" xmlns:xlink="http://www.w3.org/1999/xlink" width="259.761" height="217.232" viewBox="0 0 259.761 217.232">
  <defs>
    <linearGradient id="linear-gradient" x1="0.5" y1="1" x2="0.5" gradientUnits="objectBoundingBox">
      <stop offset="0" stop-color="gray" stop-opacity="0.251"/>
      <stop offset="0.54" stop-color="gray" stop-opacity="0.122"/>
      <stop offset="1" stop-color="gray" stop-opacity="0.102"/>
    </linearGradient>
  </defs>
  <g id="undraw_pie_chart_6efe" transform="translate(0 -0.01)">
    <path id="Path_462" data-name="Path 462" d="M212.123,39.623c7.989-7.119,20.532-8.565,31.947-8C279.929,33.4,312.3,50.711,340.293,70.291c10.135,7.088,20.115,14.726,26.694,24.488,13.392,19.873,9.421,47.4-9.2,63.77-6.335,5.57-14.015,9.842-21.9,13.626-14.015,6.73-29.149,12.131-45.062,13.67-11.35,1.1-22.84.205-34.119-1.326-31.519-4.275-62.459-13.727-88.39-29.9-11.373-7.093-22.095-15.91-26.782-27.384s-1.687-26.017,9.925-32.809c4.8-2.808,10.548-4.077,16.17-5.269,8.277-1.755,16.686-3.483,24.153-7.047,7.714-3.683,16.85-10.8,15.313-18.947C205.458,54.415,204.142,46.735,212.123,39.623Z" transform="translate(-129.072 -31.5)" fill="#ffcc75" opacity="0.1"/>
    <ellipse id="Ellipse_53" data-name="Ellipse 53" cx="8.674" cy="1.466" rx="8.674" ry="1.466" transform="translate(242.413 214.309)" fill="#ffcc75" opacity="0.1"/>
    <ellipse id="Ellipse_54" data-name="Ellipse 54" cx="38.599" cy="6.834" rx="38.599" ry="6.834" transform="translate(63.515 190.862)" fill="#ffcc75" opacity="0.1"/>
    <ellipse id="Ellipse_55" data-name="Ellipse 55" cx="19.619" cy="4.321" rx="19.619" ry="4.321" transform="translate(186.149 192.022)" fill="#ffcc75" opacity="0.1"/>
    <path id="Path_463" data-name="Path 463" d="M1061.4,791.49s1.594,2.076-.734,5.227-4.246,5.8-3.47,7.76c0,0,3.512-5.84,6.369-5.923S1064.545,795,1061.4,791.49Z" transform="translate(-808.527 -594.233)" fill="#ffcc75"/>
    <path id="Path_464" data-name="Path 464" d="M1061.66,791.49a2.6,2.6,0,0,1,.327.654c2.787,3.278,4.274,6.335,1.594,6.411-2.5.073-5.495,4.539-6.211,5.666a2.108,2.108,0,0,0,.086.26s3.512-5.84,6.369-5.923S1064.8,795,1061.66,791.49Z" transform="translate(-808.782 -594.233)" opacity="0.1"/>
    <path id="Path_465" data-name="Path 465" d="M1084.259,800.382c0,.734-.083,1.326-.184,1.326s-.184-.592-.184-1.326.1-.387.205-.387S1084.259,799.65,1084.259,800.382Z" transform="translate(-828.419 -600.47)" fill="#ffd037"/>
    <path id="Path_466" data-name="Path 466" d="M1085.645,803.66c-.644.35-1.207.563-1.254.475s.433-.446,1.077-.8.389-.1.439,0S1086.288,803.31,1085.645,803.66Z" transform="translate(-828.788 -602.873)" fill="#ffd037"/>
    <path id="Path_467" data-name="Path 467" d="M1031.294,791.49s-1.594,2.076.734,5.227,4.249,5.8,3.473,7.76c0,0-3.514-5.84-6.372-5.923S1028.148,795,1031.294,791.49Z" transform="translate(-786.827 -594.233)" fill="#ffcc75"/>
    <path id="Path_468" data-name="Path 468" d="M1031.294,791.49a2.551,2.551,0,0,0-.324.654c-2.79,3.278-4.277,6.336-1.6,6.411,2.5.073,5.495,4.539,6.211,5.666-.023.088-.052.174-.083.26,0,0-3.514-5.84-6.372-5.923S1028.148,795,1031.294,791.49Z" transform="translate(-786.827 -594.233)" opacity="0.1"/>
    <path id="Path_469" data-name="Path 469" d="M1030.08,800.382c0,.734.083,1.326.184,1.326s.184-.592.184-1.326-.1-.387-.2-.387S1030.08,799.65,1030.08,800.382Z" transform="translate(-788.575 -600.47)" fill="#ffd037"/>
    <path id="Path_470" data-name="Path 470" d="M1025.055,803.66c.644.35,1.2.563,1.254.475s-.436-.446-1.08-.8-.389-.1-.436,0S1024.412,803.31,1025.055,803.66Z" transform="translate(-784.566 -602.873)" fill="#ffd037"/>
    <path id="Path_471" data-name="Path 471" d="M1032,833.616s4.451-.138,5.793-1.093,6.852-2.1,7.184-.563,6.691,7.623,1.664,7.662-11.679-.779-13.021-1.6S1032,833.616,1032,833.616Z" transform="translate(-789.997 -623.644)" fill="#a8a8a8"/>
    <path id="Path_472" data-name="Path 472" d="M1046.787,845.939c-5.027.039-11.68-.779-13.021-1.6-1.02-.623-1.427-2.855-1.557-3.88h-.148s.28,3.592,1.62,4.412,7.994,1.64,13.021,1.6c1.451,0,1.952-.519,1.926-1.3C1048.419,845.641,1047.877,845.929,1046.787,845.939Z" transform="translate(-790.041 -630.493)" opacity="0.2"/>
    <ellipse id="Ellipse_56" data-name="Ellipse 56" cx="8.674" cy="1.466" rx="8.674" ry="1.466" transform="translate(0 203.409)" fill="#ffcc75" opacity="0.1"/>
    <path id="Path_473" data-name="Path 473" d="M110.55,786.955s4.949-.153,6.439-1.215,7.612-2.336,7.984-.625,7.436,8.469,1.851,8.516-12.977-.872-14.47-1.778S110.55,786.955,110.55,786.955Z" transform="translate(-107.703 -588.893)" fill="#a8a8a8"/>
    <path id="Path_474" data-name="Path 474" d="M126.922,800.629c-5.588.044-12.977-.87-14.47-1.778-1.134-.69-1.586-3.167-1.736-4.311h-.166s.314,3.992,1.817,4.9,8.882,1.817,14.47,1.778c1.612,0,2.17-.589,2.139-1.438C128.736,800.3,128.121,800.629,126.922,800.629Z" transform="translate(-107.703 -596.491)" opacity="0.2"/>
    <ellipse id="Ellipse_57" data-name="Ellipse 57" cx="9.45" cy="1.599" rx="9.45" ry="1.599" transform="translate(31.117 208.776)" fill="#ffcc75"/>
    <path id="Path_475" data-name="Path 475" d="M245.951,819.57a2.751,2.751,0,0,0,.9-1.36,1.213,1.213,0,0,0-.631-1.386,1.769,1.769,0,0,0-1.664.587,2.215,2.215,0,0,1-1.62.779,2.468,2.468,0,0,0,.763-2.307.953.953,0,0,0-.213-.467c-.322-.345-.9-.2-1.3.073-1.222.862-1.557,2.52-1.57,4.015a7.814,7.814,0,0,1-.023-1.653,1.7,1.7,0,0,0-.62-1.464,1.878,1.878,0,0,0-.947-.223,1.97,1.97,0,0,0-1.537.439,1.531,1.531,0,0,0,.06,1.887,5.908,5.908,0,0,0,1.591,1.272,3.52,3.52,0,0,1,1.137,1.085,1.224,1.224,0,0,1,.086.195h3.444A9.571,9.571,0,0,0,245.951,819.57Z" transform="translate(-201.478 -611.799)" fill="#ffcc75"/>
    <path id="Path_476" data-name="Path 476" d="M407.919,468.185l-1.6-.475.075,1.163,3.579,1.368-.649-1.926Z" transform="translate(-300.863 -346.312)" fill="#ffcc75"/>
    <path id="Path_477" data-name="Path 477" d="M407.919,468.185l-1.6-.475.075,1.163,3.579,1.368-.649-1.926Z" transform="translate(-300.863 -346.312)" opacity="0.03"/>
    <path id="Path_478" data-name="Path 478" d="M558.616,551.655a73.578,73.578,0,0,0,21.228-51.81v-.625H506.18Z" transform="translate(-400.65 -377.819)" fill="#ffcc75"/>
    <path id="Path_479" data-name="Path 479" d="M558.616,551.655a73.578,73.578,0,0,0,21.228-51.81v-.625H506.18Z" transform="translate(-400.65 -377.819)" opacity="0.03"/>
    <path id="Path_480" data-name="Path 480" d="M558.616,556.125a73.578,73.578,0,0,0,21.228-51.81v-.626H506.18Z" transform="translate(-400.65 -381.129)" fill="#ffcc75"/>
    <path id="Path_481" data-name="Path 481" d="M558.616,556.125a73.578,73.578,0,0,0,21.228-51.81v-.626H506.18Z" transform="translate(-400.65 -381.129)" fill="#fff" opacity="0.15"/>
    <path id="Path_482" data-name="Path 482" d="M738.648,282.267l-1.137-10.26a128.024,128.024,0,0,1-2.351-13.854c-.293-4.617-2.518-4.955-2.536-4.955h0s-2.743-1.6-2.987-2.139a9.258,9.258,0,0,0-2.4-1.666l-.337-.179s-.857-3.569-1.877-3.057l-.083-.241a8.931,8.931,0,0,1-.48-2.38v-.3a8.709,8.709,0,0,0,2.336-3.979,8.588,8.588,0,0,0,.26-1.625v-.309c.5-.35.584-1.093.716-1.713.244-1.137.882-2.154,1.186-3.275.026-.1.047-.195.065-.3v-.065a3.822,3.822,0,0,0,.06-.623v-.044a2.418,2.418,0,0,0-.96-2.128,2.077,2.077,0,0,1-.446-.311,1.336,1.336,0,0,1-.228-.413l-.519-1.235a1.278,1.278,0,0,0-.26-.439,1.882,1.882,0,0,0-.693-.33,3.48,3.48,0,0,1-1.679-1.744,7.9,7.9,0,0,0-1.326-2.076,6.219,6.219,0,0,0-3.727-1.261,4.02,4.02,0,0,0-.093,1.269c-2.11-.462-4.412-.906-6.356.026a1.472,1.472,0,0,0-.779.753h0a1.023,1.023,0,0,0-.031.122h0a.8.8,0,0,0,0,.158,1.427,1.427,0,0,1,.034.345.519.519,0,0,1-.324.348c-.638.283-1.409-.083-2.076.143A2.076,2.076,0,0,0,708.476,226a4.819,4.819,0,0,1-.724,1.76c-.208.26-.48.433-.7.675a2.077,2.077,0,0,0-.491,1.651.3.3,0,0,0,0,.047.939.939,0,0,0,.049.234,2.117,2.117,0,0,0,.1.26c.036.075.075.148.117.221h0a5.051,5.051,0,0,1,.833,1.472v.021c.127.714-.327,1.394-.441,2.1h0c0,.057-.016.112-.018.169v.192c.039,1.038.991,1.726,1.557,2.489a4.672,4.672,0,0,0,.732,1.012c.016.112.034.221.057.327a8.466,8.466,0,0,0,.846,2.414,8.825,8.825,0,0,0,4.534,4.057c0,.1.021.205.031.309,0,.192.026.389.026.581v.28l-.086-.659a2.552,2.552,0,0,0-.976-.013,74.834,74.834,0,0,0-51.333-20.387v35.84c-2.144-.644-3.893-.716-3.763.8.119,1.557,1.817,3.135,3.763,4.441v34.023h37.437a5.423,5.423,0,0,0,.26,1.835c.4.488.366,6.333.366,6.333s.2,1.072.247,1.264.636,5.155.636,5.4a18.216,18.216,0,0,1,.49,2.627,12.388,12.388,0,0,0,.882,2.915l.145,4.085s1.518,2.287,1.617,2.432.049,3.013,1.713,4.376a1.936,1.936,0,0,1,.54.921c.125.493,4.3,7.511,5.6,9.676l-.156.734-1.038,4.856-.049,2.043a6.354,6.354,0,0,0-.441,2.479,2.661,2.661,0,0,1,.1,1.168s-.685,1.067-.244,1.749.195,1.069-.441,2.819a1.224,1.224,0,0,0,.319,1.524,2.148,2.148,0,0,1-.031.26c-.091.779-.192,1.669-.192,1.905s-.091,1.3-.1,2.232c0,.74.047,1.4.244,1.513.441.241,2.891.519,2.938,1.36s.981,2.04,2.938,2.04,5.339-.68,6.169-.584c.138.018.218-.073.26-.234a.8.8,0,0,0,.018-.083,1.853,1.853,0,0,0,1.142.61c2.938.537,6.512-.779,7.2-2.089a2.4,2.4,0,0,0,.2-.519,6.315,6.315,0,0,0-.2-2.93,5,5,0,0,1-.062-2.009,1.712,1.712,0,0,1,.4-.807,8.823,8.823,0,0,0,1.23-2.938c.236-.849.387-1.539.387-1.539s-.309-.472-.779-1.121h0c-.942-1.321-2.533-3.374-3.527-3.724a1.138,1.138,0,0,1-.1-.306,9.846,9.846,0,0,0-1.077-2.076,28.448,28.448,0,0,1-1.42-2.479c0-.192-1.957-3.161-1.957-3.161s-.753-1.633-1.248-2.518c.057-.156.114-.353.174-.587a39.87,39.87,0,0,0,.927-7.348,3.208,3.208,0,0,1,.488-2.723,5.827,5.827,0,0,0,.688-2.915s-.049-5.5.488-6.613,2.056-10.062,2.009-10.26a7.385,7.385,0,0,1,.389-1.42l.091-3.527v-.215a16.627,16.627,0,0,1,.779-3.745,1.63,1.63,0,0,0,.135-.667h8.079c0-.488-.018-.973-.031-1.459h.031a74.2,74.2,0,0,0-.779-10.166c.758-.919,1.674-1.557,1.7-1.754a10.8,10.8,0,0,1,.537-1.752A7.758,7.758,0,0,0,738.648,282.267Zm-16.307,76.08s.208-.125.545-.3c.021.083.042.171.062.26a12.164,12.164,0,0,1,.421,2.855c-.1,1.02-.26,2.627-.26,2.627a8.516,8.516,0,0,0-.62,1.817c-.156-.641-.309-1.147-.309-1.147s-3.333-2.232-3.333-3.353a8.783,8.783,0,0,0-.228-1.669h0c-.028-.14-.06-.275-.091-.407a2.912,2.912,0,0,1,.369.574s.994-2.411,1.233-3.374a.778.778,0,0,0,.042-.369,3.151,3.151,0,0,1-.06-1c.234.26.413.519.353.706C720.329,356.013,722.341,358.346,722.341,358.346Z" transform="translate(-513.676 -172.083)" fill="url(#linear-gradient)"/>
    <path id="Path_483" data-name="Path 483" d="M870,756.659c-.82-.1-4.153.579-6.089.579s-2.855-1.2-2.9-2.03-2.463-1.108-2.9-1.35c-.192-.109-.241-.779-.239-1.505,0-.927.093-1.975.093-2.219s.1-1.121.189-1.892c.078-.667.151-1.246.151-1.246,2.271-2.754,7.444-.727,7.444-.727s.221.766.4,1.622h0a8.88,8.88,0,0,1,.226,1.659c0,1.113,3.288,3.335,3.288,3.335a21.918,21.918,0,0,1,.545,2.292C870.339,755.994,870.362,756.7,870,756.659Z" transform="translate(-661.061 -560.216)" fill="#53517c"/>
    <path id="Path_484" data-name="Path 484" d="M870,776.063c-.82-.093-4.153.581-6.086.581s-2.855-1.207-2.9-2.03-2.466-1.111-2.9-1.352c-.192-.106-.241-.779-.239-1.5a7.59,7.59,0,0,1,2.658,1.215c.724.779.916,1.64,1.4,1.739a4,4,0,0,0,3.283.192,20.459,20.459,0,0,1,4.994-.317C870.339,775.4,870.362,776.107,870,776.063Z" transform="translate(-661.061 -579.623)" opacity="0.1"/>
    <path id="Path_485" data-name="Path 485" d="M913.04,730.843c-.82.869-.335,2.8-.335,2.8s.675,2.128,0,3.434-4.2,2.6-7.1,2.076a1.705,1.705,0,0,1-1.318-.9c-.709-1.4.5-3.833.5-3.833s.145-1.594.244-2.608a12.4,12.4,0,0,0-.415-2.842c-.143-.612-.26-1.072-.26-1.072s4.412-6.33,5.752-6.377a.606.606,0,0,1,.189.021c.971.239,2.624,2.383,3.587,3.74.459.649.766,1.119.766,1.119S913.865,729.974,913.04,730.843Z" transform="translate(-695.263 -542.421)" fill="#53517c"/>
    <path id="Path_486" data-name="Path 486" d="M913.677,741.575c-.82.869-.335,2.8-.335,2.8s.675,2.128,0,3.431-4.2,2.611-7.1,2.076a1.707,1.707,0,0,1-1.319-.9c.836-.176,2.152-.4,4.218-.644,4.975-.581,3.67-3.865,3.67-3.865s-.579-2.32.145-3.48a25.708,25.708,0,0,0,1.557-4.983c.462.646.766,1.116.766,1.116S914.5,740.705,913.677,741.575Z" transform="translate(-695.9 -553.152)" opacity="0.1"/>
    <path id="Path_487" data-name="Path 487" d="M866.954,747.891c-.693-.947-2.743-2.772-6.878.794a2.337,2.337,0,0,1-1.116-.444c.078-.667.151-1.246.151-1.246,2.271-2.754,7.444-.727,7.444-.727S866.775,747.035,866.954,747.891Z" transform="translate(-661.868 -560.216)" opacity="0.1"/>
    <path id="Path_488" data-name="Path 488" d="M875.3,529.339v.213l-.1,3.512a7.11,7.11,0,0,0-.387,1.4c.049.192-1.448,9.084-1.983,10.195s-.485,6.574-.485,6.574a5.979,5.979,0,0,1-.68,2.9,3.264,3.264,0,0,0-.472,2.717,39.189,39.189,0,0,1-.914,7.3,2.542,2.542,0,0,1-.345.911.717.717,0,0,0-.117.223c-.7,1.793-2.492,12.871-2.492,12.871s-.018.213-.036.5a5.6,5.6,0,0,0,.036,1.526.777.777,0,0,1-.041.366c-.234.958-1.215,3.356-1.215,3.356s-1.884-4.2-7.153.337c0,0-2.03-.195-1.4-1.934s.87-2.126.433-2.8.241-1.739.241-1.739a2.644,2.644,0,0,0-.1-1.16,6.353,6.353,0,0,1,.436-2.463l.049-2.03,1.017-4.827.306-1.453.317-1.5,1.687-29.289.065-1.09.472-8.225,11.4-1.884.389,2.993.618,1.469Z" transform="translate(-660.715 -396.057)" fill="#b3d7f7"/>
    <path id="Path_489" data-name="Path 489" d="M877.068,528.856l-6.984,4.6.26,4.025s.724,6.476.724,7.15-.34,6.185-.34,6.185,1.742,2.6,1.557,3.239,1.495,2.414,1.495,2.414l2.876,5.5a10.589,10.589,0,0,0,.779,2.133,2.542,2.542,0,0,1-.345.911c-.579.579-2.608,13.094-2.608,13.094s-.018.213-.036.5c-.148-.132-.26-.213-.26-.213a24.7,24.7,0,0,1-1.4-2.559,17.13,17.13,0,0,0-1.5-2.175l-3.416-6.522-.8-1.352.317-1.5,2.224-38.6,11.4-1.884.389,2.993-10.382,2.645Z" transform="translate(-667.874 -396.02)" opacity="0.1"/>
    <path id="Path_490" data-name="Path 490" d="M887.754,529.3,875,533.909l.472-8.225,11.4-1.884.389,2.993.618,1.469C887.8,528.856,887.754,529.3,887.754,529.3Z" transform="translate(-673.745 -396.02)" opacity="0.1"/>
    <path id="Path_491" data-name="Path 491" d="M873.594,612.127a.777.777,0,0,1-.042.366,1.264,1.264,0,0,1-.26-.654c.145-.436-1.16-1.451-1.16-1.451a24.708,24.708,0,0,1-1.4-2.559,17.136,17.136,0,0,0-1.5-2.175l-3.374-6.421.306-1.454.317-1.5L868.178,567l.1,2.473s.732,6.463.732,7.13-.337,6.185-.337,6.185,1.739,2.6,1.557,3.239,1.5,2.414,1.5,2.414l2.9,5.51a8.311,8.311,0,0,0,.823,2.175,5.08,5.08,0,0,1,.654,1.093c-.7,1.793-2.492,12.871-2.492,12.871s-.018.213-.036.5A5.121,5.121,0,0,0,873.594,612.127Z" transform="translate(-666.977 -428.007)" opacity="0.1"/>
    <path id="Path_492" data-name="Path 492" d="M912.463,723.882s-2.175,3.914-3.818,4.013a9.1,9.1,0,0,0-3.216,1.072c-.143-.612-.259-1.072-.259-1.072s4.412-6.33,5.752-6.377a.608.608,0,0,1,.189.021v.023A11.645,11.645,0,0,0,912.463,723.882Z" transform="translate(-696.085 -542.421)" opacity="0.1"/>
    <path id="Path_493" data-name="Path 493" d="M848.594,563.811s-2.175,3.914-3.818,4.013a10.742,10.742,0,0,0-3.815,1.4s-1.983-2.32-1.84-2.754-1.158-1.451-1.158-1.451a24.686,24.686,0,0,1-1.4-2.559,17.141,17.141,0,0,0-1.5-2.175l-3.429-6.522s-5.749-9.668-5.894-10.247a1.914,1.914,0,0,0-.535-.916c-1.64-1.355-1.594-4.2-1.69-4.35l-1.594-2.416-.145-4.059a12.36,12.36,0,0,1-.87-2.9,18.19,18.19,0,0,0-.485-2.611c0-.244-.579-5.167-.625-5.362s-.244-1.256-.244-1.256.049-5.8-.335-6.284a8.652,8.652,0,0,1-.3-2.816c-.016-.994,0-1.869,0-1.869l28.459-2.948s.177,1.622.278,3.247a10.043,10.043,0,0,1-.083,3.229,16.419,16.419,0,0,0-.779,3.722l-12.853,4.638.143,3.527s.727,6.476.727,7.151-.34,6.185-.34,6.185,1.739,2.6,1.557,3.239,1.495,2.414,1.495,2.414l2.9,5.51a8.91,8.91,0,0,0,.823,2.175,23.74,23.74,0,0,1,1.6,3.05s1.931,2.951,1.931,3.143a28.21,28.21,0,0,0,1.4,2.466,10,10,0,0,1,1.062,2.076A11.579,11.579,0,0,0,848.594,563.811Z" transform="translate(-632.216 -382.64)" fill="#b3d7f7"/>
    <path id="Path_494" data-name="Path 494" d="M866.25,635.68s2.367,2.707,3.574,2.756S866.25,635.68,866.25,635.68Z" transform="translate(-667.266 -478.862)" opacity="0.1"/>
    <path id="Path_495" data-name="Path 495" d="M901.06,731.159s7.15-3.672,6.229-1.98-3.527,2.6-3.527,2.6Z" transform="translate(-693.042 -547.764)" opacity="0.1"/>
    <path id="Path_496" data-name="Path 496" d="M865.13,734.92s4.4.288,4.975,1.015C870.105,735.935,865.421,734.967,865.13,734.92Z" transform="translate(-666.437 -552.345)" opacity="0.1"/>
    <path id="Path_497" data-name="Path 497" d="M865.31,740.69s4.012.145,5.315.724C870.625,741.414,866.374,741.269,865.31,740.69Z" transform="translate(-666.57 -556.617)" opacity="0.1"/>
    <path id="Path_498" data-name="Path 498" d="M675.472,386.453l-1.272-.581-2.014-.919s-9.567-3.818-9.863-7.633,11.16,2.512,11.16,2.512a11.018,11.018,0,0,0,1.062,1.427,2.2,2.2,0,0,0,1.113.794C676.542,382.15,675.472,386.453,675.472,386.453Z" transform="translate(-516.264 -286.652)" fill="#c37871"/>
    <path id="Path_499" data-name="Path 499" d="M881.888,310.618l-3.141,3.634-7.633-2.51-1.884-1.5,1.2-1.594a3.647,3.647,0,0,0,.519-2.232,4.362,4.362,0,0,0-.026-.581,14.833,14.833,0,0,0-.54-2.839s10.87-2.756,10.1-.485a4.042,4.042,0,0,0-.182,1.461,8.853,8.853,0,0,0,.475,2.367,13.763,13.763,0,0,0,.818,1.97Z" transform="translate(-669.473 -231.5)" fill="#c37871"/>
    <path id="Path_500" data-name="Path 500" d="M883.8,302.45a4.04,4.04,0,0,0-.182,1.461,8.7,8.7,0,0,1-9.375,1.864,14.823,14.823,0,0,0-.54-2.839S884.57,300.187,883.8,302.45Z" transform="translate(-672.783 -231.458)" opacity="0.1"/>
    <path id="Path_501" data-name="Path 501" d="M872.277,260.854a5.48,5.48,0,0,1-.023.62,8.7,8.7,0,0,1-16.382,3.413,8.536,8.536,0,0,1-.833-2.4,8.3,8.3,0,0,1-.158-1.635,8.594,8.594,0,0,1,.119-1.425,8.695,8.695,0,0,1,17.267,1.126C872.274,260.654,872.277,260.755,872.277,260.854Z" transform="translate(-658.847 -194.878)" fill="#c37871"/>
    <path id="Path_502" data-name="Path 502" d="M881.888,324.107l-3.141,3.634-7.633-2.51-1.884-1.5,1.2-1.594a3.648,3.648,0,0,0,.519-2.232l.348,2.665.083.083.5.5h.628l1.21,1.643s1.739-1.4,1.884-1.064,2.512-.579,2.512-.579h.091c2.144-.091,2.518-3.283,2.518-3.283a.51.51,0,0,1,.052-.039,13.76,13.76,0,0,0,.818,1.97Z" transform="translate(-669.473 -244.989)" opacity="0.1"/>
    <path id="Path_503" data-name="Path 503" d="M847.684,508.977c-.055.21-.114.415-.179.62-1.884,5.99-15.464,6.136-15.464,6.136l-.387-3.719-1.3,2.512s-8.4-2.32-11.407-3.979c-.016-.994,0-1.869,0-1.869l28.459-2.948S847.583,507.357,847.684,508.977Z" transform="translate(-632.238 -382.64)" opacity="0.1"/>
    <path id="Path_504" data-name="Path 504" d="M709.372,401.184,708.1,400.6a32.232,32.232,0,0,0,.353-4.612,2.2,2.2,0,0,0,1.113.794C710.441,396.88,709.372,401.184,709.372,401.184Z" transform="translate(-550.163 -301.382)" opacity="0.1"/>
    <path id="Path_505" data-name="Path 505" d="M765.927,356.65s2.128,7.636.244,13.629-15.464,6.125-15.464,6.125l-.387-3.719-1.3,2.515s-10.146-2.806-12.126-4.449a3.688,3.688,0,0,1-.968-4.106s.677-3.187,1.256-3.867a5.491,5.491,0,0,0,.483-3.374c-.195-.33.677-3.53.968-4.013s-.049-13.385-.049-13.385-4.3,1.931-4.542,2.512-5.315,3.374-5.315,3.374-4.783.581-5.653.581-5.655-.581-5.655-.581a4.675,4.675,0,0,1-1.69-.337,4.984,4.984,0,0,0-1.259-.532,3.8,3.8,0,0,1-1.739-.82,25.924,25.924,0,0,0-3.634-2.32c.628-.387.677-5.45.677-5.45l6.135,1.5s.389-.82.968-.483a23.029,23.029,0,0,0,4.109.62s2.948-.579,3.094-.34.579.195.579.195.581-.049.581-.239.519.044.519.044l.968.145s-.145-1.254.291-1.35a.639.639,0,0,0,.48-.532s1.3-1.739,1.934-1.739,1.064-1.739,1.064-1.739l2.32-2.367s-.291-1.21,0-1.259.335-.579.335-.579.1-1.062.631-1.3.82-1.64.82-1.64,2.463-2.754,2.658-3.722a1.577,1.577,0,0,1,1.209-1.16,5.97,5.97,0,0,1,1.786-.779c.823-.145,3-.389,3-.389s3.961-.335,4.35-.779a1.886,1.886,0,0,1,1.495-.389.5.5,0,0,0,.26-.1,15.821,15.821,0,0,0,1.326-1.352,1.981,1.981,0,0,1,1.594-.291l.436,3.335.08.081.5.5h.628l1.209,1.646s1.739-1.4,1.884-1.064,2.512-.581,2.512-.581h.091c2.144-.091,2.518-3.281,2.518-3.281,1.064-.921,1.983,2.948,1.983,2.948l.335.179a8.966,8.966,0,0,1,2.37,1.656c.241.519,2.948,2.123,2.948,2.123Z" transform="translate(-550.903 -243.9)" fill="#53517c"/>
    <path id="Path_506" data-name="Path 506" d="M901.036,501.47l-1.427,1.15-1.617,1.3s-3,7.008-7.1,5.027,5.5-9.31,5.5-9.31l1.329-.644,1.472-.711Z" transform="translate(-684.754 -377.123)" fill="#c37871"/>
    <path id="Path_507" data-name="Path 507" d="M866.594,324.117a18.439,18.439,0,0,0-3.374,2.095l-.07-3.865a15.888,15.888,0,0,0,1.326-1.355,2.034,2.034,0,0,1,1.594-.288l.436,3.333Z" transform="translate(-664.971 -245.598)" opacity="0.1"/>
    <path id="Path_508" data-name="Path 508" d="M867.736,321.917a18.441,18.441,0,0,0-3.374,2.095l-.062-3.854a15.829,15.829,0,0,0,1.326-1.352,1.982,1.982,0,0,1,1.594-.291l.436,3.335Z" transform="translate(-665.822 -243.974)" fill="#e6eaed"/>
    <path id="Path_509" data-name="Path 509" d="M908.665,327.125c-.742,1.988-1.666,4.189-1.832,3.346-.2-1-1.941-2.411-3-3.192,2.144-.088,2.518-3.281,2.518-3.281,1.064-.919,1.983,2.948,1.983,2.948Z" transform="translate(-695.093 -247.97)" opacity="0.1"/>
    <path id="Path_510" data-name="Path 510" d="M908.665,323.773c-.742,1.988-1.666,4.189-1.832,3.346-.2-1-1.941-2.411-3-3.192,2.144-.091,2.518-3.281,2.518-3.281,1.064-.921,1.983,2.948,1.983,2.948Z" transform="translate(-695.093 -245.487)" fill="#e6eaed"/>
    <path id="Path_511" data-name="Path 511" d="M884.49,626.393s5.508-.779,5.266.387S884.49,626.393,884.49,626.393Z" transform="translate(-680.772 -471.797)" opacity="0.1"/>
    <path id="Path_512" data-name="Path 512" d="M850.23,551.736a6.685,6.685,0,0,1,4.109-.675Z" transform="translate(-655.404 -416.118)" opacity="0.1"/>
    <path id="Path_513" data-name="Path 513" d="M836.64,541.215s3.481-.532,4.783.049Z" transform="translate(-645.341 -408.75)" opacity="0.1"/>
    <path id="Path_514" data-name="Path 514" d="M887.121,572.57s-3.044,3.236-2.855,4.106Z" transform="translate(-680.6 -432.132)" opacity="0.1"/>
    <path id="Path_515" data-name="Path 515" d="M780.706,405.2s-.483,1.739,2.466,2.463Z" transform="translate(-603.903 -308.202)" opacity="0.1"/>
    <path id="Path_516" data-name="Path 516" d="M777.44,416.74s3.634,3.237,1.934,3.335S777.44,416.74,777.44,416.74Z" transform="translate(-601.506 -316.746)" opacity="0.1"/>
    <path id="Path_517" data-name="Path 517" d="M808.53,366.66s4.446,3.091,4.153,3.818S808.53,366.66,808.53,366.66Z" transform="translate(-624.527 -279.664)" opacity="0.1"/>
    <path id="Path_518" data-name="Path 518" d="M923.459,501.455l-1.427,1.15a8.705,8.705,0,0,0-1.882-3.634l1.472-.711Z" transform="translate(-707.177 -377.108)" opacity="0.1"/>
    <path id="Path_519" data-name="Path 519" d="M922.562,348.877l1.934-1.207s2.222.337,2.512,4.931a128.278,128.278,0,0,0,2.32,13.771l1.111,10.192a7.511,7.511,0,0,1,.049,2.9,10.58,10.58,0,0,0-.519,1.739c-.049.34-2.707,1.983-2.658,4.109s-3.374,4.106-3.374,4.106a14.243,14.243,0,0,0-2.948,2.224s-.823-3.867-2.608-4.833,3.769-8.648,3.769-8.648Z" transform="translate(-705.605 -265.603)" fill="#53517c"/>
    <path id="Path_520" data-name="Path 520" d="M907.374,465.65s-5.8,2.416-5.315,3.19S907.374,465.65,907.374,465.65Z" transform="translate(-693.76 -352.962)" opacity="0.1"/>
    <path id="Path_521" data-name="Path 521" d="M916.278,477.56s-2.411,1.067-2.211,1.407S916.278,477.56,916.278,477.56Z" transform="translate(-702.664 -361.781)" opacity="0.1"/>
    <path id="Path_522" data-name="Path 522" d="M911.068,485.38s-2.411,1.067-2.211,1.407S911.068,485.38,911.068,485.38Z" transform="translate(-698.806 -367.571)" opacity="0.1"/>
    <path id="Path_523" data-name="Path 523" d="M676.68,246.08v73.191h73.666A73.82,73.82,0,0,0,676.68,246.08Z" transform="translate(-526.898 -190.38)" fill="#ffcc75"/>
    <path id="Path_524" data-name="Path 524" d="M676.68,246.08v73.191h73.666A73.82,73.82,0,0,0,676.68,246.08Z" transform="translate(-526.898 -190.38)" opacity="0.1"/>
    <path id="Path_525" data-name="Path 525" d="M676.68,240.5v73.191h73.666A73.816,73.816,0,0,0,676.68,240.5Z" transform="translate(-526.898 -186.248)" fill="#ffcc75"/>
    <path id="Path_526" data-name="Path 526" d="M895.084,524.822a1.9,1.9,0,0,1,.343-1.121,1.831,1.831,0,0,1,.825-.462c.275-.091.553-.177.831-.26a2.115,2.115,0,0,1,.67-.109,2.345,2.345,0,0,1,1.233.576.52.52,0,0,1,.177.184c.083.192-.1.392-.26.519a12.375,12.375,0,0,1-1.845,1.357,3.708,3.708,0,0,1-1.617.558C894.772,526.083,895.039,525.3,895.084,524.822Z" transform="translate(-688.55 -395.331)" fill="#c37871"/>
    <path id="Path_527" data-name="Path 527" d="M872.277,260.839a5.466,5.466,0,0,1-.023.62,1.212,1.212,0,0,1-.114.068,3.349,3.349,0,0,0-.428.189c-.423.288-.327.916-.288,1.425a3.838,3.838,0,0,1-.441,2.126.761.761,0,0,1-.672-.633,5.083,5.083,0,0,1-.042-.994,8.627,8.627,0,0,0-.831-2.515c-.576-1.6-.449-3.374-.833-5.027a2.086,2.086,0,0,0-.709-1.3,1.9,1.9,0,0,0-1.905.1,10.845,10.845,0,0,1-1.762.955,5.258,5.258,0,0,1-3.024-.369,3.118,3.118,0,0,0-4.711,2.577,2.622,2.622,0,0,0-.138.893,7.991,7.991,0,0,1,.112.8c0,.581-.5,1.038-.688,1.588-.119.34-.091,1.178-.584,1.173a.314.314,0,0,1-.158-.049,8.3,8.3,0,0,1-.158-1.635,8.607,8.607,0,0,1,.119-1.425,8.695,8.695,0,0,1,17.267,1.126C872.274,260.639,872.277,260.74,872.277,260.839Z" transform="translate(-658.847 -194.863)" opacity="0.1"/>
    <path id="Path_528" data-name="Path 528" d="M844.661,239.174c-.031-.838.6-1.622.459-2.447-.114-.646-.675-1.116-.947-1.713a2.076,2.076,0,0,1,.33-2.188c.213-.239.48-.426.685-.67a4.971,4.971,0,0,0,.714-1.752,2.079,2.079,0,0,1,1.124-1.451c.651-.223,1.414.14,2.043-.143a.519.519,0,0,0,.319-.343,1.206,1.206,0,0,0-.034-.345c-.044-.462.395-.823.815-1.025,1.921-.927,4.189-.485,6.271-.026a4.126,4.126,0,0,1,.091-1.261,6.114,6.114,0,0,1,3.678,1.251,7.732,7.732,0,0,1,1.3,2.058,3.5,3.5,0,0,0,1.659,1.734,1.844,1.844,0,0,1,.685.327,1.3,1.3,0,0,1,.26.436l.5,1.228a1.366,1.366,0,0,0,.228.413,2.117,2.117,0,0,0,.439.309,2.843,2.843,0,0,1,.807,3.135c-.3,1.116-.929,2.126-1.168,3.257-.14.667-.221,1.482-.831,1.786a3.523,3.523,0,0,0-.428.192c-.423.285-.33.914-.288,1.422a3.849,3.849,0,0,1-.439,2.126.758.758,0,0,1-.672-.633,5.07,5.07,0,0,1-.044-.994,8.625,8.625,0,0,0-.831-2.515c-.576-1.6-.449-3.374-.831-5.027a2.1,2.1,0,0,0-.714-1.3,1.88,1.88,0,0,0-1.905.1,10.412,10.412,0,0,1-1.76.953,5.249,5.249,0,0,1-3.026-.371,3.116,3.116,0,0,0-4.706,2.58,2.639,2.639,0,0,0-.143.893,8.1,8.1,0,0,1,.114.8c0,.584-.5,1.038-.688,1.591-.119.34-.091,1.176-.584,1.173-.374,0-.753-.846-.937-1.093C845.64,240.892,844.7,240.2,844.661,239.174Z" transform="translate(-650.791 -175.371)" fill="#4b3e3c"/>
    <g id="Group_19" data-name="Group 19" transform="translate(193.208 51.062)" opacity="0.1">
      <path id="Path_529" data-name="Path 529" d="M845.12,259.225c-.114-.646-.675-1.113-.947-1.71a1.94,1.94,0,0,1-.153-.535,2.022,2.022,0,0,0,.153,1.113c.26.592.818,1.056.942,1.69A1.674,1.674,0,0,0,845.12,259.225Z" transform="translate(-843.998 -249.513)"/>
      <path id="Path_530" data-name="Path 530" d="M864.671,233.692a.225.225,0,0,0,0-.042.638.638,0,0,0-.031.122A.3.3,0,0,0,864.671,233.692Z" transform="translate(-859.283 -232.238)"/>
      <path id="Path_531" data-name="Path 531" d="M891.927,228.27a.443.443,0,0,1,0-.06v.057Z" transform="translate(-879.487 -228.21)"/>
      <path id="Path_532" data-name="Path 532" d="M921.229,263.361c-.3,1.116-.929,2.128-1.168,3.257-.14.67-.221,1.482-.831,1.788a3.976,3.976,0,0,0-.428.189c-.35.239-.345.711-.309,1.158a.757.757,0,0,1,.309-.576,3.525,3.525,0,0,1,.428-.192c.61-.3.69-1.119.831-1.786.239-1.132.869-2.141,1.168-3.257a3.948,3.948,0,0,0,.13-1.342,4.08,4.08,0,0,1-.13.76Z" transform="translate(-899.147 -253.674)"/>
      <path id="Path_533" data-name="Path 533" d="M875.19,268.891a.758.758,0,0,1-.672-.633,5.1,5.1,0,0,1-.044-1,8.617,8.617,0,0,0-.831-2.512c-.576-1.6-.449-3.374-.831-5.027a2.1,2.1,0,0,0-.714-1.3,1.892,1.892,0,0,0-1.905.1,10.414,10.414,0,0,1-1.76.953,5.248,5.248,0,0,1-3.026-.369,3.116,3.116,0,0,0-4.706,2.577,2.651,2.651,0,0,0-.143.9,1.1,1.1,0,0,0,.026.182,3.945,3.945,0,0,1,.117-.5,3.116,3.116,0,0,1,4.706-2.58,5.269,5.269,0,0,0,3.026.371,10.6,10.6,0,0,0,1.76-.953,1.886,1.886,0,0,1,1.905-.1,2.058,2.058,0,0,1,.714,1.3c.382,1.658.26,3.426.831,5.027a9.386,9.386,0,0,1,.831,2.515,5.065,5.065,0,0,0,.044.994.758.758,0,0,0,.672.633,3.861,3.861,0,0,0,.441-2.108,3.894,3.894,0,0,1-.441,1.526Z" transform="translate(-856.261 -250.419)"/>
      <path id="Path_534" data-name="Path 534" d="M849.61,278.092c-.119.34-.091,1.176-.584,1.173-.374,0-.753-.844-.937-1.09-.519-.7-1.365-1.35-1.518-2.255a1.838,1.838,0,0,0-.023.358c.039,1.025.978,1.718,1.542,2.476.184.26.563,1.09.937,1.093.493,0,.465-.833.584-1.173.192-.55.675-1.007.688-1.591a1.584,1.584,0,0,0-.036-.332A14.441,14.441,0,0,1,849.61,278.092Z" transform="translate(-845.885 -263.537)"/>
    </g>
    <rect id="Rectangle_94" data-name="Rectangle 94" width="0.872" height="0.888" transform="translate(25.889 115.919)" fill="#ffcc75"/>
    <rect id="Rectangle_95" data-name="Rectangle 95" width="0.872" height="0.888" transform="translate(25.889 115.919)" opacity="0.25"/>
    <rect id="Rectangle_96" data-name="Rectangle 96" width="0.851" height="0.989" transform="translate(99.781 42.816)" fill="#ffcc75"/>
    <rect id="Rectangle_97" data-name="Rectangle 97" width="0.851" height="0.989" transform="translate(99.781 42.816)" opacity="0.25"/>
    <path id="Path_535" data-name="Path 535" d="M276.3,272.721h0V199.53h-.153a73.823,73.823,0,0,0-73.819,73.214Z" transform="translate(-175.662 -155.912)" fill="#fff" opacity="0.2"/>
    <path id="Path_536" data-name="Path 536" d="M276.3,272.721h0V199.53h-.153a73.823,73.823,0,0,0-73.819,73.214Z" transform="translate(-175.662 -155.912)" fill="#ffcc75"/>
    <path id="Path_537" data-name="Path 537" d="M276.3,272.721h0V199.53h-.153a73.823,73.823,0,0,0-73.819,73.214Z" transform="translate(-175.662 -155.912)" opacity="0.25"/>
    <path id="Path_538" data-name="Path 538" d="M273.3,269.721h0V196.53h-.153a73.823,73.823,0,0,0-73.819,73.215Z" transform="translate(-173.441 -153.69)" fill="#ffcc75"/>
    <path id="Path_539" data-name="Path 539" d="M273.3,269.721h0V196.53h-.153a73.823,73.823,0,0,0-73.819,73.215Z" transform="translate(-173.441 -153.69)" opacity="0.15"/>
    <path id="Path_540" data-name="Path 540" d="M593.439,677.37l1.087.683v1.3l-1.477-.228Z" transform="translate(-439.128 -501.556)" fill="#ffcc75"/>
    <path id="Path_541" data-name="Path 541" d="M593.439,677.37l1.087.683v1.3l-1.477-.228Z" transform="translate(-439.128 -501.556)" opacity="0.1"/>
    <path id="Path_542" data-name="Path 542" d="M193.757,678.955l-.407.122v1.3l1.381-.3-.34-1.264Z" transform="translate(-143.167 -502.622)" fill="#ffcc75"/>
    <path id="Path_543" data-name="Path 543" d="M193.757,678.955l-.407.122v1.3l1.381-.3-.34-1.264Z" transform="translate(-143.167 -502.622)" opacity="0.1"/>
    <path id="Path_544" data-name="Path 544" d="M346.484,517.46,292.93,569.078a73.809,73.809,0,0,0,105.214.042Z" transform="translate(-242.747 -391.325)" fill="#ffcc75"/>
    <path id="Path_545" data-name="Path 545" d="M346.484,512.46,292.93,564.078a73.809,73.809,0,0,0,105.214.042Z" transform="translate(-242.747 -387.623)" fill="#ffcc75"/>
    <path id="Path_546" data-name="Path 546" d="M346.484,512.46,292.93,564.078a73.809,73.809,0,0,0,105.214.042Z" transform="translate(-242.747 -387.623)" opacity="0.1"/>
    <path id="Path_547" data-name="Path 547" d="M346.484,517.46,292.93,569.078a73.809,73.809,0,0,0,105.214.042Z" transform="translate(-242.747 -391.325)" fill="#ffcc75"/>
    <path id="Path_548" data-name="Path 548" d="M382.99,471.58l1.783-1.22.26.519L383,472.366Z" transform="translate(-283.588 -348.274)" fill="#3acc6c"/>
    <path id="Path_549" data-name="Path 549" d="M382.99,471.58l1.783-1.22.26.519L383,472.366Z" transform="translate(-283.588 -348.274)" opacity="0.1"/>
    <path id="Path_550" data-name="Path 550" d="M375.059,466.053l1.882-.693.26.519-3.211,1.082Z" transform="translate(-276.924 -344.572)" fill="#ff748e"/>
    <path id="Path_551" data-name="Path 551" d="M375.059,466.053l1.882-.693.26.519-3.211,1.082Z" transform="translate(-276.924 -344.572)" opacity="0.1"/>
    <path id="Path_552" data-name="Path 552" d="M373.342,458.969l1.988-.109v.519l-3.34.35.3-.672Z" transform="translate(-275.443 -339.759)" fill="#5e5a6b"/>
    <path id="Path_553" data-name="Path 553" d="M373.342,458.969l1.988-.109v.519l-3.34.35.3-.672Z" transform="translate(-275.443 -339.759)" opacity="0.1"/>
    <path id="Path_554" data-name="Path 554" d="M274.254,490.36,202.27,506.753a74.073,74.073,0,0,1-1.69-15.767v-.625Z" transform="translate(-174.366 -371.259)" fill="#5e5a6b"/>
    <path id="Path_555" data-name="Path 555" d="M274.254,490.36,202.27,506.753a74.073,74.073,0,0,1-1.69-15.767v-.625Z" transform="translate(-174.366 -371.259)" opacity="0.1"/>
    <path id="Path_556" data-name="Path 556" d="M274.254,492.36,202.27,508.753a74.073,74.073,0,0,1-1.69-15.767v-.626Z" transform="translate(-174.366 -372.74)" fill="#5e5a6b"/>
    <path id="Path_557" data-name="Path 557" d="M207.59,513.248a73.126,73.126,0,0,0,7.506,19.925l64.478-36.313Z" transform="translate(-179.557 -376.072)" fill="#ff748e"/>
    <path id="Path_558" data-name="Path 558" d="M207.59,513.248a73.126,73.126,0,0,0,7.506,19.925l64.478-36.313Z" transform="translate(-179.557 -376.072)" opacity="0.1"/>
    <path id="Path_559" data-name="Path 559" d="M208.59,515.248a73.125,73.125,0,0,0,7.506,19.925l64.478-36.313Z" transform="translate(-180.297 -377.553)" fill="#ff748e"/>
    <path id="Path_560" data-name="Path 560" d="M305.257,501.88,240.89,538.136l.031.057a73.8,73.8,0,0,0,12.043,16.115l52.428-52.428Z" transform="translate(-204.214 -379.789)" fill="#3acc6c"/>
    <path id="Path_561" data-name="Path 561" d="M305.257,501.88,240.89,538.136l.031.057a73.8,73.8,0,0,0,12.043,16.115l52.428-52.428Z" transform="translate(-204.214 -379.789)" opacity="0.1"/>
    <path id="Path_562" data-name="Path 562" d="M306.257,503.88,241.89,540.136l.031.057a73.806,73.806,0,0,0,12.043,16.115l52.428-52.428Z" transform="translate(-204.954 -381.27)" fill="#3acc6c"/>
  </g>
</svg>
