<svg xmlns="http://www.w3.org/2000/svg" width="426.82" height="362.937" viewBox="0 0 426.82 362.937">
  <g id="undraw_treasure_of9i" transform="translate(0.009)">
    <ellipse id="Ellipse_19" data-name="Ellipse 19" cx="138.476" cy="26.995" rx="138.476" ry="26.995" transform="translate(3.985 308.947)" fill="#3f3d56"/>
    <path id="Path_97" data-name="Path 97" d="M204.725,695.993s-25.676-6.9-30.52-6.394,7.339-23.676,15.452-20.726,18.932,10.708,25.116-.25,9.653-16.857,17.187-16.267,17.967-4.714,25.5,0,12.818,10.528,23.216,10.278,20.256-23.841,28.355-14.4,17.812,18.072,25.426,14.932,16.3,1.58,23.256,6.889,19.127,2.95,23.761-1.18,8.119-7.079,17.967-6.5,41.148,7.669,52.741,16.5-15.067,20.057-27.82,20.057-15.067,3.539-26.08,8.849-28.995-2.949-41.728,5.9-28.995-4.719-50.991,0-17.387,11.2-30.14,6.5-8.114-6.5-26.66-7.669-38.828,2.95-40.568-4.719-13.318-9.438-20.276-11.8S204.725,695.993,204.725,695.993Z" transform="translate(-173.11 -366.55)" fill="#3f3d56"/>
    <path id="Path_98" data-name="Path 98" d="M864.442,561.478l1-.64.3-.19a9.773,9.773,0,0,1-1-19.047l-.05,4.029,2.215-4.384h0a9.778,9.778,0,0,1,10.223,9.313c0,.19,0,.37,0,.555a11.648,11.648,0,0,0,1.93-2.85c.94-2.095.955-4.459.885-7.339-.15-5.7-.395-11.443-.715-17.172a9.768,9.768,0,0,1-8.684-9.253,8.714,8.714,0,0,1,0-.885c0-.075,0-.15,0-.22a5.319,5.319,0,0,1,.09-.845,1.261,1.261,0,0,1,0-.135c.035-.235.085-.465.14-.695a1.193,1.193,0,0,1,.065-.255c.07-.25.145-.5.235-.74.03-.08.06-.155.1-.235.07-.18.145-.355.225-.53.04-.09.08-.185.125-.275l.035-.07h0a9.783,9.783,0,0,1,11.5-4.959l-.065,5.244,2.19-4.329a9.763,9.763,0,0,1,4.879,8,9.581,9.581,0,0,1-.215,2.525h0a1.041,1.041,0,0,1-.055.2c-.015.07-.065.26-.1.385s-.095.325-.15.5-.08.24-.125.36-.145.34-.22.5c-.045.095-.085.195-.13.295-.125.25-.26.5-.4.74-.05.085-.11.165-.16.245-.105.16-.21.325-.325.5a1.947,1.947,0,0,1-.22.28c-.075.09-.215.27-.33.4s-.165.18-.25.27-.24.25-.37.37l-.255.24-.445.37-.23.18c-.235.17-.47.33-.72.5l-.14.08a7.029,7.029,0,0,1-.635.345l-.28.125c-.175.08-.355.16-.54.225l-.32.115c-.18.065-.36.12-.545.17l-.33.085c-.2.05-.4.09-.61.125h-.04q.2,3.63.36,7.254a9.768,9.768,0,0,1,13.568-4.244l-1.725,4.739,3.554-3.414a9.743,9.743,0,0,1,3.159,6.749,9.6,9.6,0,0,1-.25,2.695,9.773,9.773,0,0,1-18,2.665c0,.245,0,.5,0,.735.065,2.54.145,5.7-1.12,8.5a17.266,17.266,0,0,1-3.6,4.859c-.89.9-1.81,1.78-2.75,2.63a9.827,9.827,0,0,1-3.534,2.934q-2.325,1.79-4.809,3.354l-.865.63c-.93.58-1.885,1.17-2.82,1.785l.5-.04a9.778,9.778,0,0,1,9.623,6.364l-6.109,5,6.724-1.56a9.793,9.793,0,0,1-14,8.809c.155.185.3.375.455.565l.89,1.11c4,5.039,5.084,9.818,3.114,13.463l-2.395-1.295c1.915-3.549-.965-8.089-2.854-10.5-.285-.365-.58-.73-.875-1.095-2.54-3.154-5.419-6.734-5.349-11.123C852.859,568.652,859.283,564.672,864.442,561.478Z" transform="translate(-513.022 -295.664)" fill="#f1f1f1"/>
    <path id="Path_99" data-name="Path 99" d="M724.858,519.675l-1.535-.96c-.15-.09-.3-.185-.44-.28a14.642,14.642,0,0,0,1.5-28.525l.075,6.034-3.314-6.564h-.04A14.642,14.642,0,0,0,705.8,503.328c0,.28,0,.555,0,.83a17.5,17.5,0,0,1-2.895-4.274c-1.4-3.13-1.43-6.674-1.32-11,.22-8.539.59-17.142,1.07-25.716a14.632,14.632,0,0,0,13-13.853v-1.66c-.03-.425-.07-.845-.135-1.26a.424.424,0,0,0-.035-.2c-.06-.35-.135-.695-.22-1.04-.03-.13-.06-.255-.095-.385-.105-.375-.215-.74-.35-1.1-.04-.12-.09-.235-.14-.355-.1-.27-.215-.53-.335-.79-.065-.14-.125-.275-.19-.41a1,1,0,0,1-.05-.1h0a14.632,14.632,0,0,0-12.373-8,14.8,14.8,0,0,0-4.819.58l.1,7.854-3.274-6.5a14.553,14.553,0,0,0-7,15.777h0a1.455,1.455,0,0,0,.08.3c.045.195.1.385.145.575s.15.5.23.725.12.36.19.535c.095.26.21.5.325.765.065.15.125.3.195.445.185.375.385.745.6,1.1.075.13.16.25.24.37a7.358,7.358,0,0,0,.5.72c.1.145.22.28.33.42s.325.4.5.6l.37.4q.27.285.555.555l.385.355c.215.19.44.375.67.55.115.09.225.185.345.275.345.255.7.5,1.07.72.07.045.145.08.215.12.31.18.625.355.945.5l.425.19c.265.12.53.235.8.335.16.065.32.12.5.175.27.09.545.175.82.25l.5.13c.3.07.61.13.915.185h.06q-.31,5.429-.54,10.858a14.632,14.632,0,0,0-20.321-6.349l2.589,7.089-5.324-5.109a14.562,14.562,0,0,0-4.729,10.108,14.372,14.372,0,0,0,.37,4.034,14.632,14.632,0,0,0,26.92,4c0,.37,0,.74-.035,1.1-.095,3.8-.22,8.534,1.675,12.758a25.7,25.7,0,0,0,5.394,7.269q2,2.04,4.119,3.939a14.653,14.653,0,0,0,5.284,4.4q3.5,2.675,7.209,5l1.55.96c1.39.865,2.82,1.755,4.219,2.674-.245,0-.5-.05-.74-.06a14.638,14.638,0,0,0-14.413,9.528l9.143,7.444-10.063-2.33a14.658,14.658,0,0,0,21,13.188c-.23.28-.455.56-.68.845-.45.56-.9,1.115-1.335,1.665-5.954,7.544-7.609,14.7-4.664,20.157l3.589-1.935c-2.87-5.314,1.445-12.113,4.274-15.692.425-.545.865-1.09,1.31-1.64,3.8-4.724,8.114-10.083,8-16.652C742.2,530.423,732.586,524.479,724.858,519.675Z" transform="translate(-421.754 -260.525)" fill="#f1f1f1"/>
    <path id="Path_100" data-name="Path 100" d="M609.769,723.446s-17.3-4.579-20.561-4.244,4.944-15.667,10.408-13.718,12.758,7.089,16.922-.165,6.5-11.158,11.583-10.768,12.1-3.124,17.177,0,8.634,6.969,15.642,6.8,13.643-15.782,19.107-9.538,12,11.968,17.127,9.888,11,1.045,15.672,4.559,12.883,1.955,16-.78,5.469-4.684,12.108-4.294,27.72,5.074,35.529,10.933S766.327,725.4,757.738,725.4s-10.153,2.345-17.572,5.859-19.522-1.955-28.11,3.9-19.522-3.124-34.359,0-11.713,7.419-20.307,4.294-5.464-4.294-17.957-5.074-26.16,1.95-27.335-3.125-9-6.249-13.663-7.809S609.769,723.446,609.769,723.446Z" transform="translate(-380.828 -388.724)" fill="#3f3d56"/>
    <path id="Path_101" data-name="Path 101" d="M613.947,530.785l-6.7,20.531-.29.895-11.213,34.374-19.2,12.973-93.219-39.2,8.833-35.724.47-1.88,4.729-19.122.01-.045,28.7-3.589Z" transform="translate(-241.711 -250.043)" fill="#f8ce6d"/>
    <path id="Path_102" data-name="Path 102" d="M627.985,530.785l-18.2,55.8-19.2,12.973,17.622-60.894L511.4,503.634l.01-.045,28.7-3.589Z" transform="translate(-255.749 -250.043)" opacity="0.1"/>
    <path id="Path_103" data-name="Path 103" d="M551.695,512.365l-1.545-.94,15.487-1.625,66.349,23.456-1.87.98-65.454-23.081Z" transform="translate(-275.127 -254.944)" opacity="0.1"/>
    <path id="Path_104" data-name="Path 104" d="M616.085,574.08l-19.377,9.113L501.47,545.52,501,547.4l95.323,37.134,19.472-9.558" transform="translate(-250.548 -272.807)" opacity="0.1"/>
    <ellipse id="Ellipse_20" data-name="Ellipse 20" cx="3.334" cy="3.599" rx="3.334" ry="3.599" transform="translate(254.561 268.128) rotate(-72.75)" fill="#3f3d56"/>
    <ellipse id="Ellipse_21" data-name="Ellipse 21" cx="3.334" cy="3.599" rx="3.334" ry="3.599" transform="translate(338.501 300.629) rotate(-72.75)" fill="#3f3d56"/>
    <ellipse id="Ellipse_22" data-name="Ellipse 22" cx="3.334" cy="3.599" rx="3.334" ry="3.599" transform="translate(325.236 340.994) rotate(-72.75)" fill="#3f3d56"/>
    <ellipse id="Ellipse_23" data-name="Ellipse 23" cx="3.334" cy="3.599" rx="3.334" ry="3.599" transform="translate(244.291 307.127) rotate(-72.75)" fill="#3f3d56"/>
    <path id="Path_105" data-name="Path 105" d="M699.927,595.037c-.2.65-1.8,0-3.844-.64s-3.629-1.34-3.429-2,2.12-1,4.159-.365S700.132,594.387,699.927,595.037Z" transform="translate(-432.922 -339.391)" fill="#3f3d56"/>
    <ellipse id="Ellipse_24" data-name="Ellipse 24" cx="1.23" cy="3.509" rx="1.23" ry="3.509" transform="translate(270.205 252.396) rotate(-72.75)" fill="#3f3d56"/>
    <path id="Path_106" data-name="Path 106" d="M786.151,626.8c-.2.65-2.2.05-4.149-.555s-3.459-1.28-3.259-1.93,2.045-1,4-.415S786.361,626.142,786.151,626.8Z" transform="translate(-475.974 -355.348)" fill="#3f3d56"/>
    <path id="Path_107" data-name="Path 107" d="M868.653,656.3c-.225.73-2.355.095-4.419-.545s-3.669-1.375-3.444-2.1,2.2-1.175,4.264-.535S868.882,655.567,868.653,656.3Z" transform="translate(-517.003 -369.951)" fill="#3f3d56"/>
    <path id="Path_108" data-name="Path 108" d="M892.912,652.8c-.23.73-2.355.095-4.419-.545s-3.674-1.375-3.444-2.1,2.2-1.175,4.264-.535S893.137,652.067,892.912,652.8Z" transform="translate(-529.134 -368.201)" fill="#3f3d56"/>
    <path id="Path_109" data-name="Path 109" d="M906.253,645.987c-.23.73-2,.21-3.689-.32s-3-1.17-2.795-1.9,1.91-1.27,3.614-.74S906.478,645.257,906.253,645.987Z" transform="translate(-536.496 -364.955)" fill="#3f3d56"/>
    <path id="Path_110" data-name="Path 110" d="M825.972,617.057c-.18.58-2,.045-3.729-.5s-3.115-1.155-2.93-1.735,1.835-.915,3.584-.375S826.147,616.472,825.972,617.057Z" transform="translate(-496.264 -350.633)" fill="#3f3d56"/>
    <ellipse id="Ellipse_25" data-name="Ellipse 25" cx="1.23" cy="3.029" rx="1.23" ry="3.029" transform="translate(284.635 252.097) rotate(-72.75)" fill="#3f3d56"/>
    <path id="Path_111" data-name="Path 111" d="M770.607,656.321a3.159,3.159,0,0,0-1.45-3.679,3.215,3.215,0,0,0,.655-1.165,15.792,15.792,0,0,1-5.326-7.788,8.243,8.243,0,0,1-6.814.687,3.16,3.16,0,0,0-2.018,2.062.9.9,0,0,1-.05.2l-.11.055a3.159,3.159,0,1,0-3.055,5.364,2.817,2.817,0,0,0,.5.11l.04,1.16,15.127,6.184-.1-1A3.169,3.169,0,0,0,770.607,656.321Z" transform="translate(-461.72 -365.246)" opacity="0.1"/>
    <path id="Path_112" data-name="Path 112" d="M763.281,679a3.165,3.165,0,0,1-3.6,1.645,3.09,3.09,0,0,1-.335,1.29,3.159,3.159,0,0,1-4.244,1.4,3.214,3.214,0,0,1-1.165-1,3.159,3.159,0,0,1-5.9-2.045,3.207,3.207,0,0,1-1-.31,3.159,3.159,0,0,1-1.4-4.239l.1-.185-.04-.115a3.123,3.123,0,0,1-1.315-.335,3.175,3.175,0,1,1,2.87-5.664,3.305,3.305,0,0,1,.425.255l.83-.8,15.217,6.084-.765.65A3.159,3.159,0,0,1,763.281,679Z" transform="translate(-457.928 -378)" opacity="0.1"/>
    <path id="Path_113" data-name="Path 113" d="M761.513,653.148l-3.674,11.908A3.579,3.579,0,0,0,760,669.47h0a3.574,3.574,0,0,0,4.659-2.29l3.674-11.913a3.569,3.569,0,0,0-2.54-4.5h0a3.569,3.569,0,0,0-4.284,2.38Z" transform="translate(-465.448 -368.877)" opacity="0.1"/>
    <path id="Path_114" data-name="Path 114" d="M762.188,654.834l-3.334,10.678a3.2,3.2,0,0,0,1.945,3.954h0a3.2,3.2,0,0,0,4.174-2.055l3.314-10.683a3.209,3.209,0,0,0-2.28-4.059h0A3.209,3.209,0,0,0,762.188,654.834Z" transform="translate(-465.964 -369.838)" fill="#3f3d56"/>
    <path id="Path_115" data-name="Path 115" d="M657.409,734.379s-17.3-4.579-20.561-4.239,4.944-15.672,10.408-13.718,12.758,7.084,16.922-.17,6.5-11.153,11.583-10.763,12.1-3.124,17.177,0,8.633,6.964,15.642,6.8,13.643-15.782,19.112-9.533,12,11.963,17.127,9.888,11,1.045,15.667,4.559,12.888,1.95,16-.78,5.464-4.689,12.1-4.3,27.72,5.079,35.529,10.933-10.148,13.278-18.742,13.278-10.148,2.34-17.567,5.854-19.527-1.95-28.115,3.9-19.522-3.12-34.359,0-11.713,7.419-20.3,4.3-5.469-4.3-17.962-5.079-26.16,1.955-27.33-3.124-8.974-6.244-13.663-7.809S657.409,734.379,657.409,734.379Z" transform="translate(-404.652 -394.193)" fill="#3f3d56"/>
    <path id="Path_116" data-name="Path 116" d="M966.088,680.495c1.5-2.755-.2-6.134-2.14-8.589s-4.309-5-4.259-8.144c.075-4.5,4.849-7.154,8.663-9.543a41.986,41.986,0,0,0,7.779-6.254,11.3,11.3,0,0,0,2.39-3.2,12.973,12.973,0,0,0,.72-5.684q-.245-9.628-.955-19.242" transform="translate(-566.472 -353.466)" fill="none" stroke="#3f3d56" stroke-miterlimit="10" stroke-width="4"/>
    <path id="Path_117" data-name="Path 117" d="M997.409,612.447a7,7,0,0,0-3.5-5.749l-1.57,3.109.05-3.764a7.093,7.093,0,0,0-2.315-.28,7,7,0,1,0,7.339,6.684Z" transform="translate(-578.341 -346.423)" fill="#57b793"/>
    <path id="Path_118" data-name="Path 118" d="M973.147,703.918a7,7,0,1,1,.34-5.649l-4.384,3.584,4.824-1.115A7,7,0,0,1,973.147,703.918Z" transform="translate(-566.591 -390.407)" fill="#57b793"/>
    <path id="Path_119" data-name="Path 119" d="M971.952,672.849a7,7,0,0,1-2.22-13.763l-.035,2.889,1.585-3.144h0a7,7,0,0,1,7.349,6.679,6.92,6.92,0,0,1-.3,2.395,7,7,0,0,1-6.379,4.944Z" transform="translate(-568.861 -372.96)" fill="#57b793"/>
    <path id="Path_120" data-name="Path 120" d="M1006.251,650.212a7,7,0,1,1,3.1-13.133l-1.24,3.4,2.55-2.45a7,7,0,0,1,2.265,4.844,6.894,6.894,0,0,1-.175,1.935,7,7,0,0,1-6.5,5.4Z" transform="translate(-586.128 -361.657)" fill="#57b793"/>
    <path id="Path_121" data-name="Path 121" d="M996.5,618.159c-1.62.175-3.194.68-4.819.78a5.226,5.226,0,0,1-4.434-1.55,20.891,20.891,0,0,1-1.3-2.285,5,5,0,0,0-1.77-1.665,7,7,0,1,0,13.118,4.659Q996.9,618.114,996.5,618.159Z" transform="translate(-578.374 -350.266)" opacity="0.1"/>
    <path id="Path_122" data-name="Path 122" d="M1006.169,654.208a7.024,7.024,0,0,1-6.674-10,5.182,5.182,0,0,1,1.42,1.395,22.122,22.122,0,0,0,1.395,2.32,5.731,5.731,0,0,0,4.649,1.63c1.695-.075,3.329-.56,5-.715.235,0,.5-.035.71-.04a7,7,0,0,1-6.5,5.409Z" transform="translate(-586.046 -365.653)" opacity="0.1"/>
    <path id="Path_123" data-name="Path 123" d="M972.095,677a7,7,0,0,1-6.719-9.878,5.657,5.657,0,0,1,1.5,1.425c.545.77.885,1.66,1.5,2.37a6.518,6.518,0,0,0,4.969,1.74c1.795-.04,3.409-.465,5.134-.6A7,7,0,0,1,972.1,677Z" transform="translate(-569.004 -377.11)" opacity="0.1"/>
    <path id="Path_124" data-name="Path 124" d="M972.965,708.4a7.005,7.005,0,1,1-12.788-5.724,7,7,0,0,1,1.535,1.375,30.492,30.492,0,0,0,1.88,2.5,8.739,8.739,0,0,0,5.814,2.045A29.972,29.972,0,0,0,972.965,708.4Z" transform="translate(-566.409 -394.893)" opacity="0.1"/>
    <path id="Path_125" data-name="Path 125" d="M951.32,731.827s5.539-.17,7.209-1.36,8.5-2.6,8.933-.7,8.319,9.5,2.07,9.528-14.527-.97-16.192-2S951.32,731.827,951.32,731.827Z" transform="translate(-562.287 -407.973)" fill="#656380"/>
    <path id="Path_126" data-name="Path 126" d="M969.672,741.614c-6.254.05-14.528-1-16.192-2-1.27-.775-1.775-3.544-1.945-4.824h-.185s.35,4.469,2,5.5,9.938,2.035,16.192,2c1.8,0,2.425-.655,2.395-1.6C971.672,741.244,971,741.6,969.672,741.614Z" transform="translate(-562.302 -410.951)" opacity="0.2"/>
    <path id="Path_127" data-name="Path 127" d="M368.792,246.483a2.255,2.255,0,0,1,.155-1.07c.4-.72,1.465-.525,2.265-.32,3.219.81,6.609.075,9.918.265s7.044,1.845,7.709,5.094a24.122,24.122,0,0,0,6.114-6.284,7.533,7.533,0,0,0,1.595-4.6c-.18-2.38-2.175-4.159-4.024-5.669l-5.5-4.5a8.254,8.254,0,0,0-2.47-1.57,12.288,12.288,0,0,0-4-.23c-4,0-8.284-1.82-11.853,0a12.616,12.616,0,0,0-3.689,3.354l-4.919,5.824a3.065,3.065,0,0,0-.785,1.335,5.977,5.977,0,0,0,.35,2.125c.235,1.3-.33,2.685.1,3.934.715,2.075,3.229,2.37,4.769,3.554.575.445,1.475,1.945,2.155,1.93C367.907,249.642,368.757,247.438,368.792,246.483Z" transform="translate(-266.214 -156.908)" fill="#3f3d56"/>
    <path id="Path_128" data-name="Path 128" d="M373.6,286.5a8.761,8.761,0,0,1-1.91,4.4c-1.215,1.79-2.5,3.649-4.419,4.649a42.463,42.463,0,0,0,31.385,3.309c1.685-.5,3.674-1.54,3.574-3.294a17.922,17.922,0,0,1-5.769-2.315,12.592,12.592,0,0,1-4.234-6,67.412,67.412,0,0,1-1.91-7.214,1.36,1.36,0,0,0-.31-.67,1.38,1.38,0,0,0-.95-.25L382.4,279c-2.735,0-5.7-.065-8.244,1.095C370.994,281.544,373.689,283.809,373.6,286.5Z" transform="translate(-270.211 -183.016)" fill="#ffc0c6"/>
    <path id="Path_129" data-name="Path 129" d="M373.6,286.5a8.761,8.761,0,0,1-1.91,4.4c-1.215,1.79-2.5,3.649-4.419,4.649a42.463,42.463,0,0,0,31.385,3.309c1.685-.5,3.674-1.54,3.574-3.294a17.922,17.922,0,0,1-5.769-2.315,12.592,12.592,0,0,1-4.234-6,67.412,67.412,0,0,1-1.91-7.214,1.36,1.36,0,0,0-.31-.67,1.38,1.38,0,0,0-.95-.25L382.4,279c-2.735,0-5.7-.065-8.244,1.095C370.994,281.544,373.689,283.809,373.6,286.5Z" transform="translate(-270.211 -183.016)" opacity="0.1"/>
    <path id="Path_130" data-name="Path 130" d="M359.418,743.281c-1.64,2.5-3.784,4.614-5.584,7s-3.3,5.164-3.324,8.149a1.29,1.29,0,0,0,.345,1.05,1.35,1.35,0,0,0,.685.215l6.949.89a11.646,11.646,0,0,0,3.2.11,11.349,11.349,0,0,0,3.279-1.195,4.525,4.525,0,0,0,1.97-1.5c.335-.55.425-1.225.745-1.785.965-1.695,3.394-1.62,5.324-1.325.555-5.154-.87-10.293-2.285-15.282a1.565,1.565,0,0,0-1.29-1.34c-1.665-.545-5.689-2.68-7.089-1.68C361.318,737.327,360.248,741.956,359.418,743.281Z" transform="translate(-261.825 -411.718)" fill="#575a88"/>
    <path id="Path_131" data-name="Path 131" d="M430.07,752.766c1.335-.625,2.76-1.43,4.2-1.1,2.03.455,2.934,2.854,4.659,4a8.305,8.305,0,0,0,3.634,1.09,84.694,84.694,0,0,0,11.748.695c1.255,0,2.835-.3,3.139-1.5s-.85-2.155-1.875-2.779a54.988,54.988,0,0,0-6.939-3.6,13.912,13.912,0,0,1-3.309-1.76c-1.715-1.385-2.55-3.554-3.314-5.619-.615-1.66-1.18-5.244-2.44-6.5-1.38-1.355-3.234-.455-4.964-.075-2.69.59-5.839,1-7.569,3.414C424.511,742.562,422.566,756.24,430.07,752.766Z" transform="translate(-298.972 -411.04)" fill="#575a88"/>
    <path id="Path_132" data-name="Path 132" d="M352.1,449.808a50.961,50.961,0,0,0-3.729,17.767,101.064,101.064,0,0,0,.865,13.623q1.185,11,2.38,22a62.049,62.049,0,0,0,1.435,9.053c.865,3.324,2.27,6.5,3.274,9.768,3.109,10.188,2.225,21.176.17,31.63a15.8,15.8,0,0,0-.43,3.5,24.428,24.428,0,0,0,1.18,5.154c2.69,10.423-3.5,22,.54,31.994a1.585,1.585,0,0,0,.635.875,1.61,1.61,0,0,0,1.26-.055,17.044,17.044,0,0,0,3.294-1.56,20.1,20.1,0,0,0,8.169,5.914c2.37-.585,2.815-3.464,3.589-5.779a39.495,39.495,0,0,0,1.44-5.034,40.07,40.07,0,0,0,.525-6.339l2.05-72.162-.15,22.021a26,26,0,0,0,.335,5.329c.3,1.465.85,2.869,1.165,4.334a29.5,29.5,0,0,1,.37,6.409,188.363,188.363,0,0,0,3.474,37.9c.8,4.089,1.76,8.219,3.8,11.843a1.3,1.3,0,0,0,.745.73c.435.095.835-.25,1.165-.555a12.743,12.743,0,0,1,14.632-1.59c-.44-2.12,1.58-4.584.135-6.194a14.765,14.765,0,0,0-1.5-1.095,4.881,4.881,0,0,1-1.27-3.309,76.654,76.654,0,0,1,0-16.132c.7-6.7,2.29-13.463,1.12-20.1-.85-4.814-3.139-9.5-2.685-14.343.3-3.249,1.81-6.244,2.85-9.338,4.539-13.528,0-28.605,3.284-42.493.755-3.189,1.895-6.639.525-9.613l2.085-.635-4.329-9.883a18.576,18.576,0,0,0-3.5-5.889c-2.72-2.7-6.784-3.429-10.578-4l-30.865-4.814C356.825,448.3,353.136,447.268,352.1,449.808Z" transform="translate(-260.751 -267.609)" fill="#3c354c"/>
    <circle id="Ellipse_26" data-name="Ellipse 26" cx="13.213" cy="13.213" r="13.213" transform="translate(97.569 76.987)" fill="#ffc0c6"/>
    <path id="Path_133" data-name="Path 133" d="M367.289,297.238a3.069,3.069,0,0,0-2.13-.375,3.638,3.638,0,0,0-1,.545l-6.249,4.379a9.663,9.663,0,0,0-2.365,2.07,7.707,7.707,0,0,0-1.1,5.189c.31,4.059,1.95,7.889,2.839,11.858s.89,8.5-1.67,11.678a6.19,6.19,0,0,0-1.09,1.545,4.5,4.5,0,0,0-.2,1.5,40.9,40.9,0,0,0,.12,5.7c.28,2.445,1,4.819,1.39,7.244.685,4.129.5,8.364,1.03,12.5a2,2,0,0,0,2,2.17,58.875,58.875,0,0,0,9.333.615c3.614,0,7.224-.2,10.833-.39l16.427-.865a1.62,1.62,0,0,0,1.825-1.675c1.44-6.909,2.889-13.943,2.21-20.961a76.322,76.322,0,0,0-3-13.308c-1-3.549-1.96-7.274-1.21-10.888.5-2.385,1.715-4.589,2.03-7a8.254,8.254,0,0,0-2.26-6.949c-1.84-1.765-4.524-2.435-6.359-4.2a14.463,14.463,0,0,0-1.64-1.59,2.05,2.05,0,0,0-2.155-.25,2.774,2.774,0,0,0-.82.915c-1.6,2.43-4,6.434-7.374,5.8C373.053,301.837,370.5,298.787,367.289,297.238Z" transform="translate(-263.712 -191.306)" fill="#8cc6ff"/>
    <path id="Path_134" data-name="Path 134" d="M444.686,473.228c-1.17.875-2.04,2.43-1.5,3.784a7.634,7.634,0,0,0,4.679-.65c.935-.455,2.1-1.095,2.909-.435a2.464,2.464,0,0,1,.595.9,30.4,30.4,0,0,0,3.169,5.264,5.369,5.369,0,0,0,2.36-1.7,4.935,4.935,0,0,0,.615-1.825,48.5,48.5,0,0,0,.695-4.864,4.317,4.317,0,0,0-.685-3.379C454.049,466.569,447.57,471.073,444.686,473.228Z" transform="translate(-308.094 -277.972)" fill="#ffc0c6"/>
    <path id="Path_135" data-name="Path 135" d="M367.142,236.573a2.24,2.24,0,0,1,.155-1.065c.4-.72,1.465-.5,2.265-.325,3.219.815,6.609.08,9.918.27s7.044,1.845,7.709,5.094a24.2,24.2,0,0,0,6.119-6.284,7.533,7.533,0,0,0,1.595-4.6c-.18-2.38-2.175-4.159-4.024-5.669l-5.5-4.5a8.238,8.238,0,0,0-2.47-1.565,12.287,12.287,0,0,0-4-.23c-4,0-8.284-1.82-11.853,0a12.784,12.784,0,0,0-3.694,3.359l-4.914,5.824a3.1,3.1,0,0,0-.79,1.33,5.859,5.859,0,0,0,.355,2.125c.23,1.3-.33,2.69.1,3.939.715,2.075,3.234,2.365,4.774,3.554.575.445,1.47,1.945,2.155,1.925C366.257,239.737,367.107,237.533,367.142,236.573Z" transform="translate(-265.389 -151.957)" fill="#3f3d56"/>
    <path id="Path_136" data-name="Path 136" d="M441.758,309.6a10.248,10.248,0,0,1,8.119,1.5c3.779,2.59,5.334,7.319,6.649,11.708l2.944,9.843a60.4,60.4,0,0,1,2.89,13.163,60.138,60.138,0,0,1-.845,12.228c-.775,5.614,1.05,11.768,1.075,17.432,0,6.5-.04,13.393-3.349,19a3.169,3.169,0,0,0-2-2.135,9.322,9.322,0,0,0-2.974-.5l-8.8-.565a27.131,27.131,0,0,0,1.93-3.964c3.374-8.668,2.08-18.357.735-27.555a18.991,18.991,0,0,0-.5-2.6,24.786,24.786,0,0,1-.595-10.073,23.5,23.5,0,0,0,.155-4.589,5.128,5.128,0,0,0-.4-1.88,5.909,5.909,0,0,0-.97-1.34l-1.78-2A139.1,139.1,0,0,0,442,319.144,40.7,40.7,0,0,1,441.758,309.6Z" transform="translate(-307.376 -198.18)" fill="#8cc6ff"/>
    <path id="Path_137" data-name="Path 137" d="M378.531,330.183a42.463,42.463,0,0,1-15.917-26.96c-.29-1.895-1.045-4.369-2.959-4.3a3.774,3.774,0,0,0-1.63.57l-6.939,3.719a2.614,2.614,0,0,0-1.21,1c-.455.89.19,1.915.745,2.745,3.734,5.649,4,12.823,4.149,19.592.045,2,.06,4.1-.9,5.854-.785,1.415-2.15,2.455-2.87,3.909a10.293,10.293,0,0,0-.725,4.469c-.14,10.878-.28,21.771.29,32.639a9.738,9.738,0,0,0,1.09,4.749,9.906,9.906,0,0,0,3.459,2.9l10.523,6.359a18.669,18.669,0,0,0,6.394,2.839c2.315.39,4.959-.27,6.289-2.2.645-.94.93-2.085,1.55-3.039s1.8-1.73,2.859-1.3a3.247,3.247,0,0,1,1.5,1.81,13.7,13.7,0,0,0,2.465,3.889,4.8,4.8,0,0,0,4.184,1.5,7.032,7.032,0,0,0,3.249-2.21,51.339,51.339,0,0,0,7.934-9.333,2.249,2.249,0,0,0,.45-1.415,2.85,2.85,0,0,0-.775-1.3,12.839,12.839,0,0,1-2.25-5.834c-3.954-20.8,1.63-42.413-1.445-63.359a9.916,9.916,0,0,0-2.919-6.229,23.916,23.916,0,0,0-6.244-3.669,3,3,0,0,0-2.295-.37c-1.225.5-1.23,2.185-1.14,3.5a45.848,45.848,0,0,1-.4,8.064l-1.075,9.893a19.117,19.117,0,0,1-.84,4.449A17.917,17.917,0,0,1,378.531,330.183Z" transform="translate(-261.436 -192.057)" fill="#575a88"/>
    <path id="Path_138" data-name="Path 138" d="M249.819,146.525s-3.814,3.1-8.319-5.029-26.255-27.665-26.255-27.665-2.815-2.575,7.879-6.864S248.419,87,248.419,87s24.366,21.661,26.75,32.389-2.835,12.548-11.793,18.247S249.819,146.525,249.819,146.525Z" transform="translate(-194.018 -87)" fill="#3f3d56"/>
    <path id="Path_139" data-name="Path 139" d="M362.919,300.921,301.43,190.1l5.219-1.815L367.1,298.626a2.395,2.395,0,0,1-1,3.269h0a2.385,2.385,0,0,1-3.179-.975Z" transform="translate(-237.285 -137.654)" fill="#656380"/>
    <path id="Path_140" data-name="Path 140" d="M369.788,332.586c1.61-3.444-.04-7.419-1.14-11.058a37.362,37.362,0,0,1-1.555-8.9,6.5,6.5,0,0,1,.31-2.814,2.5,2.5,0,0,1,2.14-1.635,10.263,10.263,0,0,1,1.6,7.309,24.612,24.612,0,0,1,2.83-.555,5.294,5.294,0,0,1,5.754,3.654c1.585,5.079,2.125,10.5-.085,15.247a28.992,28.992,0,0,1-2.445,4.024l-4.819,7.039a2.109,2.109,0,0,1-1.315,1.085c-.58.085-1.185-.44-1.61-.925-1.465-1.655-4.064-4.064-3.779-6.344S368.828,334.61,369.788,332.586Z" transform="translate(-269.404 -197.609)" fill="#ffc0c6"/>
    <path id="Path_141" data-name="Path 141" d="M334.829,314.41c-4.894-.555-10.5.77-13.058,5a16.635,16.635,0,0,0-1.83,7.174c-.315,3.474-.5,6.959-.675,10.438l-.945,18.317c-.115,2.19-.225,4.384-.265,6.574a14.814,14.814,0,0,0,.545,5.079,15.824,15.824,0,0,0,3,4.734c1.195,1.46,2.69,2.965,4.444,2.54a4.83,4.83,0,0,0,1.9-1.175l4-3.459A43.748,43.748,0,0,0,339.489,362c1-1.41,1.82-2.935,2.829-4.334,2.969-4.119,7.539-7.244,9.1-12.073-1.5-.08-3.679-.575-4.369-1.9-.365-.7-.415-1.545-.82-2.22-.615-1.03-2-1.59-2.2-2.77a67.354,67.354,0,0,0-10.358,10.783l1.275-4.954a3.149,3.149,0,0,1,.565-1.285,5.665,5.665,0,0,1,1.5-.945c1.555-.94,2.145-2.885,2.46-4.674A32.71,32.71,0,0,0,334.829,314.41Z" transform="translate(-245.584 -200.665)" fill="#8cc6ff"/>
  </g>
</svg>
