<svg xmlns="http://www.w3.org/2000/svg" width="510.537" height="311.777" viewBox="0 0 510.537 311.777">
  <g id="undraw_phone_call_grmk" transform="translate(0 -0.006)">
    <path id="Path_28" data-name="Path 28" d="M444.58,373.922c-.212-.21-5.235-5.3-9.494-17.37-3.907-11.075-7.849-30.389-4.443-59.5,6.454-55.157-26.641-90.309-26.977-90.658l.98-.941c.085.088,8.594,9.033,16.165,24.737a121.565,121.565,0,0,1,11.181,67.02c-6.443,55.063,13.345,75.553,13.546,75.754Z" transform="translate(-251.52 -178.005)" fill="#f2f2f2"/>
    <circle id="Ellipse_7" data-name="Ellipse 7" cx="8.826" cy="8.826" r="8.826" transform="translate(133.159 9.809)" fill="#f2f2f2"/>
    <circle id="Ellipse_8" data-name="Ellipse 8" cx="8.826" cy="8.826" r="8.826" transform="translate(167.929 34.864)" fill="#f2f2f2"/>
    <circle id="Ellipse_9" data-name="Ellipse 9" cx="8.826" cy="8.826" r="8.826" transform="translate(154.615 60.478)" fill="#f2f2f2"/>
    <circle id="Ellipse_10" data-name="Ellipse 10" cx="8.826" cy="8.826" r="8.826" transform="translate(181.387 72.81)" fill="#f2f2f2"/>
    <circle id="Ellipse_11" data-name="Ellipse 11" cx="8.826" cy="8.826" r="8.826" transform="translate(159.131 107.596)" fill="#f2f2f2"/>
    <path id="Path_29" data-name="Path 29" d="M487.723,487.227s-13.727-19.011,8.13-41.12Z" transform="translate(-289.407 -292.259)" fill="#f2f2f2"/>
    <path id="Path_30" data-name="Path 30" d="M435.58,514.523S426.2,493.032,396.043,500.6Z" transform="translate(-247.901 -317.363)" fill="#f2f2f2"/>
    <path id="Path_31" data-name="Path 31" d="M798.187,448.736c-.037-.445-.825-11.116,6.035-29,6.294-16.409,20.54-42.239,52.67-72.106,60.867-56.582,57.264-128.741,57.22-129.464l2.029-.121c.011.183,1.028,18.63-5.582,43.867a181.919,181.919,0,0,1-52.284,87.208c-60.762,56.485-58.1,99.029-58.063,99.452Z" transform="translate(-438.801 -183.984)" fill="#f2f2f2"/>
    <circle id="Ellipse_12" data-name="Ellipse 12" cx="13.207" cy="13.207" r="13.207" transform="translate(459.984 0.005)" fill="#f2f2f2"/>
    <circle id="Ellipse_13" data-name="Ellipse 13" cx="13.207" cy="13.207" r="13.207" transform="translate(475.292 62.286)" fill="#f2f2f2"/>
    <circle id="Ellipse_14" data-name="Ellipse 14" cx="13.207" cy="13.207" r="13.207" transform="translate(435.272 78.553)" fill="#f2f2f2"/>
    <circle id="Ellipse_15" data-name="Ellipse 15" cx="13.207" cy="13.207" r="13.207" transform="translate(453.81 118.577)" fill="#f2f2f2"/>
    <circle id="Ellipse_16" data-name="Ellipse 16" cx="13.207" cy="13.207" r="13.207" transform="translate(394.704 136.618)" fill="#f2f2f2"/>
    <path id="Path_32" data-name="Path 32" d="M811.384,629.691s2.805-34.979,49.158-38.963Z" transform="translate(-445.088 -360.919)" fill="#f2f2f2"/>
    <path id="Path_33" data-name="Path 33" d="M755.755,601s10.161-33.588-31.536-54.223Z" transform="translate(-403.705 -340.054)" fill="#f2f2f2"/>
    <path id="Path_34" data-name="Path 34" d="M213.407,564.128c-4.4,16.275-19.483,26.354-19.483,26.354s-7.942-16.307-3.539-32.582,19.483-26.354,19.483-26.354S217.809,547.853,213.407,564.128Z" transform="translate(-149.632 -332.822)" fill="#8cc6ff"/>
    <path id="Path_35" data-name="Path 35" d="M157.961,564.128c4.4,16.275,19.483,26.354,19.483,26.354s7.942-16.307,3.539-32.582S161.5,531.546,161.5,531.546,153.559,547.853,157.961,564.128Z" transform="translate(-134.238 -332.822)" fill="#8cc6ff"/>
    <path id="Path_36" data-name="Path 36" d="M144.19,575.4c12.081,11.76,13.557,29.839,13.557,29.839s-18.112-.989-30.193-12.749S114,562.646,114,562.646,132.109,563.635,144.19,575.4Z" transform="translate(-113.997 -347.587)" fill="#3f3d56"/>
    <path id="Path_37" data-name="Path 37" d="M210.847,575.4c-12.081,11.76-13.557,29.839-13.557,29.839s18.112-.989,30.193-12.749,13.557-29.839,13.557-29.839S222.928,563.635,210.847,575.4Z" transform="translate(-153.541 -347.587)" fill="#3f3d56"/>
    <rect id="Rectangle_10" data-name="Rectangle 10" width="506.075" height="1.177" transform="translate(4.463 292.63)" fill="#2f2e41"/>
    <path id="Path_38" data-name="Path 38" d="M505.976,359.352s-5.252-5.252-17.333-4.2c0,0-116.6-12.081-119.23,9.454s-3.151,34.141,3.677,38.868c0,0,22.323,20.222,10.767,38.08l-6.3,10.5,247.388-2.1s2.626-38.343,10.5-45.7,10.5-46.221,0-47.272S503.087,350.161,505.976,359.352Z" transform="translate(-234.399 -247.473)" fill="#3f3d56"/>
    <path id="Path_39" data-name="Path 39" d="M335.951,447.684s-74.059,17.333-44.645,49.9l4.727,4.727-2.1,72.483H635.338l3.677-70.907,4.2-8.4s26.167-31.383-49.42-42.742l-13.609,34.338L350.133,485.5S348.557,446.634,335.951,447.684Z" transform="translate(-194.897 -292.998)" fill="#3f3d56"/>
    <rect id="Rectangle_11" data-name="Rectangle 11" width="21.535" height="16.282" transform="translate(105.337 277.067)" fill="#3f3d56"/>
    <rect id="Rectangle_12" data-name="Rectangle 12" width="21.535" height="16.282" transform="translate(415.229 277.067)" fill="#3f3d56"/>
    <path id="Path_40" data-name="Path 40" d="M501.953,508.608s-51.418-36.5-115.5.263l-18.909,27.313,3.677,22.585s132.886,2.1,134.462-12.081S501.953,508.608,501.953,508.608Z" transform="translate(-234.372 -314.267)" fill="#3f3d56"/>
    <path id="Path_41" data-name="Path 41" d="M746.5,512.1s-90.211-28.888-117.326,0l3.349,41.494s131.835,9.979,133.936,3.151,3.151-18.909,3.151-18.909Z" transform="translate(-358.581 -317.493)" fill="#3f3d56"/>
    <path id="Path_42" data-name="Path 42" d="M622.29,508.994s-90.211-28.888-117.326,0l.075.926c-.089-.429-.14-.663-.14-.663s-54.362-37.029-118.442-.263l-18.909,27.313,3.677,22.585s128.676,2.737,136.943-10.2l.145,1.8s131.835,9.98,133.936,3.151,3.151-18.909,3.151-18.909Z" transform="translate(-234.373 -314.39)" opacity="0.1"/>
    <path id="Path_43" data-name="Path 43" d="M386.548,375.733c25.528-.543,49.729-3.783,71.958-11.03.541,25.569,4.217,49.482,12.606,70.907-24.852-4.516-50.074-.047-75.635,12.606C400.068,425.1,396.1,400.8,386.548,375.733Z" transform="translate(-243.393 -253.612)" fill="#8cc6ff"/>
    <path id="Path_44" data-name="Path 44" d="M807.112,383.733c-25.528-.543-49.729-3.783-71.958-11.03-.541,25.569-4.217,49.482-12.606,70.908,24.852-4.516,50.074-.047,75.635,12.606C793.591,433.1,797.561,408.8,807.112,383.733Z" transform="translate(-402.912 -257.41)" fill="#8cc6ff"/>
    <path id="Path_45" data-name="Path 45" d="M569.155,371.784a17.771,17.771,0,0,1,4.866-2.44,124.063,124.063,0,0,1,34.282-7.463c10.194-.723,21.242.136,29.2,6.542a10.041,10.041,0,0,1,2.962,3.451c1,2.161.7,4.674.374,7.034a7.946,7.946,0,0,1-.682,2.648c-1.071,2.04-3.709,2.755-6,2.51s-4.441-1.214-6.7-1.663a29.946,29.946,0,0,0-4.232-.431l-14.173-.767c-8.814-.477-17.743-.946-26.389.832a26.286,26.286,0,0,0-7.624,2.627c-1.975,1.109-3.3,2.7-5.137.652C566.685,381.719,564.9,375.107,569.155,371.784Z" transform="translate(-328.898 -252.171)" fill="#2f2e41"/>
    <path id="Path_46" data-name="Path 46" d="M609.67,389.755s19.064-8.546,26.295,1.315-3.944,5.916-3.944,5.916l-12.49,3.944-13.8-2.63Z" transform="translate(-347.45 -263.874)" fill="#f2f2f2"/>
    <path id="Path_47" data-name="Path 47" d="M615.112,375.623s2.629,12.49.657,15.777,11.175,7.888,11.175,7.888l12.49-5.259s-3.287-20.379,0-24.323Z" transform="translate(-351.906 -255.988)" fill="#ffb9b9"/>
    <path id="Path_48" data-name="Path 48" d="M615.112,375.623s2.629,12.49.657,15.777,11.175,7.888,11.175,7.888l12.49-5.259s-3.287-20.379,0-24.323Z" transform="translate(-351.906 -255.988)" opacity="0.1"/>
    <path id="Path_49" data-name="Path 49" d="M585.308,654.817a71.9,71.9,0,0,1,4.344,11.384.926.926,0,0,0,1.151.765l11.693-.013c1.443,0,3.379-.465,3.364-1.908-.011-1.014-1.047-1.646-1.818-2.3-2.141-1.826-2.7-4.838-3.584-7.508a25.474,25.474,0,0,0-9.478-12.73,5.547,5.547,0,0,0-2.026-1,5.646,5.646,0,0,0-2.221.12c-2.053.414-9.718,1.831-8.27,4.817.623,1.286,2.934,2.624,3.9,3.825a27.472,27.472,0,0,1,2.944,4.554Z" transform="translate(-334.42 -384.997)" fill="#575a89"/>
    <path id="Path_50" data-name="Path 50" d="M661.321,635.058a26.557,26.557,0,0,1-1.375,2.527c-1.694,2.794-3.693,5.4-5.27,8.261a13.635,13.635,0,0,0-1.921,5.749,6.386,6.386,0,0,0,2.232,5.433c1.7,1.288,4.025,1.348,6.134,1.048s4.207-.9,6.332-.746c-.716-4.054,2.7-7.622,3.558-11.649.24-1.131.276-2.3.6-3.414a16.737,16.737,0,0,1,1.323-2.926,37.836,37.836,0,0,0,3.571-10.532c.081-.445-10.394-.517-11.376-.305C662.059,629.167,662.508,632.516,661.321,635.058Z" transform="translate(-369.772 -378.8)" fill="#575a89"/>
    <path id="Path_51" data-name="Path 51" d="M513.548,508.245c-2.99,4.679-2.3,10.881-.2,16.021s5.443,9.685,7.73,14.745c1.458,3.226,2.481,6.646,4.124,9.783,2.034,3.884,5,7.307,6.368,11.473.87,2.656,1.07,5.566,2.479,7.979a24.45,24.45,0,0,0,2.9,3.6,33.285,33.285,0,0,1,6.692,11.953c1.288-3.837,5.145-6.352,9.106-7.182s8.065-.266,12.073.3A50.759,50.759,0,0,1,559,566.049c-1.289-3.772-1.669-7.786-2.537-11.677-1.78-7.979-5.583-15.338-9.348-22.594l19.351-1.535a75.457,75.457,0,0,1,9.507-.353c4.995.235,9.888,1.46,14.856,2.026s10.224.418,14.651-1.906a70.209,70.209,0,0,0-12.6,41.464,16.054,16.054,0,0,1,24.3,5.735c7.584-10.363,6.682-24.79,12.691-36.139,1.236-2.334,2.75-4.507,4.084-6.786a100.022,100.022,0,0,0,6.452-14.259c1.681-4.3,3.374-9.083,1.762-13.408A14,14,0,0,0,639.3,502.2c-3.467-3.822-8.293-6.65-13.452-6.768-7.92-.181-14.463,5.69-21.41,9.5a49.269,49.269,0,0,1-27.038,5.607c-9.543-.676-18.658-3.8-27.75-6.551a132.05,132.05,0,0,0-13.849-3.572c-3.9-.731-7.612.079-11.455,1.076C520.16,502.574,515.956,504.477,513.548,508.245Z" transform="translate(-302.731 -315.675)" fill="#2f2e41"/>
    <path id="Path_52" data-name="Path 52" d="M637.032,339.365a19.737,19.737,0,0,1-19.721,19.721,19.251,19.251,0,0,1-3.5-.316,19.72,19.72,0,1,1,23.225-19.406Z" transform="translate(-343.587 -232.219)" fill="#ffb9b9"/>
    <path id="Path_53" data-name="Path 53" d="M593.924,392.564a23.175,23.175,0,0,1,4.93,2.958c1.315,1.315,5.259,8.546,11.833,3.944s7.231-7.231,9.2-7.231,4.6,3.944,4.6,3.944l18.078,54.233a75.714,75.714,0,0,1-16.763,14.133c-10.518,6.574-23.008,9.861-28.924,7.231s-17.092-4.6-19.064-9.861-5.259-21.036-5.259-21.036l9.2-40.1Z" transform="translate(-331.704 -266.683)" fill="#f2f2f2"/>
    <path id="Path_54" data-name="Path 54" d="M582.2,443.687c1.433-3.1,1.642-6.6,1.763-10.009a60.687,60.687,0,0,0-.268-10.125c-.583-4.4-2.015-8.634-2.919-12.976A54.857,54.857,0,0,1,579.623,399a9.438,9.438,0,0,1,1.109-5.132c.675-1.038,1.73-1.843,2.152-3.007.827-2.283-1.216-4.674-3.455-5.614a13.594,13.594,0,0,0-8.51-.342,40.483,40.483,0,0,0-8,3.275,18.323,18.323,0,0,0-5.23,3.381c-2.041,2.112-2.938,5.053-3.662,7.9a16.175,16.175,0,0,0-.654,6.961c.717,3.749,3.772,6.568,5.4,10.02,1.892,4.008,1.764,8.678,1.012,13.046s-2.088,8.638-2.5,13.051.22,9.156,2.985,12.62c1.127,1.412,4.183,4.757,6.245,4.378,1.62-.3,3.969-3.864,5.275-4.995C575.557,451.269,580.031,448.364,582.2,443.687Z" transform="translate(-322.514 -262.956)" fill="#2f2e41"/>
    <path id="Path_55" data-name="Path 55" d="M664.375,382.574c.058,3.666-1.558,7.151-3.459,10.287s-4.133,6.1-5.534,9.49a21.751,21.751,0,0,0-1.015,13.382,43.171,43.171,0,0,0,1.45,4.478l3.6,9.879a17.149,17.149,0,0,0,2.089,4.385,14.162,14.162,0,0,0,2.839,2.731,26.493,26.493,0,0,0,9.261,4.832,15.663,15.663,0,0,0,10.3-.588,149.022,149.022,0,0,1,6.4-39.5c.72-2.366,1.507-4.857.952-7.268-.622-2.7-2.791-4.727-4.852-6.578-6.3-5.661-13.236-11.607-21.675-12.371C659.844,375.3,664.333,379.923,664.375,382.574Z" transform="translate(-370.252 -258.837)" fill="#2f2e41"/>
    <path id="Path_56" data-name="Path 56" d="M585.178,524.7c.5.979.811,2.045,1.306,3.026a16.911,16.911,0,0,0,2.682,3.607c4.4,4.874,9.768,9.729,16.324,10.023a4.476,4.476,0,0,0,1.924-.242,3.815,3.815,0,0,0,2.048-2.928c.465-2.546-.659-5.086-1.784-7.417-2.439-5.051-5.183-10.23-9.748-13.487a18.291,18.291,0,0,0-15.78-2.374c-2.378.733-6.322,2.012-3.173,4.182C581.365,520.738,583.793,521.991,585.178,524.7Z" transform="translate(-334.195 -324.536)" fill="#ffb9b9"/>
    <path id="Path_57" data-name="Path 57" d="M587.284,683.6c-1.96,2.663-1.567,6.47-3.3,9.285-1.5,2.439-4.341,3.719-6.223,5.88a15.764,15.764,0,0,0-1.6,2.3c-1.746,2.925-3.165,6.673-1.446,9.613,1.383,2.365,4.291,3.29,6.958,3.92,3.371.8,6.873,1.434,10.282.825s6.742-2.7,7.957-5.939a22.958,22.958,0,0,1,.851-2.4c1.848-3.638,7.644-3.677,9.536-7.293,1.324-2.53.107-5.589-1.109-8.173l-3.714-7.891c-1.233-2.619-6.23-1.113-8.835-1.74C593.24,681.168,589.728,680.267,587.284,683.6Z" transform="translate(-332.356 -403.884)" fill="#2f2e41"/>
    <path id="Path_58" data-name="Path 58" d="M647.948,671.592a10.563,10.563,0,0,0-3.361,4.6c-1.838,4.241-2.469,8.89-3.082,13.472a16.314,16.314,0,0,0-.106,5.526c.792,3.741,4.183,6.5,7.832,7.641s7.564.968,11.383.781a8.15,8.15,0,0,0,3.578-.727c1.92-1.058,2.67-3.547,2.341-5.714a16.262,16.262,0,0,0-2.672-5.957,16.31,16.31,0,0,1-2.676-5.955c-.558-3.645,1.017-9-1.222-12.293S650.943,669.493,647.948,671.592Z" transform="translate(-364.291 -398.655)" fill="#2f2e41"/>
    <path id="Path_59" data-name="Path 59" d="M630.761,319.814a5.005,5.005,0,0,0-2.171-2.834,11.486,11.486,0,0,0-.458-3.74c-1.194-3.531-4.024-3.328-6.693-4.889-1.158-.677-1.087-1.276-1.69-2.388a8.864,8.864,0,0,0-3.416-3.485c-1.713-1.091-3.521-2.215-5.547-2.353-4.258-.29-7.522,3.715-11.592,5-1.794.566-3.721.59-5.524,1.125s-3.6,1.814-3.871,3.676c-.124.859.095,1.741-.031,2.6-.25,1.708-1.749,2.9-2.752,4.309-2.218,3.106-1.964,7.495-.191,10.874a15.293,15.293,0,0,0,1.279,2,12.313,12.313,0,0,0,1.35,4.572c1.774,3.38,4.826,5.905,8.015,8a18.911,18.911,0,0,1-.473-3.413,2.354,2.354,0,0,1,.145-1.131c.355-.742,1.293-.94,2.009-1.346,1.482-.842,2.063-2.705,2.106-4.409s-.318-3.41-.14-5.105a2.79,2.79,0,0,1,.955-2.052,3.3,3.3,0,0,1,1.8-.429c3.036-.124,6.208-.18,8.886-1.615a13.171,13.171,0,0,1,2.766-1.4c2.276-.593,4.6,1,5.913,2.954s1.966,4.275,3.176,6.292,3.3,3.815,5.64,3.576a.936.936,0,0,0,.7-.311,1.048,1.048,0,0,0,.129-.6l.131-8.944A13.518,13.518,0,0,0,630.761,319.814Z" transform="translate(-337.812 -222.946)" fill="#2f2e41"/>
    <path id="Path_60" data-name="Path 60" d="M541.621,419.2c-1.882,2.776-4.051,5.445-5.085,8.635-.608,1.875-.8,3.857-1.237,5.779-1.466,6.4-5.7,12.084-6.127,18.635a8.861,8.861,0,0,0,.622,4.279c1.215,2.643,4.122,4.035,6.9,4.911s5.752,1.507,7.966,3.394a24.409,24.409,0,0,1,3.018,3.5,29.238,29.238,0,0,0,13.966,9.555c-.434-2.991-.638-6.6,1.753-8.445a8.659,8.659,0,0,1,4.654-1.32l7.7-.666A98.977,98.977,0,0,0,558.865,454.3c-2.13-1.316-4.448-2.7-5.42-5.01a12.1,12.1,0,0,1-.614-4.622,113.876,113.876,0,0,0-1.451-17.1c-.634-3.927-1.474-7.819-2.434-11.679-.27-1.084-1.863-5.944-3.824-4.807-.462.268-.894,3.351-1.164,3.991A24.209,24.209,0,0,1,541.621,419.2Z" transform="translate(-311.083 -275.552)" fill="#2f2e41"/>
    <path id="Path_61" data-name="Path 61" d="M569.531,442.736a30.167,30.167,0,0,1-2.883,13.445,11.109,11.109,0,0,0-1.129,2.962c-.345,2.21.913,4.35,2.35,6.063a24.933,24.933,0,0,0,10.66,7.416" transform="translate(-328.334 -290.659)" opacity="0.1"/>
    <path id="Path_62" data-name="Path 62" d="M665.878,367.728l.464.073a1.55,1.55,0,0,1-1.288-1.773l4.8-30.3a1.55,1.55,0,0,1,1.773-1.288l-.464-.073a2.489,2.489,0,0,1,2.069,2.848l-4.5,28.449a2.489,2.489,0,0,1-2.847,2.069Z" transform="translate(-375.607 -239.208)" fill="#2f2e41"/>
    <path id="Path_63" data-name="Path 63" d="M.916,0h.712V33.781H.916A.916.916,0,0,1,0,32.865V.916A.916.916,0,0,1,.916,0Z" transform="translate(294.484 94.987) rotate(8.995)" fill="#ffcc75"/>
    <rect id="Rectangle_13" data-name="Rectangle 13" width="0.313" height="2.755" rx="0.157" transform="translate(295.258 99.513) rotate(8.995)" fill="#464353"/>
    <path id="Path_64" data-name="Path 64" d="M684.594,369.164a14.693,14.693,0,0,0,1.413-5.68,11.447,11.447,0,0,0-1.576-5.042,25.769,25.769,0,0,0-4.112-5.645c-1.929-2.007-4.716-3.8-7.347-2.888-2.089.723-3.28,2.9-4.053,4.97a6.247,6.247,0,0,0-.527,3.233c.256,1.426,1.358,2.521,2.156,3.73a19.265,19.265,0,0,1,2.3,6.374l1.289,5.55,2.214,9.533c-.058-.251,4.112-4.2,4.607-5.042C682.554,375.547,683.434,372.088,684.594,369.164Z" transform="translate(-377.185 -246.472)" fill="#ffb9b9"/>
    <path id="Path_65" data-name="Path 65" d="M695.117,397.928l3.145,6.542a15.717,15.717,0,0,1,1.983,8.846l.187,19.623a28.573,28.573,0,0,1-.645,7.814,6.256,6.256,0,0,1-1.085,2.333,7.294,7.294,0,0,1-1.86,1.5c-5.953,3.72-13.672,5.834-19.962,2.717a27.616,27.616,0,0,1-4.093-2.672,32.527,32.527,0,0,1-6.926-6.241c-1.963-2.609,7.062-12.534,5.742-15.519-2.365-5.349-1.056-18.033-4.727-22.585-.534-.662,4.322-.066,4.3-.917-.039-1.72,4.086-4.207,5.677-4.861,2.718-1.118,5.848-3.4,6.3-6.3,5.78,7.58-10.451,30.484-1.329,33.254a.941.941,0,0,0,1.448-.8c.518-2.166.7-4.4,1.08-6.592a37.545,37.545,0,0,1,3.961-11.424C689.4,400.635,692.9,393.311,695.117,397.928Z" transform="translate(-375.867 -264.769)" fill="#2f2e41"/>
    <path id="Path_66" data-name="Path 66" d="M700.517,435.284a6.428,6.428,0,0,0,.315,3.905,39.348,39.348,0,0,1,1.434,11.418.416.416,0,0,1-.486.5c-1.517.093-3.254.1-4.284-1.016" transform="translate(-391.019 -287.121)" opacity="0.1"/>
    <path id="Path_67" data-name="Path 67" d="M192.4,674.6h-43.6l-7.583-25.852A10.567,10.567,0,0,1,151.363,635.2H189.5a10.567,10.567,0,0,1,10.175,13.416Z" transform="translate(-126.72 -382.034)" fill="#3f3d56"/>
    <path id="Path_68" data-name="Path 68" d="M274.876,328.06a6.828,6.828,0,1,1,6.828-6.828A6.828,6.828,0,0,1,274.876,328.06Zm0-12.606a5.778,5.778,0,1,0,5.778,5.778A5.778,5.778,0,0,0,274.876,315.454Z" transform="translate(-187.134 -229.732)" fill="#3f3d56"/>
    <path id="Path_69" data-name="Path 69" d="M748.876,269.06a6.828,6.828,0,1,1,6.828-6.828A6.828,6.828,0,0,1,748.876,269.06Zm0-12.606a5.778,5.778,0,1,0,5.778,5.778A5.778,5.778,0,0,0,748.876,256.454Z" transform="translate(-412.17 -201.721)" fill="#3f3d56"/>
    <path id="Path_70" data-name="Path 70" d="M529.7,174.859H516.048V161.2H529.7Zm-12.606-1.05h11.555V162.253H517.1Z" transform="translate(-304.874 -156.998)" fill="#3f3d56"/>
  </g>
</svg>
