<svg xmlns="http://www.w3.org/2000/svg" xmlns:xlink="http://www.w3.org/1999/xlink" width="622.191" height="314.062" viewBox="0 0 622.191 314.062">
  <defs>
    <linearGradient id="linear-gradient" x1="0.5" y1="1" x2="0.5" gradientUnits="objectBoundingBox">
      <stop offset="0" stop-color="gray" stop-opacity="0.251"/>
      <stop offset="0.54" stop-color="gray" stop-opacity="0.122"/>
      <stop offset="1" stop-color="gray" stop-opacity="0.102"/>
    </linearGradient>
    <linearGradient id="linear-gradient-2" x1="0.5" y1="1" x2="0.5" y2="0" xlink:href="#linear-gradient"/>
    <linearGradient id="linear-gradient-3" x1="0.5" y1="1" x2="0.5" y2="0" xlink:href="#linear-gradient"/>
    <linearGradient id="linear-gradient-5" x1="0.5" y1="1" x2="0.5" y2="0" xlink:href="#linear-gradient"/>
    <linearGradient id="linear-gradient-6" x1="0.501" y1="1" x2="0.501" y2="0" xlink:href="#linear-gradient"/>
    <linearGradient id="linear-gradient-7" x1="0.5" y1="1" x2="0.5" y2="0" xlink:href="#linear-gradient"/>
    <linearGradient id="linear-gradient-12" x1="0.5" y1="1" x2="0.5" y2="0" xlink:href="#linear-gradient"/>
    <linearGradient id="linear-gradient-13" x1="0.5" y1="1" x2="0.5" y2="0" xlink:href="#linear-gradient"/>
    <linearGradient id="linear-gradient-17" x1="0.5" y1="1" x2="0.5" y2="0" xlink:href="#linear-gradient"/>
    <linearGradient id="linear-gradient-18" x1="0.501" y1="1" x2="0.501" y2="0" xlink:href="#linear-gradient"/>
    <linearGradient id="linear-gradient-19" x1="0.5" y1="1" x2="0.5" gradientUnits="objectBoundingBox">
      <stop offset="0" stop-color="#b3b3b3" stop-opacity="0.251"/>
      <stop offset="0.54" stop-color="#b3b3b3" stop-opacity="0.102"/>
      <stop offset="1" stop-color="#b3b3b3" stop-opacity="0.051"/>
    </linearGradient>
    <linearGradient id="linear-gradient-20" x1="0.5" y1="1.001" x2="0.5" gradientUnits="objectBoundingBox">
      <stop offset="0" stop-opacity="0.122"/>
      <stop offset="0.55" stop-opacity="0.09"/>
      <stop offset="1" stop-opacity="0.02"/>
    </linearGradient>
    <linearGradient id="linear-gradient-21" x1="0.5" y1="0.999" x2="0.5" y2="0" xlink:href="#linear-gradient-20"/>
  </defs>
  <g id="undraw_house_searching_n8mp" transform="translate(0.01 0.013)">
    <circle id="Ellipse_17" data-name="Ellipse 17" cx="117.435" cy="117.435" r="117.435" transform="translate(21.741 33.897)" opacity="0.3" stroke="#ff9800" stroke-miterlimit="10" stroke-width="4" stroke-dasharray="12" fill="none"/>
    <circle id="Ellipse_18" data-name="Ellipse 18" cx="117.435" cy="117.435" r="117.435" transform="translate(331.459 10.668)" opacity="0.3" stroke="#ff9800" stroke-miterlimit="10" stroke-width="4" stroke-dasharray="12" fill="none"/>
    <g id="_Group_" data-name="&lt;Group&gt;" transform="translate(481.04 101.098)">
      <path id="Path_74" data-name="Path 74" d="M905.073,478.533a29.036,29.036,0,0,1-7.885-19.867,29.494,29.494,0,0,1,14.466-25.21,17.119,17.119,0,0,1-3.02-9.679c0-9.737,8.169-17.628,18.248-17.628a18.164,18.164,0,0,1,17.506,12.692,27.378,27.378,0,0,1,23.28-12.692c15.015,0,27.191,11.763,27.191,26.268a25.422,25.422,0,0,1-1.665,9.066c.548-.039,1.1-.084,1.665-.084,12.053,0,21.822,9.44,21.822,21.087a20.606,20.606,0,0,1-.11,2.129,26.187,26.187,0,0,1,16.389,24.055c0,14.46-12.131,26.184-27.1,26.184a28.163,28.163,0,0,1-4.691-.4c.077.871.129,1.755.129,2.645,0,16.228-13.615,29.384-30.41,29.384a30.972,30.972,0,0,1-17.318-5.233,23.087,23.087,0,0,1-14.705,5.233c-12.55,0-22.719-9.827-22.719-21.938,0-.523.045-1.039.084-1.555h-.084c-13.434,0-24.326-10.524-24.326-23.506A23.423,23.423,0,0,1,905.073,478.533Z" transform="translate(-891.82 -406.149)" fill="url(#linear-gradient)"/>
    </g>
    <path id="_Path_" data-name="&lt;Path&gt;" d="M909.2,480.075a27.81,27.81,0,0,1-7.543-19.015A28.23,28.23,0,0,1,915.5,436.928a16.383,16.383,0,0,1-2.891-9.285c0-9.317,7.82-16.873,17.467-16.873a17.421,17.421,0,0,1,16.776,12.144,26.21,26.21,0,0,1,22.242-12.137c14.376,0,26.023,11.26,26.023,25.165a24.338,24.338,0,0,1-1.594,8.679c.529-.039,1.058-.077,1.594-.077,11.537,0,20.887,9.033,20.887,20.183a19.734,19.734,0,0,1-.11,2.039,25.1,25.1,0,0,1,15.686,23.022c0,13.841-11.614,25.061-25.939,25.061a26.963,26.963,0,0,1-4.519-.381c.08.833.125,1.678.125,2.53,0,15.531-13.034,28.12-29.107,28.12a29.681,29.681,0,0,1-16.576-5.007,22.1,22.1,0,0,1-14.021,5.02c-12.008,0-21.745-9.408-21.745-21.009,0-.5.039-.994.077-1.49H919.8c-12.86,0-23.287-10.072-23.287-22.5A22.422,22.422,0,0,1,909.2,480.075Z" transform="translate(-412.444 -306.689)" fill="#009688"/>
    <line id="_Path_2" data-name="&lt;Path&gt;" y2="156.304" transform="translate(546.088 143.969)" fill="#795548"/>
    <rect id="Rectangle_14" data-name="Rectangle 14" width="8.511" height="156.298" transform="translate(541.687 143.969)" fill="url(#linear-gradient-2)"/>
    <rect id="Rectangle_15" data-name="Rectangle 15" width="4.71" height="156.298" transform="translate(543.732 143.969)" fill="#795548"/>
    <line id="_Path_3" data-name="&lt;Path&gt;" x1="27.913" y1="28.468" transform="translate(518.652 162.314)" fill="#795548"/>
    <rect id="Rectangle_16" data-name="Rectangle 16" width="4.71" height="39.87" transform="matrix(0.714, -0.7, 0.7, 0.714, 516.978, 163.963)" fill="#795548"/>
    <line id="_Path_4" data-name="&lt;Path&gt;" y1="20.299" x2="28.933" transform="translate(546.565 194.95)" fill="#795548"/>
    <rect id="Rectangle_17" data-name="Rectangle 17" width="35.347" height="4.71" transform="translate(545.21 213.31) rotate(-35.06)" fill="#795548"/>
    <g id="_Group_2" data-name="&lt;Group&gt;" transform="translate(427.007 102.222)">
      <path id="Path_75" data-name="Path 75" d="M931.561,481.893a30.8,30.8,0,0,0-6.356-46.071,18.217,18.217,0,0,0,2.917-9.917,17.57,17.57,0,0,0-34.521-5.046,26.126,26.126,0,0,0-22.474-12.969c-14.5,0-26.255,12.021-26.255,26.849A27.334,27.334,0,0,0,846.478,444c-.529-.039-1.065-.084-1.607-.084A21.351,21.351,0,0,0,823.8,465.472c0,.736.039,1.458.11,2.174A26.784,26.784,0,0,0,808.08,492.23c0,14.783,11.718,26.765,26.165,26.765a25.724,25.724,0,0,0,4.517-.406c-.077.89-.123,1.794-.123,2.7,0,16.583,13.144,30.03,29.365,30.03a28.771,28.771,0,0,0,16.718-5.349,21.551,21.551,0,0,0,14.2,5.349,22.191,22.191,0,0,0,21.938-22.435c0-.536-.045-1.065-.078-1.594h.078c12.976,0,23.487-10.756,23.487-24.022A24.08,24.08,0,0,0,931.561,481.893Z" transform="translate(-808.079 -407.89)" fill="url(#linear-gradient-3)"/>
    </g>
    <path id="_Path_5" data-name="&lt;Path&gt;" d="M930.487,484.171a28.913,28.913,0,0,0-5.969-43.232,17.1,17.1,0,0,0,2.736-9.311,16.479,16.479,0,0,0-32.378-4.743,24.519,24.519,0,0,0-21.1-12.176c-13.608,0-24.642,11.285-24.642,25.2a25.662,25.662,0,0,0,1.51,8.7c-.5-.039-1-.077-1.51-.077a19.991,19.991,0,0,0-19.777,20.228,19.345,19.345,0,0,0,.1,2.039,25.165,25.165,0,0,0-14.841,23.081c0,13.873,10.969,25.119,24.565,25.119a24.151,24.151,0,0,0,4.252-.381c-.071.839-.116,1.684-.116,2.536,0,15.57,12.337,28.184,27.558,28.184a27,27,0,0,0,15.692-5.02,20.228,20.228,0,0,0,13.324,5.02,20.829,20.829,0,0,0,20.59-21.061c0-.5-.039-1-.071-1.5h.071a22.306,22.306,0,0,0,22.048-22.551A22.584,22.584,0,0,0,930.487,484.171Z" transform="translate(-383.393 -308.088)" fill="#00897b"/>
    <rect id="Rectangle_18" data-name="Rectangle 18" width="6.401" height="159.234" transform="translate(497.217 143.911)" fill="url(#linear-gradient-3)"/>
    <rect id="Rectangle_19" data-name="Rectangle 19" width="3.22" height="156.995" transform="translate(499.036 146.15)" fill="#795548"/>
    <rect id="Rectangle_20" data-name="Rectangle 20" width="38.895" height="3.22" transform="translate(498.732 192.384) rotate(-47.2)" fill="#795548"/>
    <rect id="Rectangle_21" data-name="Rectangle 21" width="3.22" height="34.127" transform="matrix(0.596, -0.803, 0.803, 0.596, 471.572, 198.995)" fill="#795548"/>
    <g id="_Group_3" data-name="&lt;Group&gt;" transform="translate(418.122 173.431)">
      <path id="Path_76" data-name="Path 76" d="M803.344,567.6a19.8,19.8,0,0,1-5.369-13.55,20.1,20.1,0,0,1,9.859-17.176,11.665,11.665,0,0,1-2.058-6.614A12.232,12.232,0,0,1,818.21,518.25a12.382,12.382,0,0,1,11.931,8.646,18.661,18.661,0,0,1,15.867-8.646c10.234,0,18.531,8.014,18.531,17.9a17.324,17.324,0,0,1-1.136,6.181c.374,0,.749-.058,1.136-.058a14.612,14.612,0,0,1,14.841,14.37,14.068,14.068,0,0,1-.077,1.452,17.841,17.841,0,0,1,11.169,16.4c0,9.853-8.266,17.841-18.467,17.841a19.2,19.2,0,0,1-3.226-.271c.058.594.09,1.194.09,1.8,0,11.06-9.279,20-20.725,20a21.125,21.125,0,0,1-11.75-3.5,15.731,15.731,0,0,1-10.021,3.536,15.231,15.231,0,0,1-15.486-14.957,6.386,6.386,0,0,1,.058-1.058h-.058c-9.156,0-16.576-7.169-16.576-16.015a15.963,15.963,0,0,1,9.033-14.26Z" transform="translate(-794.31 -518.249)" fill="url(#linear-gradient-5)"/>
    </g>
    <path id="_Path_6" data-name="&lt;Path&gt;" d="M806.132,568.675a18.95,18.95,0,0,1-5.162-12.957,19.235,19.235,0,0,1,9.44-16.441,11.162,11.162,0,0,1-1.968-6.33,11.706,11.706,0,0,1,11.9-11.5,11.847,11.847,0,0,1,11.421,8.279,17.861,17.861,0,0,1,15.183-8.279c9.795,0,17.738,7.672,17.738,17.138A16.582,16.582,0,0,1,863.6,544.5c.361,0,.716-.052,1.084-.052a14,14,0,0,1,14.234,13.75,13.4,13.4,0,0,1-.071,1.387,17.08,17.08,0,0,1,10.692,15.692c0,9.433-7.917,17.08-17.68,17.08a18.368,18.368,0,0,1-3.058-.258c.052.568.084,1.142.084,1.723,0,10.582-8.879,19.164-19.835,19.164a20.222,20.222,0,0,1-11.292-3.413,15.06,15.06,0,0,1-9.588,3.413,14.594,14.594,0,0,1-14.841-14.318,6.619,6.619,0,0,1,.052-1.013h-.052a15.607,15.607,0,0,1-15.867-15.331A15.279,15.279,0,0,1,806.132,568.675Z" transform="translate(-377.305 -345.954)" fill="#009688"/>
    <line id="_Path_7" data-name="&lt;Path&gt;" y2="106.511" transform="translate(462.451 202.674)" fill="#795548"/>
    <rect id="Rectangle_22" data-name="Rectangle 22" width="5.801" height="106.511" transform="translate(459.45 202.674)" fill="url(#linear-gradient-6)"/>
    <rect id="Rectangle_23" data-name="Rectangle 23" width="3.207" height="106.511" transform="translate(460.844 202.674)" fill="#795548"/>
    <line id="_Path_8" data-name="&lt;Path&gt;" x1="19.015" y1="19.403" transform="translate(443.758 215.172)" fill="#795548"/>
    <rect id="Rectangle_24" data-name="Rectangle 24" width="3.207" height="27.165" transform="matrix(0.714, -0.7, 0.7, 0.714, 442.61, 216.293)" fill="#795548"/>
    <line id="_Path_9" data-name="&lt;Path&gt;" y1="13.834" x2="19.719" transform="translate(462.773 237.414)" fill="#795548"/>
    <rect id="Rectangle_25" data-name="Rectangle 25" width="24.087" height="3.207" transform="translate(461.854 249.921) rotate(-35.06)" fill="#795548"/>
    <g id="_Group_4" data-name="&lt;Group&gt;" transform="translate(398.836 176.277)">
      <path id="Path_77" data-name="Path 77" d="M847.308,572.331a20.648,20.648,0,0,0-4.265-30.92,12.259,12.259,0,0,0,1.936-6.659,11.8,11.8,0,0,0-23.171-3.388,17.538,17.538,0,0,0-15.073-8.7,17.824,17.824,0,0,0-17.622,18.022,18.352,18.352,0,0,0,1.078,6.22c-.355,0-.716-.058-1.078-.058A14.305,14.305,0,0,0,774.97,561.31a9.955,9.955,0,0,0,.071,1.458,17.976,17.976,0,0,0-10.621,16.505,17.771,17.771,0,0,0,17.564,17.964,17.271,17.271,0,0,0,3.039-.271c-.052.6-.084,1.2-.084,1.813a19.94,19.94,0,0,0,19.706,20.157,19.311,19.311,0,0,0,11.221-3.588,14.466,14.466,0,0,0,9.53,3.587,14.892,14.892,0,0,0,14.724-15.06,7.38,7.38,0,0,0-.052-1.071h.052a15.951,15.951,0,0,0,15.77-16.131A16.163,16.163,0,0,0,847.308,572.331Z" transform="translate(-764.419 -522.66)" fill="url(#linear-gradient-7)"/>
    </g>
    <path id="_Path_10" data-name="&lt;Path&gt;" d="M846.577,573.862a19.409,19.409,0,0,0-4.007-29.036,11.479,11.479,0,0,0,1.839-6.246,11.072,11.072,0,0,0-21.751-3.181,16.46,16.46,0,0,0-14.163-8.169,16.73,16.73,0,0,0-16.538,16.918,17.224,17.224,0,0,0,1.013,5.839c-.335,0-.645-.052-1.013-.052a13.427,13.427,0,0,0-13.273,13.55,9.587,9.587,0,0,0,.065,1.368,16.873,16.873,0,0,0-9.969,15.486,16.677,16.677,0,0,0,16.486,16.86,16.209,16.209,0,0,0,2.852-.258q-.077.842-.077,1.7a18.715,18.715,0,0,0,18.5,18.919,18.126,18.126,0,0,0,10.537-3.368,13.549,13.549,0,0,0,8.943,3.368,13.982,13.982,0,0,0,13.821-14.131,6.618,6.618,0,0,0-.052-1h.052a14.97,14.97,0,0,0,14.8-15.138,15.17,15.17,0,0,0-8.065-13.434Z" transform="translate(-367.131 -348.005)" fill="#00897b"/>
    <rect id="Rectangle_26" data-name="Rectangle 26" width="4.297" height="106.879" transform="translate(445.971 204.261)" fill="url(#linear-gradient-3)"/>
    <rect id="Rectangle_27" data-name="Rectangle 27" width="2.162" height="105.375" transform="translate(447.191 205.764)" fill="#795548"/>
    <rect id="Rectangle_28" data-name="Rectangle 28" width="26.107" height="2.162" transform="translate(446.982 236.788) rotate(-47.2)" fill="#795548"/>
    <rect id="Rectangle_29" data-name="Rectangle 29" width="2.162" height="22.906" transform="matrix(0.596, -0.803, 0.803, 0.596, 428.751, 241.233)" fill="#795548"/>
    <rect id="Rectangle_30" data-name="Rectangle 30" width="181.959" height="161.957" transform="translate(261.489 151.841)" fill="url(#linear-gradient-3)"/>
    <rect id="Rectangle_31" data-name="Rectangle 31" width="296.813" height="156.795" transform="translate(142.118 151.841)" fill="#fff"/>
    <path id="Path_78" data-name="Path 78" d="M688.221,466.929H396.57V390.79h281a10.647,10.647,0,0,1,10.647,10.647Z" transform="translate(-235.088 -299.602)" fill="url(#linear-gradient-3)"/>
    <path id="Path_79" data-name="Path 79" d="M250.26,146h278.5a10.647,10.647,0,0,1,10.647,10.647v60.518H250.26Z" transform="translate(-88.784 -51.799)" fill="#ffcc75"/>
    <path id="Path_80" data-name="Path 80" d="M250.26,146h278.5a10.647,10.647,0,0,1,10.647,10.647v60.518H250.26Z" transform="translate(-88.784 -51.799)" fill="#fff" opacity="0.7"/>
    <path id="Path_81" data-name="Path 81" d="M193.918,13.32,93.26,84.207V318.521H294.577V84.207Z" transform="translate(-33.088 -4.73)" fill="url(#linear-gradient-3)"/>
    <path id="Path_82" data-name="Path 82" d="M293.253,83.013l-95.5-69.693-95.5,69.693v58.711H293.253Z" transform="translate(-36.281 -4.73)" fill="#ffcc75"/>
    <path id="Path_83" data-name="Path 83" d="M293.253,83.013l-95.5-69.693-95.5,69.693v58.711H293.253Z" transform="translate(-36.281 -4.73)" fill="#fff" opacity="0.5"/>
    <rect id="Rectangle_32" data-name="Rectangle 32" width="190.993" height="171.635" transform="translate(65.979 137.001)" fill="#fff"/>
    <path id="Path_84" data-name="Path 84" d="M294.16,113.965,186.4,37.02,77.358,113.965,70.26,86.9,186.4,2.37,302.549,86.9Z" transform="translate(-24.929 -0.845)" fill="url(#linear-gradient-12)"/>
    <path id="Path_85" data-name="Path 85" d="M295.823,111.259,189.054,33.552,82.292,111.259,77.73,86.927,189.054,5.91,300.385,86.927Z" transform="translate(-27.579 -2.101)" fill="#ffcc75"/>
    <path id="Path_86" data-name="Path 86" d="M295.823,111.259,189.054,33.552,82.292,111.259,77.73,86.927,189.054,5.91,300.385,86.927Z" transform="translate(-27.579 -2.101)" opacity="0.2"/>
    <rect id="Rectangle_33" data-name="Rectangle 33" width="108.401" height="134.211" transform="translate(107.275 174.425)" fill="#f2f2f2"/>
    <rect id="Rectangle_34" data-name="Rectangle 34" width="108.401" height="23.229" transform="translate(107.275 174.425)" fill="#8cc6ff"/>
    <rect id="Rectangle_35" data-name="Rectangle 35" width="108.401" height="23.229" transform="translate(107.275 285.407)" fill="#8cc6ff"/>
    <path id="Path_87" data-name="Path 87" d="M677.368,651.936a.968.968,0,1,0-.968-.968A.968.968,0,0,0,677.368,651.936Z" transform="translate(-334.359 -391.558)" fill="lime"/>
    <rect id="Rectangle_36" data-name="Rectangle 36" width="52.91" height="98.077" transform="translate(316.335 210.559)" fill="#f2f2f2"/>
    <rect id="Rectangle_37" data-name="Rectangle 37" width="49.684" height="36.134" transform="translate(382.795 189.911)" fill="#f2f2f2"/>
    <rect id="Rectangle_38" data-name="Rectangle 38" width="49.684" height="16.131" transform="translate(382.795 189.911)" fill="#ffcc75" opacity="0.2"/>
    <g id="_Group_5" data-name="&lt;Group&gt;" transform="translate(31.607 200.891)">
      <path id="Path_88" data-name="Path 88" d="M202.846,601.937a16.506,16.506,0,0,1-4.517-11.285,16.776,16.776,0,0,1,8.22-14.318,9.724,9.724,0,0,1-1.716-5.51A10.2,10.2,0,0,1,215.2,560.809a10.324,10.324,0,0,1,9.963,7.22,15.557,15.557,0,0,1,13.228-7.207,15.2,15.2,0,0,1,15.447,14.924,14.447,14.447,0,0,1-.949,5.162c.316,0,.645-.045.949-.045a12.191,12.191,0,0,1,12.4,11.976,11.7,11.7,0,0,1-.065,1.207,14.873,14.873,0,0,1,9.311,13.666,15.14,15.14,0,0,1-15.4,14.873,16,16,0,0,1-2.665-.226c.045.5.071.994.071,1.5,0,9.221-7.743,16.693-17.273,16.693a17.609,17.609,0,0,1-9.84-2.974,13.118,13.118,0,0,1-8.356,2.974,12.711,12.711,0,0,1-12.9-12.473,5.755,5.755,0,0,1,.045-.884h-.045a13.6,13.6,0,0,1-13.821-13.35,13.3,13.3,0,0,1,7.556-11.911Z" transform="translate(-195.29 -560.808)" fill="url(#linear-gradient-13)"/>
    </g>
    <path id="_Path_11" data-name="&lt;Path&gt;" d="M205.171,602.822a15.8,15.8,0,0,1-4.284-10.8,16.034,16.034,0,0,1,7.866-13.705,9.3,9.3,0,0,1-1.639-5.278,9.756,9.756,0,0,1,9.924-9.588,9.879,9.879,0,0,1,9.517,6.9,14.886,14.886,0,0,1,12.66-6.9A14.541,14.541,0,0,1,254,577.735a13.828,13.828,0,0,1-.9,4.93c.3,0,.6-.045.9-.045a11.688,11.688,0,0,1,11.866,11.466,11.211,11.211,0,0,1-.058,1.155,14.241,14.241,0,0,1,8.9,13.086,14.493,14.493,0,0,1-14.737,14.241,15.306,15.306,0,0,1-2.579-.219c.044.471.069.955.069,1.439,0,8.82-7.4,15.976-16.538,15.976a16.854,16.854,0,0,1-9.383-2.853,12.55,12.55,0,0,1-7.994,2.846,12.148,12.148,0,0,1-12.35-11.937,5.264,5.264,0,0,1,.045-.845H211.2a13.012,13.012,0,0,1-13.228-12.782A12.737,12.737,0,0,1,205.171,602.822Z" transform="translate(-164.634 -360.853)" fill="#009688"/>
    <line id="_Path_12" data-name="&lt;Path&gt;" y2="88.792" transform="translate(68.567 225.257)" fill="#795548"/>
    <rect id="Rectangle_39" data-name="Rectangle 39" width="4.839" height="88.792" transform="translate(66.063 225.257)" fill="url(#linear-gradient-3)"/>
    <rect id="Rectangle_40" data-name="Rectangle 40" width="2.671" height="88.792" transform="translate(67.225 225.257)" fill="#795548"/>
    <line id="_Path_13" data-name="&lt;Path&gt;" x1="15.86" y1="16.176" transform="translate(52.978 235.672)" fill="#795548"/>
    <rect id="Rectangle_41" data-name="Rectangle 41" width="2.671" height="22.648" transform="matrix(0.714, -0.7, 0.7, 0.714, 52.024, 236.609)" fill="#795548"/>
    <line id="_Path_14" data-name="&lt;Path&gt;" y1="11.531" x2="16.434" transform="translate(68.838 254.216)" fill="#795548"/>
    <rect id="Rectangle_42" data-name="Rectangle 42" width="20.08" height="2.671" transform="translate(68.067 264.644) rotate(-35.06)" fill="#795548"/>
    <g id="_Group_6" data-name="&lt;Group&gt;" transform="translate(-0.01 200.891)">
      <path id="Path_89" data-name="Path 89" d="M153.846,601.937a16.506,16.506,0,0,1-4.517-11.285,16.776,16.776,0,0,1,8.22-14.318,9.724,9.724,0,0,1-1.716-5.51A10.2,10.2,0,0,1,166.2,560.809a10.324,10.324,0,0,1,9.963,7.22,15.557,15.557,0,0,1,13.228-7.207,15.2,15.2,0,0,1,15.447,14.924,14.448,14.448,0,0,1-.949,5.162c.316,0,.645-.045.949-.045a12.191,12.191,0,0,1,12.4,11.976,11.706,11.706,0,0,1-.065,1.207,14.873,14.873,0,0,1,9.311,13.666,15.14,15.14,0,0,1-15.4,14.873,16,16,0,0,1-2.665-.226c.045.5.071.994.071,1.5,0,9.221-7.743,16.693-17.273,16.693a17.609,17.609,0,0,1-9.84-2.974,13.118,13.118,0,0,1-8.356,2.974,12.711,12.711,0,0,1-12.9-12.473,5.755,5.755,0,0,1,.045-.884h-.045a13.6,13.6,0,0,1-13.821-13.35A13.3,13.3,0,0,1,153.846,601.937Z" transform="translate(-146.29 -560.808)" fill="url(#linear-gradient-13)"/>
    </g>
    <path id="_Path_15" data-name="&lt;Path&gt;" d="M156.171,602.822a15.8,15.8,0,0,1-4.284-10.8,16.034,16.034,0,0,1,7.866-13.705,9.3,9.3,0,0,1-1.639-5.278,9.756,9.756,0,0,1,9.924-9.588,9.879,9.879,0,0,1,9.517,6.9,14.886,14.886,0,0,1,12.66-6.9A14.541,14.541,0,0,1,205,577.735a13.828,13.828,0,0,1-.9,4.93c.3,0,.6-.045.9-.045a11.688,11.688,0,0,1,11.866,11.466,11.208,11.208,0,0,1-.058,1.155,14.241,14.241,0,0,1,8.9,13.086,14.493,14.493,0,0,1-14.737,14.241,15.306,15.306,0,0,1-2.579-.219c.044.471.069.955.069,1.439,0,8.82-7.4,15.976-16.538,15.976a16.855,16.855,0,0,1-9.383-2.853,12.55,12.55,0,0,1-7.994,2.846,12.148,12.148,0,0,1-12.35-11.937,5.263,5.263,0,0,1,.045-.845H162.2a13.012,13.012,0,0,1-13.228-12.782A12.737,12.737,0,0,1,156.171,602.822Z" transform="translate(-147.251 -360.853)" fill="#009688"/>
    <line id="_Path_16" data-name="&lt;Path&gt;" y2="88.792" transform="translate(36.95 225.257)" fill="#795548"/>
    <rect id="Rectangle_43" data-name="Rectangle 43" width="4.839" height="88.792" transform="translate(34.446 225.257)" fill="url(#linear-gradient-3)"/>
    <rect id="Rectangle_44" data-name="Rectangle 44" width="2.671" height="88.792" transform="translate(35.608 225.257)" fill="#795548"/>
    <line id="_Path_17" data-name="&lt;Path&gt;" x1="15.86" y1="16.176" transform="translate(21.361 235.672)" fill="#795548"/>
    <rect id="Rectangle_45" data-name="Rectangle 45" width="2.671" height="22.648" transform="matrix(0.714, -0.7, 0.7, 0.714, 20.413, 236.61)" fill="#795548"/>
    <line id="_Path_18" data-name="&lt;Path&gt;" y1="11.531" x2="16.434" transform="translate(37.221 254.216)" fill="#795548"/>
    <rect id="Rectangle_46" data-name="Rectangle 46" width="20.08" height="2.671" transform="translate(36.451 264.649) rotate(-35.06)" fill="#795548"/>
    <g id="_Group_7" data-name="&lt;Group&gt;" transform="translate(10.365 201.28)">
      <path id="Path_90" data-name="Path 90" d="M231.475,602.854a17.235,17.235,0,0,0-3.555-25.81,10.2,10.2,0,0,0,1.632-5.549,9.834,9.834,0,0,0-19.319-2.826,14.621,14.621,0,0,0-12.576-7.259,14.841,14.841,0,0,0-14.692,15.021,15.3,15.3,0,0,0,.9,5.163c-.3,0-.594-.046-.9-.046a11.924,11.924,0,0,0-11.8,12.118,8.49,8.49,0,0,0,.058,1.22,15.034,15.034,0,0,0,5.788,28.733,14.4,14.4,0,0,0,2.536-.226c-.045.5-.071,1-.071,1.51A16.6,16.6,0,0,0,195.9,641.679a16.132,16.132,0,0,0,9.356-2.994,12.06,12.06,0,0,0,7.943,2.994,12.415,12.415,0,0,0,12.26-12.55,5.841,5.841,0,0,0-.045-.89h.045a13.3,13.3,0,0,0,13.144-13.44A13.473,13.473,0,0,0,231.475,602.854Z" transform="translate(-162.369 -561.41)" fill="url(#linear-gradient-17)"/>
    </g>
    <path id="_Path_19" data-name="&lt;Path&gt;" d="M230.887,604.146a16.176,16.176,0,0,0-3.342-24.2,9.569,9.569,0,0,0,1.529-5.207,9.227,9.227,0,0,0-18.131-2.652,13.724,13.724,0,0,0-11.808-6.814,13.95,13.95,0,0,0-13.757,14.105,14.357,14.357,0,0,0,.845,4.865c-.277,0-.561-.045-.845-.045a11.2,11.2,0,0,0-11.066,11.318,7.447,7.447,0,0,0,.058,1.142,14.066,14.066,0,0,0-8.311,12.9A13.905,13.905,0,0,0,179.8,623.619a13.512,13.512,0,0,0,2.381-.213c-.039.471-.065.942-.065,1.419a15.6,15.6,0,0,0,15.421,15.77,15.112,15.112,0,0,0,8.782-2.807,11.317,11.317,0,0,0,7.446,2.8,11.653,11.653,0,0,0,11.524-11.782,6.037,6.037,0,0,0-.039-.839h.039a12.479,12.479,0,0,0,12.337-12.621A12.647,12.647,0,0,0,230.887,604.146Z" transform="translate(-153.313 -361.499)" fill="#00897b"/>
    <rect id="Rectangle_47" data-name="Rectangle 47" width="3.581" height="89.102" transform="translate(49.661 224.644)" fill="url(#linear-gradient-18)"/>
    <rect id="Rectangle_48" data-name="Rectangle 48" width="1.8" height="87.85" transform="translate(50.681 225.896)" fill="#795548"/>
    <rect id="Rectangle_49" data-name="Rectangle 49" width="21.764" height="1.8" transform="translate(50.525 251.763) rotate(-47.2)" fill="#795548"/>
    <rect id="Rectangle_50" data-name="Rectangle 50" width="1.8" height="19.099" transform="matrix(0.596, -0.803, 0.803, 0.596, 35.31, 255.463)" fill="#795548"/>
    <path id="Path_91" data-name="Path 91" d="M766.3,285.576a98.723,98.723,0,0,0-141.309-1.065c-37.366,37.669-38,99-1.452,137.437a98.723,98.723,0,0,0,126.61,14l71.364,74.2a4.8,4.8,0,0,0,6.794.136l17.776-17.093a4.8,4.8,0,0,0,.136-6.794l-71.364-74.2A98.723,98.723,0,0,0,766.3,285.576ZM744.069,404.9A70.609,70.609,0,1,1,746,305.056a70.609,70.609,0,0,1-1.936,99.839Z" transform="translate(-306.028 -251.525)" fill="url(#linear-gradient-19)"/>
    <path id="Path_92" data-name="Path 92" d="M665.012,377.85c-7.943,0-7.956,12.337,0,12.337S672.961,377.85,665.012,377.85Z" transform="translate(-328.204 -295.011)" fill="url(#linear-gradient-20)"/>
    <path id="Path_93" data-name="Path 93" d="M725.552,316.581c-21.371-.484-40.825,10.24-51.161,26.455-3.375,5.278,6.207,9.943,9.563,4.691,8.562-13.4,24.836-21.938,42.418-21.467a54.065,54.065,0,0,1,44.109,25.655c3.375,5.556,12.2.5,8.853-5.02C768.551,329.106,747.632,317.078,725.552,316.581Z" transform="translate(-333.394 -273.271)" fill="url(#linear-gradient-21)"/>
    <path id="Path_94" data-name="Path 94" d="M778.3,279.756a98.723,98.723,0,0,0-141.309-1.065c-37.366,37.669-38,99-1.452,137.437a98.723,98.723,0,0,0,126.61,14l71.364,74.2a4.8,4.8,0,0,0,6.795.136l17.783-17.1a4.8,4.8,0,0,0,.136-6.794l-71.364-74.2A98.723,98.723,0,0,0,778.3,279.756ZM756.069,399.075A70.609,70.609,0,1,1,758,299.236a70.609,70.609,0,0,1-1.936,99.839Z" transform="translate(-310.285 -249.46)" fill="#8cc6ff"/>
    <path id="Path_95" data-name="Path 95" d="M677.012,372c-7.943,0-7.956,12.337,0,12.337S684.961,372,677.012,372Z" transform="translate(-332.461 -292.936)" fill="#ffcc75"/>
    <path id="Path_96" data-name="Path 96" d="M737.552,310.761c-21.371-.484-40.825,10.24-51.161,26.455-3.375,5.278,6.207,9.943,9.563,4.691,8.562-13.4,24.836-21.938,42.418-21.467A54.065,54.065,0,0,1,782.48,346.1c3.375,5.556,12.2.5,8.853-5.02C780.551,323.3,759.632,311.265,737.552,310.761Z" transform="translate(-337.651 -271.206)" fill="#ffcc75"/>
  </g>
</svg>
