<svg xmlns="http://www.w3.org/2000/svg" xmlns:xlink="http://www.w3.org/1999/xlink" width="618.755" height="438.337" viewBox="0 0 618.755 438.337">
  <defs>
    <linearGradient id="linear-gradient" x1="0.5" y1="1" x2="0.5" gradientUnits="objectBoundingBox">
      <stop offset="0" stop-color="gray" stop-opacity="0.251"/>
      <stop offset="0.54" stop-color="gray" stop-opacity="0.122"/>
      <stop offset="1" stop-color="gray" stop-opacity="0.102"/>
    </linearGradient>
    <linearGradient id="linear-gradient-2" x1="0.5" y1="1" x2="0.5" y2="0" xlink:href="#linear-gradient"/>
    <linearGradient id="linear-gradient-3" x1="0.5" y1="1" x2="0.5" y2="0" xlink:href="#linear-gradient"/>
    <linearGradient id="linear-gradient-4" x1="0.5" y1="1.039" x2="0.5" y2="0.047" xlink:href="#linear-gradient"/>
  </defs>
  <g id="undraw_smiley_face_lmgm" transform="translate(-0.015 -21.373)">
    <path id="Path_143" data-name="Path 143" d="M161.56,730.96s11.979-1.917,19.166,6.548c0,0-5.271,4.153-16.61-1.6Z" transform="translate(-102.265 -340.76)" fill="#ffcc75"/>
    <path id="Path_144" data-name="Path 144" d="M155.6,730.78s-7.638,9.423-3.89,19.873c0,0,6.229-2.493,6.908-15.19Z" transform="translate(-97.59 -340.763)" fill="#ffcc75"/>
    <path id="Path_145" data-name="Path 145" d="M147.28,701.371s4.791-8.784,23.957,3.514c0,0-2.555,5.909-11.02,5.43S149.516,706,147.28,701.371Z" transform="translate(-96.131 -326.823)" fill="#ffcc75"/>
    <path id="Path_146" data-name="Path 146" d="M136.9,702.543s-9.942-1.141-10.906,21.619c0,0,6.274,1.312,10.781-5.887S139.4,707.038,136.9,702.543Z" transform="translate(-86.985 -328.628)" fill="#ffcc75"/>
    <path id="Path_147" data-name="Path 147" d="M135,664.38s5.59-15.5,25.874-4.472c0,0-4.632,14.215-23.8,9.743Z" transform="translate(-90.855 -308.615)" fill="#ffcc75"/>
    <path id="Path_148" data-name="Path 148" d="M124,624.617s10.547-15.652,29.234-1.141c0,0-6.548,14.7-27.636,6.708Z" transform="translate(-86.13 -292.017)" fill="#ffcc75"/>
    <path id="Path_149" data-name="Path 149" d="M120.11,586.669s12.3-14.374,30.831,0c0,0-11.659,12.617-30.8,3.673Z" transform="translate(-84.459 -276.109)" fill="#ffcc75"/>
    <path id="Path_150" data-name="Path 150" d="M116.75,548.792s12.463-15.013,30.192-.8c0,0-14.055,13.256-30.192,4.312Z" transform="translate(-83.015 -259.612)" fill="#ffcc75"/>
    <path id="Path_151" data-name="Path 151" d="M118.71,512.517s13.119-19.331,29.713-6.235c0,0-14.055,16.616-29.713,9.908Z" transform="translate(-83.857 -242.365)" fill="#ffcc75"/>
    <path id="Path_152" data-name="Path 152" d="M124,474.167S137.9,455,154.032,469.7c0,0-16.451,16.61-30.032,7.986Z" transform="translate(-86.13 -226.222)" fill="#ffcc75"/>
    <path id="Path_153" data-name="Path 153" d="M131.619,437.487s16.451-18.008,30.8-10.838c0,0-17.147,19.126-31.521,15.612Z" transform="translate(-89.094 -209.387)" fill="#ffcc75"/>
    <path id="Path_154" data-name="Path 154" d="M141.226,401.8s19.006-22.046,30.026-14.694c0,0-13.986,17.112-31.373,18.824Z" transform="translate(-92.952 -192.48)" fill="#ffcc75"/>
    <path id="Path_155" data-name="Path 155" d="M155.11,364.969s16.616-18.014,28.754-13.513c0,0-14.215,18.692-30.985,19.171Z" transform="translate(-98.536 -177.499)" fill="#ffcc75"/>
    <path id="Path_156" data-name="Path 156" d="M169.4,328.935s18.367-17.249,26.353-14.215c0,0-13.256,19.166-27.152,18.048Z" transform="translate(-105.289 -161.874)" fill="#ffcc75"/>
    <path id="Path_157" data-name="Path 157" d="M182.84,292.49s15.812-20.6,24.436-19.006c0,0-9.583,18.367-24.436,21.105Z" transform="translate(-111.407 -144.275)" fill="#ffcc75"/>
    <path id="Path_158" data-name="Path 158" d="M196.386,250.46s13.975-15.8,21.522-15.76c0,0-11.032,21.105-22.1,20.911Z" transform="translate(-116.979 -127.652)" fill="#ffcc75"/>
    <path id="Path_159" data-name="Path 159" d="M203.807,207.9,217.3,175s.679,29.741-15.213,39.01Z" transform="translate(-119.676 -102.005)" fill="#ffcc75"/>
    <path id="Path_160" data-name="Path 160" d="M214.637,146.677s2.236-27.471.8-29.707c0,0,9.651,22.816-.9,41.845Z" transform="translate(-125.025 -77.076)" fill="#ffcc75"/>
    <path id="Path_161" data-name="Path 161" d="M116.632,668.758s-14-8.676-23.062,12.549c0,0,12.458,8.265,24.7-7.136Z" transform="translate(-73.057 -313.365)" fill="#ffcc75"/>
    <path id="Path_162" data-name="Path 162" d="M104.043,627.567S86.874,619.73,78.54,641.9c0,0,13.268,9.1,27.066-8.733Z" transform="translate(-66.601 -295.846)" fill="#ffcc75"/>
    <path id="Path_163" data-name="Path 163" d="M95.512,588.979s-12.3-14.374-30.8,0c0,0,11.659,12.618,30.8,3.673Z" transform="translate(-60.659 -277.102)" fill="#ffcc75"/>
    <path id="Path_164" data-name="Path 164" d="M93.262,548.792s-12.458-15.013-30.192-.8c0,0,14.061,13.256,30.192,4.312Z" transform="translate(-59.955 -259.612)" fill="#ffcc75"/>
    <path id="Path_165" data-name="Path 165" d="M97.823,510.539S89.085,488.863,70.09,498.2c0,0,10.267,19.2,26.963,15.932Z" transform="translate(-62.971 -239.846)" fill="#ffcc75"/>
    <path id="Path_166" data-name="Path 166" d="M104.95,470.591S96.268,448.568,77,458.784c0,0,11.8,20.181,27.094,15.213Z" transform="translate(-65.939 -222.754)" fill="#ffcc75"/>
    <path id="Path_167" data-name="Path 167" d="M120.815,427.307S117.393,403.162,101.45,401c0,0,3.383,25.463,17.238,30.659Z" transform="translate(-76.443 -199.093)" fill="#ffcc75"/>
    <path id="Path_168" data-name="Path 168" d="M132.05,391.331s-1.335-29.091-14.54-30.1c0,0,.445,22.081,13.051,34.225Z" transform="translate(-83.342 -182.008)" fill="#ffcc75"/>
    <path id="Path_169" data-name="Path 169" d="M146.732,353.792S142.79,329.6,130.19,326.64c0,0,1.563,23.432,15.3,33.084Z" transform="translate(-88.789 -167.148)" fill="#ffcc75"/>
    <path id="Path_170" data-name="Path 170" d="M165.854,318.453s-.137-25.2-7.832-28.9c0,0-4.78,22.816,5.6,32.12Z" transform="translate(-100.274 -151.215)" fill="#ffcc75"/>
    <path id="Path_171" data-name="Path 171" d="M176.814,284.08s-1.067-25.954-9.052-29.61c0,0-2.732,20.535,7.855,31.31Z" transform="translate(-104.793 -136.145)" fill="#ffcc75"/>
    <path id="Path_172" data-name="Path 172" d="M193.046,246.381s-.051-21.105-5.738-26.051c0,0-5.664,23.119,2.766,30.294Z" transform="translate(-112.526 -121.479)" fill="#ffcc75"/>
    <path id="Path_173" data-name="Path 173" d="M198.154,204.386l-5.533-35.126s-7.541,28.783,5.8,41.492Z" transform="translate(-114.697 -99.539)" fill="#ffcc75"/>
    <path id="Path_174" data-name="Path 174" d="M195.33,149.879s-14.215-23.615-13.924-26.239c0,0,1.512,24.75,19.394,37.077Z" transform="translate(-110.789 -79.941)" fill="#ffcc75"/>
    <path id="Path_175" data-name="Path 175" d="M194.065,130.1S180.649,96.561,174.58,93.84c0,0,19.166,9.748,20.6,35.3Z" transform="translate(-107.858 -67.14)" fill="#ffcc75"/>
    <path id="Path_176" data-name="Path 176" d="M194.993,220.993l-.913-.285c11.323-36.923,14.146-60.463,7.952-66.362l.662-.7C209.259,159.873,206.583,183.163,194.993,220.993Z" transform="translate(-116.235 -92.833)" fill="#444053"/>
    <path id="Path_177" data-name="Path 177" d="M139.978,356.084l-1.358-.479c1.2-3.383,2.5-6.816,3.856-10.2,11.819-29.45,21.875-56.853,28.332-77.89l1.175-.57c-6.463,21.105-16.342,49.529-28.173,79.019C142.476,349.307,141.187,352.718,139.978,356.084Z" transform="translate(-92.41 -141.502)" fill="#444053"/>
    <path id="Path_178" data-name="Path 178" d="M158.129,624.081c-.183-.205-18.538-20.866-31.327-56.151a207.868,207.868,0,0,1-12.378-64.325c-.873-27.454,4.883-58.113,14.757-85.955l1.072,1.255C108.1,481.4,116.9,534.955,128.576,567.211c12.657,34.96,30.8,55.4,30.979,55.6Z" transform="translate(-81.979 -206.245)" fill="#444053"/>
    <ellipse id="Ellipse_27" data-name="Ellipse 27" cx="254.962" cy="23.455" rx="254.962" ry="23.455" transform="translate(47.265 395.505)" fill="#ffcc75" opacity="0.1"/>
    <circle id="Ellipse_28" data-name="Ellipse 28" cx="175.971" cy="175.971" r="175.971" transform="translate(111.373 80.319)" fill="#8cc6ff"/>
    <ellipse id="Ellipse_29" data-name="Ellipse 29" cx="18.247" cy="23.9" rx="18.247" ry="23.9" transform="translate(221.953 198.28)" fill="#444053"/>
    <ellipse id="Ellipse_30" data-name="Ellipse 30" cx="18.247" cy="23.9" rx="18.247" ry="23.9" transform="translate(316.242 198.28)" fill="#444053"/>
    <path id="Path_179" data-name="Path 179" d="M588.394,555.258c0,34.31-57.315,92.11-115.143,92.11s-112.941-59.1-112.941-93.416,53.944-2.932,111.8-2.932S588.394,520.942,588.394,555.258Z" transform="translate(-187.646 -257.904)" fill="#444053"/>
    <path id="Path_180" data-name="Path 180" d="M388.013,578.61s103.952,23.136,191.287.65c0,0,10.69,0,3.388,12.355a19.673,19.673,0,0,1-7.986,7.49c-16.827,8.6-79.167,34.025-178.824,1.6a19.6,19.6,0,0,1-12.937-13.251C381.79,583.213,382.292,579.2,388.013,578.61Z" transform="translate(-197.153 -275.392)" fill="#f6f8fb"/>
    <path id="Path_181" data-name="Path 181" d="M370.173,266.68s-53.008,33.894-52.575,86.885S370.173,266.68,370.173,266.68Z" transform="translate(-169.296 -141.39)" opacity="0.05"/>
    <path id="Path_182" data-name="Path 182" d="M844.428,572.971c-.913-3.634-3.126-3.7-3.126-3.7l-.034-.365-.816-8.972a.5.5,0,0,1-.114.12l-.046-1.141a6,6,0,0,0-.057-.645,7.483,7.483,0,0,0,2.744-3.827c-.336-.428-.085-.342-.085-.342s-5.539-5.67-4.985-8.625-4.17-6.166-4.17-6.166-1.711-5.282-1.711-6.885-6.469-12.127-6.469-12.127-5.7-13.387-10.712-19.137-4.563-8.881-4.563-8.881a10.688,10.688,0,0,1-1.112-1.945,12.487,12.487,0,0,1-.57-1.46c1.027-.131,1.711-.154,1.711-.154s4.1-.7,4.284-1.546a5.355,5.355,0,0,1,1.4-2.521c.781-.838-2.225-16.81-.627-20.94s-2.048-23.079-2.048-23.079a4.2,4.2,0,0,1,1.808-2.852l2.419-.953h0l1.226-.3.166-.04.251-.063.57-.143.165-.046.354-.1.131-.034.57-.177.188-.063.268-.091.205-.08.274-.108.3-.143.177-.091.188-.108.148-.1a2.324,2.324,0,0,0,.223-.177l.114-.114a1.663,1.663,0,0,0,.131-.148.787.787,0,0,0,.074-.114l.034-.046h0a1.232,1.232,0,0,0-.12-1.278,9.742,9.742,0,0,0-2.168-2.23l-1.318-2.025a.085.085,0,0,1,0-.04,1.492,1.492,0,0,1,.068-.331,3.818,3.818,0,0,0,.063-1.3h0a.314.314,0,0,0,0-.074,3.324,3.324,0,0,0,.028-.411v-.177a1.835,1.835,0,0,0-.028-.394.445.445,0,0,1,0-.2,2.869,2.869,0,0,0-.074-.376c-.029-.125-.034-.148-.057-.223s-.063-.234-.1-.354l-.086-.234c-.04-.108-.086-.222-.131-.331s-.068-.165-.108-.245-.091-.205-.143-.308-.086-.165-.125-.245-.1-.194-.16-.291l-.137-.24-.16-.262-.154-.24-.154-.234-.154-.223c-.051-.068-.1-.143-.154-.205l-.148-.205-.137-.177-.143-.183-.12-.148-.125-.154-.1-.108-.1-.12-.068-.08-.074-.08-.04-.046-.04-.04v-.491a.771.771,0,0,0-.034-.268v-.034a17.3,17.3,0,0,1-.143-1.785h0a4.686,4.686,0,0,1,.411-1.8.856.856,0,0,0-.04-.9,1.121,1.121,0,0,1,.057-.12c.394-.759-.354-1.409-1.289-1.894,0-1.392-.57-4.215-5.179-4.723,0,0-2.7-1.82-.091-5.088s-1.534-11.631-1.534-11.631-1.318-3.422-.61-4.837-.821-14-.821-14,0-11.608-2.567-16.542-4.318-13.792-7.278-15.1a15.913,15.913,0,0,1-5.3-4.483l-1.38.445c-.24-.354-.479-.707-.707-1.061h0a2.444,2.444,0,0,0,.325-.114,3.166,3.166,0,0,0,1.489-1.386,3.78,3.78,0,0,0,.245-.536h0a6.021,6.021,0,0,0,.331-2.088,10.54,10.54,0,0,1,.063-2.122,8.233,8.233,0,0,1,1.711-3.006,13.886,13.886,0,0,0,2.561-6.44,9.748,9.748,0,0,0-1.626-6.651,14.633,14.633,0,0,1-1.968-2.852c-.194-.491-.28-1.015-.428-1.517a7.541,7.541,0,0,0-6.434-5.179c-2.424-.222-4.814.7-7.244.673-2.818-.034-5.7-1.323-8.345-.342a8.21,8.21,0,0,0-3.052,2.282,23.961,23.961,0,0,0-1.791,2.23h0c-.325.456-.633.918-.924,1.4v.04c-.3.485-.57.981-.833,1.489a.508.508,0,0,0-.04.376.684.684,0,0,0,.342.325,3.922,3.922,0,0,1,1.266.73,4.361,4.361,0,0,0,.462.456c-.08.1-.165.188-.245.291a14.443,14.443,0,0,0,5.448,22.092l.291.639a27,27,0,0,1,1.375,3.742l-1.244.114a1.563,1.563,0,0,1-1.472,1.5,46.943,46.943,0,0,0-6.081,1.865s-6.953,3.542-11.146,4.666-6.052.165-6.052.165-.474,3.046-5.219,1.369-5.373.091-5.373.091-13.37-.365-23.107.935-13.981.388-13.981.388-.046.513-.1,1.346l-.987-.57c-6.468-3.457-18.4-8.819-20.1-2.282-2.373,9.087,18.464,12.948,18.464,12.948l1.54-.165,1.01-.108c.194,2.521.639,4.563,1.569,4.786.337.086,10.307.063,12.931,1.289s8.277-.57,8.277-.57a5.5,5.5,0,0,1,3.651.981c2.2,1.3,14.129,1.306,14.129,1.306s.85.183,3.9,1.078,8.436.12,8.436.12l12.589,1.626s.9,8.824-.091,12.03-.194,18.978-.194,18.978,2.852,19.194,2.071,21.47c-.616,1.763,4.849-.2,7.347-1.175.131.519.3,1.141.485,1.842,0,.063.086.1.183.125l.205.137c.091.376.182.742.268,1.084l-.679.183.9.6a9.918,9.918,0,0,0,.359,1.067c.741,1.711-4.672,4.843-4.672,4.843S756.174,443.2,751.685,447c0,0-3.508,1.141-3.782,2.23s-3.422.713-3.422.713-.445,1.181-.8,2.367a10.619,10.619,0,0,1-2.282,3.017s-4.443.7-5.071,3.057a48.7,48.7,0,0,0-1.021,5.544l-4.991,9.081s-13.61,10.142-15.036,14.021l-9.634,6.457s-1.586,3.536-4.4,3.662-7.666,5.134-7.666,5.134,1.426.57,3.52,1.54c-.126.194-.245.388-.348.57a9.149,9.149,0,0,0-.85,2.322s-6.275,3.81-10.94,2.213a49.848,49.848,0,0,0-11.591-2.647c-2.892-.143-4.945.525-4.347,2.926,1.021,4.147,11.317,14.585,16.394,19.537a27.488,27.488,0,0,0,2.55,2.2,26.125,26.125,0,0,0,3.759,2.407,25.557,25.557,0,0,0,2.373,1.1,19.392,19.392,0,0,0,2.675.861c1.791.416,3.422.4,4.341-.57,2.943-3.012,1.711-5.134,1.711-5.134l.331-.245,8.111-6.069,1.837-1.569.508-.433a10.883,10.883,0,0,1-2.744,5.978,38.381,38.381,0,0,1,6.349-2.955c2.852-.89,4.609-6.274,4.609-6.274s1.557-1.586,4.324-4.426,3.28-10.113,3.28-10.113,14.2-9.035,19.964-19.457c0,0,1.044-1.426,2.852-3.519s1.871-5.567,1.871-5.567.268-1.01,2.692-3.6,2.11-4.21,2.11-4.21,1.141-1.591,5.385-1.272,14.215-4.712,14.215-4.712a12.357,12.357,0,0,0,.091,1.261c-.867,2-1.437,3.383-1.437,3.383s8.693,34.7,5.208,40.151c-1.808,2.852,3.177.685,8.4-2.036.268.325.57.667.9,1.032a44.5,44.5,0,0,0,3.947,3.765l.171.148s10.587,16.337,12.264,18.253.57,7.552.57,7.552,2.955,19.7,6.993,23.147a9.629,9.629,0,0,0,2.784,1.466c-.068,2.453,2.15,4.466,2.15,4.466s-.046,6.525-3.457,9.286a44.367,44.367,0,0,0-7.472,7.5c-1.466,2.116-1.922,3.993.188,4.655,3.645,1.181,16.445-1.671,22.611-3.171a23.621,23.621,0,0,0,8.425-3.867C842.991,576.576,844.85,574.677,844.428,572.971ZM704.01,507.694c.354.234.7.474,1.049.719l-.57.456-.234.183a2.382,2.382,0,0,0-.057-.382C704.136,508.355,704.079,508.03,704.01,507.694Z" transform="translate(-320.221 -157.639)" fill="url(#linear-gradient)"/>
    <path id="Path_183" data-name="Path 183" d="M713.442,397.681l-6.428.679-1.517.165s-20.535-3.827-18.2-12.806c1.677-6.5,13.439-1.181,19.822,2.282,2.441,1.318,4.09,2.356,4.09,2.356Z" transform="translate(-328.038 -191.211)" fill="#d17483"/>
    <path id="Path_184" data-name="Path 184" d="M684.409,619.213l-7.039,6.052-1.814,1.557-4.221,1.278-10.456-9.229,7.769-6.195.228-.188,6.286-5.008Z" transform="translate(-283.901 -260.968)" fill="#dce6f2"/>
    <path id="Path_185" data-name="Path 185" d="M948.3,739.745l-9.937.462,2.727,12.144,3.725,1.284,10.376-.867-.28-6.97a6.32,6.32,0,0,0-6.611-6.052Z" transform="translate(-435.971 -344.611)" fill="#dce6f2"/>
    <path id="Path_186" data-name="Path 186" d="M726.471,657.646a55.816,55.816,0,0,0-7.341-4.221,5.18,5.18,0,0,1,3.422-2.852C724.8,650.1,725.946,654.452,726.471,657.646Z" transform="translate(-341.792 -306.291)" opacity="0.1"/>
    <path id="Path_187" data-name="Path 187" d="M741.008,672.3c.428-5.071-3.827-9.492-8.488-12.772l6.274-5.014,9.241,11.733Z" transform="translate(-347.544 -307.998)" opacity="0.1"/>
    <path id="Path_188" data-name="Path 188" d="M860.985,634.435c-2.915,9.623-22.965,6.731-26.946,3.308s-6.9-22.965-6.9-22.965,1.1-5.618-.57-7.5S814.474,589.2,814.474,589.2s-.114-.1-.171-.143a43.924,43.924,0,0,1-3.9-3.736c-3.211-3.519-3.28-5.219-3.28-5.219a75.99,75.99,0,0,0-5.071-15.709c-2.852-6.674-4.033-15.743-4.438-20.05-.143-1.534-.194-2.464-.194-2.464s-9.822,4.985-14.021,4.672-5.316,1.266-5.316,1.266.314,1.6-2.076,4.175-2.658,3.571-2.658,3.571-.051,3.451-1.848,5.522-2.824,3.491-2.824,3.491c-5.7,10.342-19.7,19.3-19.7,19.3s-.519,7.221-3.257,10.039l-4.267,4.392s-1.757,5.356-4.563,6.24a37.376,37.376,0,0,0-6.275,2.932c11.551-13.867-17.038-24.8-17.038-24.8s4.78-4.974,7.558-5.1,4.341-3.633,4.341-3.633l9.5-6.417c1.4-3.85,14.831-13.907,14.831-13.907l4.923-9.007a48.191,48.191,0,0,1,1.01-5.453c.616-2.339,5-3.035,5-3.035a10.6,10.6,0,0,0,2.225-2.995c.348-1.169.793-2.344.793-2.344s3.1.388,3.371-.707,3.73-2.213,3.73-2.213c4.432-3.8,19.177-11.91,19.177-11.91s5.339-3.114,4.609-4.809a9.184,9.184,0,0,1-.359-1.055v-.091q-.1-.325-.188-.685c-.673-2.607-1.415-6.605-1.415-6.605s25.948-15.087,34.464-11.26c2.487,1.112,3.936,3.919,4.695,7.5,1.215,5.733.661,13.445-.268,19.365a55.638,55.638,0,0,1-1.557,7.216c-2.031,6.531-2.424,16.188-2.424,16.188s-.268,18.407-.924,22.936a11.2,11.2,0,0,0,.97,6.172,10.628,10.628,0,0,0,1.1,1.928s-.468,3.1,4.495,8.813S843.8,600.558,843.8,600.558s6.406,10.433,6.383,12.036,1.666,6.845,1.666,6.845,4.66,3.172,4.113,6.109,4.917,8.556,4.917,8.556S860.654,634.007,860.985,634.435Z" transform="translate(-339.407 -237.687)" fill="#bdd2e8"/>
    <path id="Path_189" data-name="Path 189" d="M855.67,534.71s5.59,2.687,6.046,5.892S855.67,534.71,855.67,534.71Z" transform="translate(-400.448 -256.533)" opacity="0.1"/>
    <path id="Path_190" data-name="Path 190" d="M759.168,517.637l3.057,3.577-1.586-6.5-3.36-.217Z" transform="translate(-325.314 -221.025)" opacity="0.1"/>
    <path id="Path_191" data-name="Path 191" d="M812,580.35c.331.257,4.078,8.636,5.082,8.733S812,580.35,812,580.35Z" transform="translate(-381.688 -276.14)" opacity="0.1"/>
    <path id="Path_192" data-name="Path 192" d="M891.772,524.428a55.621,55.621,0,0,1-1.557,7.216c-2.031,6.531-2.424,16.188-2.424,16.188s-.268,18.407-.924,22.936a11.2,11.2,0,0,0,.97,6.172A17.164,17.164,0,0,0,880.78,579c-3.052,1.974-1.283,7.381-1.283,7.381s-4.4,2.647-8.9,5.042c-3.211-3.519-3.28-5.219-3.28-5.219a75.984,75.984,0,0,0-5.071-15.709c-2.852-6.674-4.033-15.743-4.438-20.05,1.711-3.993,4.535-10.142,6.434-12.794,2.014-2.812-.388-11.323-2.065-16.3l-.462-.314h0l-5.516-3.7h0l-1.677-1.141-.878-.57.667-.182,37.755-10.359C893.255,510.813,892.7,518.525,891.772,524.428Z" transform="translate(-399.576 -243.804)" opacity="0.1"/>
    <path id="Path_193" data-name="Path 193" d="M853.66,512.264l2.555,1.711h0l5.51,3.7h0l.468.314c1.677,4.98,4.078,13.49,2.059,16.3-2.915,4.078-7.986,16.451-7.986,16.451s8.556,34.419,5.134,39.832,18.122-7.535,18.122-7.535-1.763-5.407,1.289-7.381,8.185-2.15,8.185-2.15,4.044-.7,4.227-1.534a5.25,5.25,0,0,1,1.38-2.5c.765-.833-2.2-16.679-.622-20.774s-2.025-22.9-2.025-22.9a4.175,4.175,0,0,1,1.791-2.852,5.277,5.277,0,0,1,1.472-.707l.325-.091c.194-.057.4-.108.57-.148h0c2.453-.61,5.134-1.141,5.7-2.282l-.57-.867-3.006-4.643h0a3.455,3.455,0,0,1,.086-1.358,2.366,2.366,0,0,1,.046-.28h0c.439-2.96-2.972-6.554-2.972-6.554a17.126,17.126,0,0,1-.262-2.555v-.029a6.357,6.357,0,0,1,.365-2.67Z" transform="translate(-399.584 -241.953)" fill="#653c5b"/>
    <path id="Path_194" data-name="Path 194" d="M870.507,532.417c-.3-.063,18.4.6,24.18,7.986C894.687,540.42,894.892,537.733,870.507,532.417Z" transform="translate(-406.82 -255.547)" opacity="0.1"/>
    <path id="Path_195" data-name="Path 195" d="M896.35,553.56s3.73,26.809,2.9,31.481,4.347,1.66,4.347,1.66S908.876,547.788,896.35,553.56Z" transform="translate(-417.924 -264.38)" opacity="0.1"/>
    <path id="Path_196" data-name="Path 196" d="M901.267,518.26a2.389,2.389,0,0,0-.137-.268c-1.261-2.11-3.862-2.55-3.422-5.242h0a1.626,1.626,0,0,1,.068-.348,3.755,3.755,0,0,0,.063-1.289h0c-.3-2.715-2.989-5.544-2.989-5.544A16.741,16.741,0,0,1,894.6,502v-.029a4.648,4.648,0,0,1,.4-1.785.832.832,0,0,0-.04-.884c-.7-1.181-3.782-1.945-3.782-1.945l-20.906,3.314c-2.47.844-4.826,1.711-6.976,2.538-6.451,2.464-11.026,4.512-11.026,4.512l.154.61c.137.57.365,1.455.645,2.476.091.354,1.82-.063,1.928.314l.639,1.4,4.615,1.278s.376.941.9,2.424a1.064,1.064,0,0,0,.091.268h0l.376.051c8.722,1.072,20.8,2.778,31.544,4.951Z" transform="translate(-398.992 -240.488)" opacity="0.1"/>
    <path id="Path_197" data-name="Path 197" d="M894.952,519.929l-.325.091c-11.243-2.35-24.242-4.181-33.38-5.3h0c-.57-1.637-.981-2.687-.981-2.687l-6.879-1.905-.188-.662c-.331-1.192-.6-2.282-.764-2.909l-.154-.61s4.563-2.048,11.026-4.506c2.15-.827,4.512-1.711,6.982-2.544l20.9-3.308a13.734,13.734,0,0,1,2.225.781c1.067.5,2.036,1.2,1.6,2.048-.861,1.666-.154,5.373-.154,5.373s3.639,3.833,2.926,6.845,2.048,3.394,3.36,5.6S898.323,519.051,894.952,519.929Z" transform="translate(-398.992 -239.728)" fill="#653c5b"/>
    <path id="Path_198" data-name="Path 198" d="M871.888,365.771s-27.437,2.2-24.288-.274c1.574-1.238.491-4.923-.993-8.294a60.119,60.119,0,0,0-3.337-6.394s20.854-6.023,18.618-2.6c-.662,1.01-.063,2.955,1.141,5.2C865.818,358.755,871.888,365.771,871.888,365.771Z" transform="translate(-395.121 -175.962)" fill="#d17483"/>
    <path id="Path_199" data-name="Path 199" d="M863.012,353.42c-.57.679-2.048-.131-2.761.428-2.493,1.951-4.854,4.535-8.26,4.483a14.312,14.312,0,0,1-5.385-1.141,60.113,60.113,0,0,0-3.337-6.394s20.854-6.012,18.618-2.59C861.227,349.233,861.825,351.178,863.012,353.42Z" transform="translate(-395.121 -175.961)" opacity="0.1"/>
    <path id="Path_200" data-name="Path 200" d="M862.48,330.018a14.323,14.323,0,1,1-4.047-10.238A14.374,14.374,0,0,1,862.48,330.018Z" transform="translate(-391.024 -162.336)" fill="#d17483"/>
    <path id="Path_201" data-name="Path 201" d="M893.646,498.8a28.808,28.808,0,0,1-6.719-.707c-3.519-.81-6.5,2.344-6.5,2.344s-6.845,2.675-9.954,2.128-16.742,6.645-16.742,6.645l-.57.223c-.331-1.192-.6-2.282-.764-2.909l-.154-.61s4.563-2.048,11.026-4.506c2.151-.827,4.512-1.711,6.982-2.544l20.9-3.308a13.749,13.749,0,0,1,2.225.781A4.748,4.748,0,0,1,893.646,498.8Z" transform="translate(-398.974 -239.71)" opacity="0.1"/>
    <path id="Path_202" data-name="Path 202" d="M728.34,401.688l-6.429.679a80.344,80.344,0,0,1,.108-10.387c2.441,1.318,4.09,2.356,4.09,2.356Z" transform="translate(-342.936 -195.218)" opacity="0.1"/>
    <path id="Path_203" data-name="Path 203" d="M815.378,364.33s-4.056,1.283-6.337,2.179-13.73,1.9-13.73,1.9a1.546,1.546,0,0,1-1.449,1.494,44.871,44.871,0,0,0-6,1.842s-6.845,3.514-11,4.632-5.972.165-5.972.165-.462,3.017-5.134,1.352-5.3.091-5.3.091-13.194-.359-22.816.93-13.792.388-13.792.388-1.249,15.127,1.369,15.823c.331.091,10.17.063,12.754,1.278s8.162-.57,8.162-.57a5.416,5.416,0,0,1,3.6.981c2.168,1.295,13.935,1.295,13.935,1.295s.839.177,3.85,1.067,8.317.12,8.317.12l12.418,1.626s.884,8.756-.086,11.933-.194,18.824-.194,18.824,2.852,19.04,2.048,21.3,8.425-1.643,8.425-1.643,13.644-7.2,16.742-6.651,9.954-2.122,9.954-2.122,2.989-3.154,6.508-2.344a28.554,28.554,0,0,0,6.714.685s.992-4.774-5.048-5.453c0,0-2.664-1.8-.1-5.042s-1.5-11.505-1.5-11.505-1.295-3.383-.6-4.8-.8-13.878-.8-13.878,0-11.517-2.533-16.434-4.261-13.69-7.181-14.979A15.489,15.489,0,0,1,815.378,364.33Z" transform="translate(-343.694 -183.34)" fill="#dce6f2"/>
    <path id="Path_204" data-name="Path 204" d="M857.75,432s17.791,7.912,22.571,14.289S857.75,432,857.75,432Z" transform="translate(-401.341 -212.41)" opacity="0.1"/>
    <path id="Path_205" data-name="Path 205" d="M870.08,455.78s21.5,12.5,20.033,15.675S870.08,455.78,870.08,455.78Z" transform="translate(-406.638 -222.625)" opacity="0.1"/>
    <path id="Path_206" data-name="Path 206" d="M876.24,477.83s7.775,3.143,9.178,4.928S876.24,477.83,876.24,477.83Z" transform="translate(-409.285 -232.098)" opacity="0.1"/>
    <path id="Path_207" data-name="Path 207" d="M813.82,392.33s16.433,8.813,13.61,12.389S813.82,392.33,813.82,392.33Z" transform="translate(-382.47 -195.368)" opacity="0.1"/>
    <path id="Path_208" data-name="Path 208" d="M801.9,403.22s2.681,6.275,2.749,7.353S799.7,404.11,801.9,403.22Z" transform="translate(-377.108 -200.046)" opacity="0.1"/>
    <path id="Path_209" data-name="Path 209" d="M783,406.18c0,.337,8.556,5.584,5.025,6.965S783,406.18,783,406.18Z" transform="translate(-369.23 -201.318)" opacity="0.1"/>
    <path id="Path_210" data-name="Path 210" d="M794.41,591.59c.251.337,1.141,3.628,3.879,5.1S794.41,591.59,794.41,591.59Z" transform="translate(-374.131 -280.968)" opacity="0.1"/>
    <path id="Path_211" data-name="Path 211" d="M749.37,635.29c-.04,2.772-.508,11.6,1.751,12.549S749.37,635.29,749.37,635.29Z" transform="translate(-354.754 -299.741)" opacity="0.1"/>
    <path id="Path_212" data-name="Path 212" d="M760.076,649s5.168,8.733,3.383,10.222-3.839-2.076-3.839-2.076Z" transform="translate(-359.186 -305.631)" opacity="0.1"/>
    <path id="Path_213" data-name="Path 213" d="M921.75,682.31a29.023,29.023,0,0,0,6.377.513C931.59,682.7,921.75,682.31,921.75,682.31Z" transform="translate(-428.835 -319.941)" opacity="0.1"/>
    <path id="Path_214" data-name="Path 214" d="M917,674.437s6.371,1.186,8.659-.04S917,674.437,917,674.437Z" transform="translate(-426.795 -316.311)" opacity="0.1"/>
    <path id="Path_215" data-name="Path 215" d="M912.6,661.253s6.377.513,7.672-1.654S912.6,661.253,912.6,661.253Z" transform="translate(-424.905 -309.898)" opacity="0.1"/>
    <path id="Path_216" data-name="Path 216" d="M909.45,656.073s6.12,1.015,7.147-.4S909.45,656.073,909.45,656.073Z" transform="translate(-423.551 -308.266)" opacity="0.1"/>
    <path id="Path_217" data-name="Path 217" d="M899,634.23s6.594,3.12,7.324,4.9S899,634.23,899,634.23Z" transform="translate(-419.062 -299.286)" opacity="0.1"/>
    <path id="Path_218" data-name="Path 218" d="M864.786,330.021a14.323,14.323,0,0,1-5.527,11.117c-.04-.074-.074-.148-.108-.222-.627-1.34-.787-2.852-1.369-4.187a2.025,2.025,0,0,0-1.015-1.169c-.924-.359-1.843.485-2.453,1.244s-1.517,1.614-2.447,1.278a2.322,2.322,0,0,1-1.141-1.2,12.492,12.492,0,0,1-2-5.47,24.352,24.352,0,0,0,.034-2.886,6.2,6.2,0,0,0-2.955-4.033,36.91,36.91,0,0,0-4.706-2.282,6.987,6.987,0,0,1-2-1.278,14.374,14.374,0,0,1,25.668,9.092Z" transform="translate(-393.33 -162.338)" opacity="0.1"/>
    <path id="Path_219" data-name="Path 219" d="M835.957,315.486c-.348.81.975.736,1.552,1.42a6.376,6.376,0,0,0,2.219,1.506,38.1,38.1,0,0,1,4.706,2.282,6.194,6.194,0,0,1,2.955,4.038,25.538,25.538,0,0,1-.029,2.881,12.53,12.53,0,0,0,2,5.476,2.39,2.39,0,0,0,1.141,1.2c.935.331,1.831-.519,2.447-1.278s1.534-1.6,2.458-1.249a2.031,2.031,0,0,1,1.01,1.169c.57,1.352.741,2.852,1.369,4.193s1.974,2.55,3.479,2.35a3,3,0,0,0,2.128-1.563,5.294,5.294,0,0,0,.57-2.6,10.354,10.354,0,0,1,.063-2.1,8.353,8.353,0,0,1,1.666-2.983,13.813,13.813,0,0,0,2.516-6.371,9.736,9.736,0,0,0-1.6-6.594,14.249,14.249,0,0,1-1.945-2.852c-.188-.485-.274-1-.422-1.506a7.444,7.444,0,0,0-6.349-5.134c-2.384-.222-4.746.7-7.142.667-2.778-.029-5.647-1.312-8.237-.336a8.053,8.053,0,0,0-3.006,2.282,23.09,23.09,0,0,0-3.525,5.134" transform="translate(-391.955 -159.029)" fill="#653c5b"/>
    <path id="Path_220" data-name="Path 220" d="M704.785,678.205l-.331.245s1.232,2.122-1.671,5.134c-1.363,1.4-4.244.759-6.919-.308a26.239,26.239,0,0,1-8.556-5.653c-5-4.911-15.161-15.264-16.171-19.394-.57-2.384,1.437-3.046,4.29-2.9a47.349,47.349,0,0,1,11.408,2.63c4.6,1.58,10.786-2.2,10.786-2.2a9.306,9.306,0,0,1,.838-2.282,5.179,5.179,0,0,1,3.422-2.852c2.225-.451,3.371,3.9,3.9,7.067a2.224,2.224,0,0,0,.063.382c.251,1.58.348,2.784.348,2.784,3.953-.274,5.636,5.464,5.425,8.4s1.141,2.96,1.141,2.96Z" transform="translate(-321.133 -306.315)" fill="#ffd6db"/>
    <path id="Path_221" data-name="Path 221" d="M704.455,681.971s1.232,2.122-1.671,5.134c-1.363,1.4-4.244.764-6.919-.308a26.151,26.151,0,0,1-8.556-5.653c-5.008-4.911-15.161-15.264-16.171-19.394-.57-2.384,1.437-3.046,4.29-2.9.245,2.407.861,5.7,2.367,7.455,2.567,2.977,9.9,13.005,19.063,13.119a14.26,14.26,0,0,1,7.94,2.282Z" transform="translate(-321.133 -309.853)" fill="#c8a9b4"/>
    <path id="Path_222" data-name="Path 222" d="M700.54,679.378s8.841-6.765,16.274-3.714C716.814,675.664,710.266,675.145,700.54,679.378Z" transform="translate(-333.806 -316.746)" opacity="0.1"/>
    <path id="Path_223" data-name="Path 223" d="M718.11,679.867s8.454,2.647,10.136,2.669S719.553,679.217,718.11,679.867Z" transform="translate(-341.354 -318.855)" opacity="0.1"/>
    <path id="Path_224" data-name="Path 224" d="M934.53,715.48S944.678,715.691,945,718s-3.787,2.168-3.787,2.168Z" transform="translate(-434.325 -334.19)" opacity="0.1"/>
    <path id="Path_225" data-name="Path 225" d="M944.643,758.852l.034.365s2.185.068,3.08,3.668c.422,1.711-1.415,3.577-3.491,5.134a23.325,23.325,0,0,1-8.311,3.839c-6.081,1.483-18.709,4.312-22.3,3.149-2.082-.679-1.631-2.521-.183-4.62a42.55,42.55,0,0,1,7.37-7.415c3.36-2.738,3.422-9.212,3.422-9.212s-2.983-2.715-1.894-5.664,9.782,1.54,9.782,1.54c1.654-3.126,6.794-1.711,8.921-.16s2.778.536,2.778.536Z" transform="translate(-424.748 -347.77)" fill="#ffd6db"/>
    <path id="Path_226" data-name="Path 226" d="M944.677,768.1s2.185.068,3.08,3.668c.422,1.711-1.415,3.576-3.491,5.134a23.323,23.323,0,0,1-8.311,3.839c-6.081,1.483-18.71,4.312-22.3,3.149-2.082-.679-1.631-2.521-.183-4.62,1.939.941,4.723,2.025,6.765,1.711,3.462-.57,14.517-1.392,18.926-8.277a12.749,12.749,0,0,1,5.482-4.94Z" transform="translate(-424.748 -356.649)" fill="#c8a9b4"/>
    <path id="Path_227" data-name="Path 227" d="M942.764,771.975s-.97-9.885,4.843-14.095C947.607,757.88,944.133,762.609,942.764,771.975Z" transform="translate(-437.837 -352.405)" opacity="0.1"/>
    <path id="Path_228" data-name="Path 228" d="M948.93,762.948s5.978-5.134,6.788-6.428S949.112,761.55,948.93,762.948Z" transform="translate(-440.511 -351.746)" opacity="0.1"/>
    <path id="Path_229" data-name="Path 229" d="M914.921,510.09s-7.706,3.993-13.313,2.413S914.921,510.09,914.921,510.09Z" transform="translate(-419.736 -245.957)" opacity="0.1"/>
    <path id="Path_230" data-name="Path 230" d="M922.433,524.16s-1.209,2.168-8.767,1.637S922.433,524.16,922.433,524.16Z" transform="translate(-424.504 -252.001)" opacity="0.1"/>
    <g id="Group_12" data-name="Group 12" transform="translate(443.91 153.571)" opacity="0.1">
      <path id="Path_231" data-name="Path 231" d="M887.54,346.883l.319-.445c.234-.337.456-.684.662-1.038A13.892,13.892,0,0,0,887.54,346.883Z" transform="translate(-858.049 -328.778)"/>
      <path id="Path_232" data-name="Path 232" d="M862.136,341.78c-1.5.2-2.852-1.015-3.479-2.35s-.787-2.852-1.369-4.193a2.031,2.031,0,0,0-1.01-1.169c-.924-.354-1.842.491-2.458,1.249s-1.512,1.609-2.447,1.278a2.355,2.355,0,0,1-1.141-1.2,12.422,12.422,0,0,1-2-5.47,25.7,25.7,0,0,0,0-2.886A6.152,6.152,0,0,0,845.274,323a38.1,38.1,0,0,0-4.706-2.282,6.355,6.355,0,0,1-2.213-1.506c-.57-.684-1.905-.61-1.552-1.42.262-.525.57-1.032.856-1.534a23.633,23.633,0,0,0-1.763,2.909c-.348.81.975.736,1.552,1.42a6.377,6.377,0,0,0,2.219,1.506,38.107,38.107,0,0,1,4.706,2.282,6.194,6.194,0,0,1,2.955,4.038,25.567,25.567,0,0,1-.028,2.881,12.53,12.53,0,0,0,2,5.476,2.39,2.39,0,0,0,1.141,1.2c.936.331,1.831-.519,2.447-1.278s1.534-1.6,2.458-1.249a2.03,2.03,0,0,1,1.01,1.169c.57,1.352.742,2.852,1.369,4.193s1.974,2.55,3.479,2.35a2.994,2.994,0,0,0,2.128-1.563,4.423,4.423,0,0,0,.24-.53,2.8,2.8,0,0,1-1.432.713Z" transform="translate(-835.839 -316.26)"/>
    </g>
    <path id="Path_233" data-name="Path 233" d="M848.73,370.714s6.565-.325,10.935-.177S870.5,367.16,870.5,367.16" transform="translate(-397.467 -184.555)" opacity="0.1"/>
    <path id="Path_234" data-name="Path 234" d="M274.8,388.861c-.662-3.365-6.885-2.824-11.408-1.957-.382.074-.753.148-1.107.228l.325-1.352-2.128-.878a55.99,55.99,0,0,0-13.028-3.611c-6.548-.981-16.93-3.086-23.313-7.164-5.8-3.708-8.128-4.78-9.748-5.778v-.873c0-1.654-.1-3.171-.222-4.523a19.07,19.07,0,0,0-.719-3.668c-1.358-4.5-4.415-5.944-7.478-8.761a28.042,28.042,0,0,0-6.748-4.7,18.061,18.061,0,0,1,1.3-4.324c.086-.211.177-.416.262-.627a.08.08,0,0,1,.04-.08c.091-.211.183-.422.274-.622a14.055,14.055,0,0,0,7.341-12.3,13.9,13.9,0,0,0-4.128-9.884q-.333-.327-.686-.635l.662-.217c1.409-.5,2.943-1.882,2.533-3.057h-.205a1.178,1.178,0,0,0-.057-.245,2.853,2.853,0,0,1-1.711-.645c-.656-.81-.856-2.025-2.059-3.16a5.62,5.62,0,0,0-.9-.776,7.9,7.9,0,0,0-2.9-1.2c.086.057.177.1.262.165l.177.137c-2.39-.57-5.088-.485-7.358-1.46a10.664,10.664,0,0,1-1.569-.861l.3.08c-1.226-.707-2.327-1.614-3.6-2.282a9.929,9.929,0,0,0-2.219-.8l.57.337a13.267,13.267,0,0,0-9.88,1.586,21.787,21.787,0,0,0-7.843,8.864,37.8,37.8,0,0,0-4.392,19.035c.114,3.194.627,6.508-.57,9.509-.993,2.51-3.074,4.506-4.318,6.913-4.8,9.309,4.039,21.4-1.375,30.4-1.956,3.257-5.459,5.413-7.843,8.408s-3.246,7.837-.068,10.085c2.282,1.62,5.527,1.1,8.248,1.917a13.12,13.12,0,0,1-3.884,7.347l-.445-.086c-.1.1-.2.2-.308.291l.422.108-.16.154a43.73,43.73,0,0,0,9.127,1.62c2.744.194,5.647.091,8.031-1.209a10.838,10.838,0,0,0,3.137-2.681c0,.57.04,1.072.074,1.591a30.922,30.922,0,0,0,.89,6.223c2.641,9.577-5.7,17.084-5.7,17.084a27.568,27.568,0,0,0-2.795,13.4h0a27.912,27.912,0,0,0,1.711,8.2c.08.211.154.416.234.616.154.4.319.787.479,1.141.245.57.491,1.067.736,1.534.16.319.319.616.473.89a20.668,20.668,0,0,0,1.837,2.812q1.266-.861,2.533-1.626v1.021c.046,3.531-.308,7.986-.308,7.986s-2.647,9.452-2.909,12.173-1.283,19.548-1.283,19.548S165.825,509.1,159.22,515.7s-5.134,25.5-5.134,25.5-4.626,15.92-3.04,16.7a1.615,1.615,0,0,0,.793.046v.645c-2.852,1.979-5.02,3.582-5.02,3.582s-.793,13.074-1.854,15.6,1.323,5.5,1.323,5.5,23.529-.65,25.577-.781a33.488,33.488,0,0,0,7.324-2.521c2.789-.622,11.209-3.9,14.26-6.953a4.466,4.466,0,0,0,1.072-1.449c1.455-3.628-11.7-.907-15.27-.907s-3.964-2.721-5.619-4.791-.462-5.5-.462-5.5l-.342-9.7,1.569-.633s2.116-8.288,5.55-12.3,9.52-19.291,9.651-20.067.262-2.2,2.772-5.7,4.974-10.986,4.974-10.986,5.7-17.865,10.045-27.055c2.664-5.619,4.147-15.572,4.894-22.474a22.519,22.519,0,0,1,2.419.81s1.221-7.82,1.711-16.747a95.576,95.576,0,0,0-.108-13.69c-.7-7.415-5.025-21.773-4.769-35.132,1.044.673,2.059,1.312,2.972,1.882,0-.337.04-.667.063-1,2.339,1.455,4.027,2.453,4.027,2.453s14.009,7.763,26.3,7.894,14.409,1.552,14.409,1.552l.776-3.206,1.1-.205C266.365,395.079,275.555,392.723,274.8,388.861Z" transform="translate(-95.019 -157.002)" fill="url(#linear-gradient-2)"/>
    <path id="Path_235" data-name="Path 235" d="M255.669,323.013l-.639-.473a1.364,1.364,0,0,1,.262.451Z" transform="translate(-142.419 -165.387)" fill="url(#linear-gradient-3)"/>
    <path id="Path_236" data-name="Path 236" d="M253.239,321.856h.382l-.359-.268h.1l-.639-.468a1.363,1.363,0,0,1,.257.445h.143A1.255,1.255,0,0,1,253.239,321.856Z" transform="translate(-141.427 -164.777)" fill="url(#linear-gradient-4)"/>
    <rect id="Rectangle_51" data-name="Rectangle 51" width="10.17" height="15.875" transform="translate(84.079 180.489)" fill="#965d7b"/>
    <rect id="Rectangle_52" data-name="Rectangle 52" width="10.17" height="15.875" transform="translate(84.079 180.489)" opacity="0.1"/>
    <rect id="Rectangle_53" data-name="Rectangle 53" width="9.246" height="12.458" transform="translate(67.663 405.829) rotate(180)" fill="#e8f4ff"/>
    <path id="Path_237" data-name="Path 237" d="M206.747,363.5c2.481.947,5.276,5.961,5.413,10.148.057,1.888-2.162,5.094-2.162,5.094l2.282-.268c1.169-.154,2.687-.359,4.3-.6,1.346-.205,2.755-.434,4.078-.679,3.633-.673,6.605-1.477,5.79-2.219a2.25,2.25,0,0,1-.394-1.928,18.5,18.5,0,0,1,1.266-4.289c.177-.451.371-.9.57-1.318.839-1.917,1.648-3.422,1.648-3.422s-7.763-.57-14.26-.838c-2.219-.1-4.3-.16-5.881-.165h-.622C206.8,363.008,205.857,363.168,206.747,363.5Z" transform="translate(-121.533 -182.776)" fill="#ffc1c7"/>
    <path id="Path_238" data-name="Path 238" d="M223.509,551.21s-1.141,20.677-5.39,29.792-9.76,26.843-9.76,26.843-2.441,7.45-4.883,10.918-2.567,4.883-2.7,5.653-6.035,15.926-9.378,19.907-5.39,12.2-5.39,12.2-14.642,6.16-16.183,5.39,2.955-16.542,2.955-16.542-1.415-18.755,5.008-25.3,9.891-17.335,9.891-17.335,1.027-16.7,1.283-19.394,2.824-12.076,2.824-12.076.77-9.891-.125-11.813S223.509,551.21,223.509,551.21Z" transform="translate(-105.679 -263.621)" fill="#575a89"/>
    <path id="Path_239" data-name="Path 239" d="M223.509,551.21s-1.141,20.677-5.39,29.792-9.76,26.843-9.76,26.843-2.441,7.45-4.883,10.918-2.567,4.883-2.7,5.653-6.035,15.926-9.378,19.907-5.39,12.2-5.39,12.2-14.642,6.16-16.183,5.39,2.955-16.542,2.955-16.542-1.415-18.755,5.008-25.3,9.891-17.335,9.891-17.335,1.027-16.7,1.283-19.394,2.824-12.076,2.824-12.076.77-9.891-.125-11.813S223.509,551.21,223.509,551.21Z" transform="translate(-105.679 -263.621)" opacity="0.05"/>
    <path id="Path_240" data-name="Path 240" d="M179.95,734.136l.388,11.106s-1.141,3.422.445,5.459,1.991,4.752,5.459,4.752,16.251-2.7,14.831.9-13.422,8.22-15.4,8.345-24.836.77-24.836.77-2.31-2.949-1.283-5.453,1.8-15.481,1.8-15.481S179.18,731,179.95,734.136Z" transform="translate(-101.29 -342.002)" fill="#444053"/>
    <path id="Path_241" data-name="Path 241" d="M180.115,733.963l.382,11.112s-1.141,3.422.451,5.453,1.991,4.757,5.459,4.757,16.245-2.7,14.831.9-13.422,8.22-15.4,8.351-24.853.77-24.853.77-2.282-2.955-1.283-5.459,1.774-15.475,1.774-15.475S179.345,730.814,180.115,733.963Z" transform="translate(-101.357 -341.926)" opacity="0.05"/>
    <path id="Path_242" data-name="Path 242" d="M158.423,666.1c1.54.77,16.165-5.419,16.165-5.419s2.053-8.22,5.4-12.2,9.246-19.137,9.372-19.907.257-2.185,2.7-5.653,4.883-10.918,4.883-10.918,5.522-17.723,9.76-26.838c2.943-6.332,4.4-18.253,5.02-24.921.268-2.943.376-4.877.376-4.877s-32.753,6.275-31.852,8.22a12.388,12.388,0,0,1,.428,3.9c.046,3.5-.3,7.917-.3,7.917s-2.567,9.378-2.824,12.076-1.283,19.394-1.283,19.394-3.468,10.786-9.891,17.335-5.008,25.3-5.008,25.3S156.905,665.334,158.423,666.1Z" transform="translate(-100.782 -265.408)" fill="#575a89"/>
    <path id="Path_243" data-name="Path 243" d="M212,593.362s-6.68-1.8-8.99.257S212,593.362,212,593.362Z" transform="translate(-119.936 -281.417)" opacity="0.1"/>
    <path id="Path_244" data-name="Path 244" d="M210.75,608.193s-10.535-2.282-10.661,1.027S210.75,608.193,210.75,608.193Z" transform="translate(-118.816 -287.771)" opacity="0.1"/>
    <path id="Path_245" data-name="Path 245" d="M206.6,625s-3.622,3.074-5.9,2.048S206.6,625,206.6,625Z" transform="translate(-118.906 -295.321)" opacity="0.1"/>
    <path id="Path_246" data-name="Path 246" d="M194.24,654.25s7.318,2.7,5.647,5.527-2.955,3.211-3.594,2.436S194.24,654.25,194.24,654.25Z" transform="translate(-116.304 -307.886)" opacity="0.1"/>
    <path id="Path_247" data-name="Path 247" d="M168.531,738.333l.388,11.112s-1.141,3.422.451,5.453,1.991,4.757,5.459,4.757,16.245-2.7,14.831.9-13.422,8.22-15.4,8.351-24.853.77-24.853.77-2.31-2.955-1.283-5.459,1.8-15.475,1.8-15.475S167.761,735.184,168.531,738.333Z" transform="translate(-96.379 -343.804)" fill="#444053"/>
    <path id="Path_248" data-name="Path 248" d="M170.728,764.135s-.319,2.185-7.193.063S170.728,764.135,170.728,764.135Z" transform="translate(-102.301 -354.706)" opacity="0.1"/>
    <path id="Path_249" data-name="Path 249" d="M155.469,767.62s-1.54,2.122,3.919,3.086S155.469,767.62,155.469,767.62Z" transform="translate(-99.562 -356.589)" opacity="0.1"/>
    <path id="Path_250" data-name="Path 250" d="M158.21,764.69s5.4,4.689,7.062,4.689" transform="translate(-100.826 -355.33)" opacity="0.1"/>
    <path id="Path_251" data-name="Path 251" d="M210.47,363c2.384,4.324,6.754,3.576,12.275,7.256,1.882,1.261,4.415-.536,6.309-1.506,1-2.487,2.207-4.746,2.207-4.746S216.328,362.947,210.47,363Z" transform="translate(-123.276 -182.767)" opacity="0.1"/>
    <path id="Path_252" data-name="Path 252" d="M207.45,338.848a13.935,13.935,0,1,0,4.083-9.919A14,14,0,0,0,207.45,338.848Z" transform="translate(-121.979 -166.379)" fill="#ffc1c7"/>
    <path id="Path_253" data-name="Path 253" d="M196.926,563.63a12.39,12.39,0,0,1,.428,3.9c12.3-7.632,23.666-8.151,31.047-7.239.268-2.943.376-4.877.376-4.877S196.025,561.7,196.926,563.63Z" transform="translate(-117.45 -265.426)" opacity="0.1"/>
    <path id="Path_254" data-name="Path 254" d="M184.047,476.666a28.155,28.155,0,0,0,5.282,15.087c22.246-15.4,42.13-6.8,42.13-6.8s1.181-7.758,1.643-16.616a98.452,98.452,0,0,0-.1-13.57c-.724-7.82-5.436-23.438-4.535-37.373.4-6.132,2.778-11.847,2.692-16.576,0-1.637-.091-3.143-.211-4.483a19.114,19.114,0,0,0-.7-3.639c-1.312-4.472-4.289-5.9-7.261-8.693a27.185,27.185,0,0,0-6.56-4.666c-4.826-2.356-9.7-2.356-13.884.6a16.393,16.393,0,0,0-2.19,1.865,20.745,20.745,0,0,0-2.333,2.852c-.12.165-.228.337-.337.5a18.019,18.019,0,0,0-1.711,4.871c-1.934,8.128-3.057,22.1-3.057,22.1s-2.185,16.878-1.506,28.115a31.505,31.505,0,0,0,.861,6.177c2.573,9.5-5.522,16.953-5.522,16.953A27.8,27.8,0,0,0,184.047,476.666Z" transform="translate(-111.913 -189.054)" fill="#ff6584"/>
    <path id="Path_255" data-name="Path 255" d="M340.59,461.27s1.352-.194,3.274-.57c5.025-1,13.981-3.343,13.239-7.17-.639-3.337-6.685-2.8-11.083-1.939a45.951,45.951,0,0,0-4.615,1.141Z" transform="translate(-179.175 -220.546)" fill="#ffc1c7"/>
    <path id="Path_256" data-name="Path 256" d="M222.849,412.019c2.7,2.053,9.378,7.706,14.511,11.688,2.892,2.242,6.925,4.888,9.9,6.782.4-6.138.679-11.979.6-16.685-2.019-1.631-2.692-3.753-5.738-7.307-5.4-6.275-15.03-8.476-15.03-8.476C220.682,396.607,220.168,409.943,222.849,412.019Z" transform="translate(-127.938 -197.768)" opacity="0.1"/>
    <path id="Path_257" data-name="Path 257" d="M340.59,461.747s1.352-.194,3.274-.57l2.156-9.127a45.951,45.951,0,0,0-4.615,1.141Z" transform="translate(-179.175 -221.023)" opacity="0.1"/>
    <path id="Path_258" data-name="Path 258" d="M227.094,396.221s9.634,2.179,15.03,8.476,3.422,3.422,14.511,10.661c6.2,4.044,16.285,6.132,22.651,7.1a53.79,53.79,0,0,1,12.657,3.588l2.065.867L290.8,440.542s-2.053-1.415-14-1.54-25.56-7.837-25.56-7.837-8.733-5.265-13.872-9.246-11.813-9.646-14.528-11.7S220.671,394.807,227.094,396.221Z" transform="translate(-127.927 -196.995)" fill="#e8f4ff"/>
    <path id="Path_259" data-name="Path 259" d="M205,391.827c1.871,1.141,4.135.673,6.845-2.687,7.29-9.092,19.394-.034,27.425,5.35-1.312-4.466-4.289-5.9-7.261-8.693-8.613-8.094-18.253-9.092-24.967.656-.12.165-.228.336-.337.5A17.109,17.109,0,0,0,205,391.827Z" transform="translate(-120.927 -189.828)" opacity="0.1"/>
    <path id="Path_260" data-name="Path 260" d="M205,390.026c1.871,1.141,4.135.673,6.845-2.687a3.146,3.146,0,0,1,.211-.257,9.96,9.96,0,0,1,3.919-2.926,9.7,9.7,0,0,1,4.078-.679c6.429.205,13.77,5.556,19.217,9.212-1.312-4.472-4.289-5.9-7.261-8.693a27.185,27.185,0,0,0-6.56-4.666c-4.826-2.356-9.7-2.356-13.884.6a16.4,16.4,0,0,0-2.19,1.865,20.74,20.74,0,0,0-2.333,2.852c-.12.165-.228.337-.337.5A17.228,17.228,0,0,0,205,390.026Z" transform="translate(-120.927 -189.054)" fill="#ff6584"/>
    <path id="Path_261" data-name="Path 261" d="M184.07,543.166a28.155,28.155,0,0,0,5.282,15.087c22.246-15.4,42.13-6.8,42.13-6.8s1.181-7.758,1.643-16.616c-8.471-.074-32.593.125-40.687,4.563A53.711,53.711,0,0,1,184.07,543.166Z" transform="translate(-111.935 -256.581)" opacity="0.1"/>
    <path id="Path_262" data-name="Path 262" d="M184.07,544.966a28.156,28.156,0,0,0,5.282,15.087c22.246-15.4,42.13-6.8,42.13-6.8s1.181-7.758,1.643-16.616c-8.471-.074-32.593.125-40.687,4.563A53.694,53.694,0,0,1,184.07,544.966Z" transform="translate(-111.935 -257.354)" fill="#e8f4ff"/>
    <path id="Path_263" data-name="Path 263" d="M255.762,326l-.622-.468a1.362,1.362,0,0,1,.257.445Z" transform="translate(-142.466 -166.671)" opacity="0.1"/>
    <path id="Path_264" data-name="Path 264" d="M196.9,417.533a16.836,16.836,0,0,0,2.048-2.538c5.373-7.94,6.474-18.1,4.392-27.38-.462-2.059-1.067-4.238-.325-6.223,1.015-2.727,4.21-4.147,5.664-6.679,1.774-3.1.542-6.845-.171-10.347a2.012,2.012,0,0,0-.08-.411c-.126-.633-.222-1.278-.3-1.917a26.6,26.6,0,0,1,1.186-11.437c.063-.188.125-.376.194-.57a17.326,17.326,0,0,1,1.574-3.3,9.521,9.521,0,0,1,5.579-4.495,4.4,4.4,0,0,0,1.922-.719c1.443-1.261-.2-3.422-.525-5.282-.4-2.179,1.3-4.255,3.308-5.339a30.352,30.352,0,0,1,5.476-1.905,14,14,0,0,0-21.641,17.591h-.622c-1.922,0-2.852.154-1.979.491,2.481.947,3.086,7.826,3.223,12.013a20.743,20.743,0,0,0-2.333,2.852c-.12.165-.228.337-.337.5a18.019,18.019,0,0,0-1.711,4.871c-1.934,8.128-3.057,22.1-3.057,22.1S196.222,406.3,196.9,417.533Z" transform="translate(-117.391 -166.348)" opacity="0.1"/>
    <path id="Path_265" data-name="Path 265" d="M209.883,316.708c1.044,1.238-.662,2.909-2.213,3.468-2.15.781-4.472,1.141-6.48,2.242s-3.7,3.16-3.314,5.339c.337,1.854,1.974,3.993.53,5.282a4.483,4.483,0,0,1-1.922.724c-3.628.924-5.927,4.375-7.153,7.792a26.444,26.444,0,0,0-1.084,13.912c.69,3.611,2.093,7.541.251,10.758-1.455,2.538-4.649,3.953-5.664,6.68-.742,1.985-.137,4.164.325,6.223,2.082,9.263.981,19.428-4.392,27.38a12.606,12.606,0,0,1-4.141,4.141c-2.316,1.283-5.134,1.386-7.8,1.2a41.851,41.851,0,0,1-8.876-1.614,13.119,13.119,0,0,0,4.255-7.752c-2.647-.821-5.79-.3-8.014-1.905-3.086-2.225-2.253-7.033.063-10s5.7-5.134,7.626-8.339c5.253-8.933-3.331-20.934,1.329-30.163,1.209-2.4,3.234-4.375,4.2-6.845,1.141-2.978.656-6.274.542-9.435a38.183,38.183,0,0,1,4.272-18.886,21.443,21.443,0,0,1,7.615-8.79c3.405-2.048,7.934-2.669,11.465-.833,1.563.81,2.852,2.042,4.478,2.749,3.114,1.363,7.062.628,9.8,2.6s1.489,4.495,4.928,4.563" transform="translate(-98.235 -158.362)" fill="#965d7b"/>
    <path id="Path_266" data-name="Path 266" d="M220.146,495c-1.335.667-3.993,6.685-10.028,11.032S220.146,495,220.146,495Z" transform="translate(-122.543 -239.474)" opacity="0.1"/>
    <path id="Path_267" data-name="Path 267" d="M219.378,473.9s-7.689,16.046-16.713,18.384S219.378,473.9,219.378,473.9Z" transform="translate(-119.099 -230.41)" opacity="0.1"/>
    <path id="Path_268" data-name="Path 268" d="M256.732,542.2s-2.567,8.048-2.053,8.733S256.732,542.2,256.732,542.2Z" transform="translate(-142.239 -259.751)" opacity="0.1"/>
    <path id="Path_269" data-name="Path 269" d="M248.022,542.8s-2.567,8.049-2.053,8.733S248.022,542.8,248.022,542.8Z" transform="translate(-138.497 -260.008)" opacity="0.1"/>
    <path id="Path_270" data-name="Path 270" d="M238.118,542.5s-2.573,8.048-2.059,8.733S238.118,542.5,238.118,542.5Z" transform="translate(-134.24 -259.88)" opacity="0.1"/>
    <path id="Path_271" data-name="Path 271" d="M191.63,553.67s1.648,8.282,2.43,8.636S191.63,553.67,191.63,553.67Z" transform="translate(-115.183 -264.678)" opacity="0.1"/>
    <path id="Path_272" data-name="Path 272" d="M208.44,547.36s1.648,8.288,2.43,8.636S208.44,547.36,208.44,547.36Z" transform="translate(-122.404 -261.967)" opacity="0.1"/>
    <path id="Path_273" data-name="Path 273" d="M198.84,551.57s1.648,8.282,2.43,8.636S198.84,551.57,198.84,551.57Z" transform="translate(-118.28 -263.776)" opacity="0.1"/>
    <path id="Path_274" data-name="Path 274" d="M280,437.58c-.428.086,1.283,4.193-3.6,4.449S280,437.58,280,437.58Z" transform="translate(-150.948 -214.807)" opacity="0.1"/>
    <path id="Path_275" data-name="Path 275" d="M337.068,455.74s-1.882,3.936-4.968,4.706S337.068,455.74,337.068,455.74Z" transform="translate(-175.225 -222.608)" opacity="0.1"/>
    <path id="Path_276" data-name="Path 276" d="M312.5,451.39s4.113,4.278-1.626,5.219S312.5,451.39,312.5,451.39Z" transform="translate(-165.468 -220.74)" opacity="0.1"/>
    <path id="Path_277" data-name="Path 277" d="M250.8,421.531s-8.391-2.573-9.7-.69S250.8,421.531,250.8,421.531Z" transform="translate(-136.388 -207.32)" opacity="0.1"/>
    <path id="Path_278" data-name="Path 278" d="M223.851,441c-1.34.667-3.993,6.685-10.034,11.032S223.851,441,223.851,441Z" transform="translate(-124.131 -216.276)" opacity="0.1"/>
    <g id="Group_13" data-name="Group 13" transform="translate(55.724 147.838)" opacity="0.1">
      <path id="Path_279" data-name="Path 279" d="M220.6,308.731a40.493,40.493,0,0,1-4.067-2.521,9.43,9.43,0,0,1,2.156.8c1.232.639,2.31,1.54,3.5,2.242a9.552,9.552,0,0,1-1.586-.519Z" transform="translate(-181.604 -306.21)"/>
      <path id="Path_280" data-name="Path 280" d="M253.532,324.648l-.371-.028a1.381,1.381,0,0,0-.251-.439Z" transform="translate(-197.232 -313.93)"/>
      <path id="Path_281" data-name="Path 281" d="M160.719,472.1c-.029.177-.074.354-.108.536-1.9-.211-3.81-.325-5.31-1.392A54.347,54.347,0,0,1,160.719,472.1Z" transform="translate(-155.3 -377.105)"/>
      <path id="Path_282" data-name="Path 282" d="M168.17,414.262c2.664.194,5.487.091,7.8-1.2a12.589,12.589,0,0,0,4.141-4.135c5.373-7.946,6.474-18.111,4.392-27.38-.462-2.059-1.067-4.244-.331-6.223,1.021-2.727,4.215-4.147,5.67-6.679,1.842-3.217.439-7.147-.257-10.758a26.5,26.5,0,0,1,1.084-13.912c1.226-3.422,3.525-6.845,7.159-7.8a4.506,4.506,0,0,0,1.922-.719c1.437-1.266-.2-3.422-.531-5.282-.394-2.179,1.306-4.261,3.308-5.339s4.329-1.46,6.48-2.242c1.375-.5,2.852-1.865,2.47-3.029l.365.029-.616-.468a1.363,1.363,0,0,1,.251.439c-2.966-.257-1.911-2.641-4.563-4.563l-.257-.165a7.745,7.745,0,0,1,2.852,1.192c2.647,1.905,1.591,4.3,4.563,4.563.4,1.141-1.1,2.533-2.464,3.029-2.15.781-4.472,1.141-6.48,2.242s-3.7,3.16-3.314,5.339c.337,1.854,1.974,3.993.53,5.282a4.483,4.483,0,0,1-1.922.724c-3.628.924-5.927,4.375-7.153,7.792a26.5,26.5,0,0,0-1.089,13.924c.7,3.611,2.1,7.541.257,10.758-1.455,2.538-4.649,3.953-5.664,6.68-.742,1.985-.137,4.164.325,6.223,2.082,9.263.981,19.428-4.392,27.38a12.658,12.658,0,0,1-4.141,4.141c-2.316,1.283-5.134,1.386-7.8,1.2a41.859,41.859,0,0,1-8.876-1.614c.108-.091.2-.194.3-.291A40.866,40.866,0,0,0,168.17,414.262Z" transform="translate(-158.131 -309.917)"/>
    </g>
    <path id="Path_283" data-name="Path 283" d="M837.475,110.733s-48.023-2.892-42.364,30.762c0,0-1.141,5.949,4.267,8.647,0,0,.085-2.493,4.928-1.648a22.173,22.173,0,0,0,5.214.251,10.837,10.837,0,0,0,6.383-2.635h0s13.5-5.573,18.749-27.642c0,0,3.885-4.809,3.73-6.046l-8.105,3.457s2.772,5.852.57,10.707c0,0-.262-10.49-1.82-10.267-.319.051-4.215,2.025-4.215,2.025s4.769,10.188,1.141,17.591c0,0,1.369-12.549-2.652-16.856l-5.7,3.331s5.573,10.524,1.8,19.1c0,0,.97-13.165-2.995-18.287l-5.168,4.033s5.293,10.41,2.088,17.506c0,0-.416-15.327-3.166-16.485,0,0-4.518,3.993-5.208,5.63,0,0,3.582,7.524,1.358,11.5,0,0-1.363-10.216-2.481-10.267,0,0-4.506,6.765-4.974,11.408,0,0,.194-6.9,3.884-12.053,0,0-4.358.747-6.9,3.576,0,0,.7-4.786,7.986-5.2,0,0,3.719-5.134,4.717-5.442,0,0-7.273-.61-11.682,1.346,0,0,3.885-4.512,13.017-2.464L815,122.147s-9.577-1.312-13.633.137c0,0,4.672-3.993,15.008-1.084l5.556-3.325s-8.162-1.757-13.022-1.141c0,0,5.134-2.766,14.648.234l3.993-1.785s-5.978-1.175-7.729-1.358-1.848-.667-1.848-.667a20.689,20.689,0,0,1,11.237,1.249S837.629,111.269,837.475,110.733Z" transform="translate(-374.233 -74.37)" fill="#ffcc75"/>
    <path id="Path_284" data-name="Path 284" d="M768.8,84.529s-21.676-1.312-19.143,13.9a3.71,3.71,0,0,0,1.928,3.907s.04-1.141,2.225-.742a10.034,10.034,0,0,0,2.361.114,4.923,4.923,0,0,0,2.852-1.192h0s6.1-2.521,8.471-12.492c0,0,1.757-2.173,1.711-2.732l-3.662,1.563s1.249,2.647.268,4.837c0,0-.12-4.74-.821-4.626-.148,0-1.905.913-1.905.913s2.15,4.6.531,7.946c0,0,.616-5.67-1.2-7.609l-2.578,1.5s2.515,4.757.81,8.636c0,0,.439-5.949-1.352-8.265L756.956,92s2.361,4.683.918,7.9c0,0-.188-6.925-1.426-7.415a14.224,14.224,0,0,0-2.356,2.538s1.62,3.422.616,5.2c0,0-.616-4.615-1.141-4.632,0,0-2.036,3.057-2.247,5.134a11.084,11.084,0,0,1,1.757-5.447,6.116,6.116,0,0,0-3.12,1.614s.319-2.162,3.622-2.35a14.231,14.231,0,0,1,2.133-2.458,13.407,13.407,0,0,0-5.282.61s1.757-2.042,5.881-1.141l2.31-1.882s-4.329-.57-6.16.063c0,0,2.11-1.808,6.776-.491l2.515-1.506a22.857,22.857,0,0,0-5.887-.508s2.316-1.249,6.622.108l1.791-.81s-2.7-.53-3.491-.61-.833-.3-.833-.3a9.349,9.349,0,0,1,5.077.57S768.866,84.785,768.8,84.529Z" transform="translate(-354.817 -63.127)" fill="#ffcc75"/>
    <ellipse id="Ellipse_31" data-name="Ellipse 31" cx="15.361" cy="2.595" rx="15.361" ry="2.595" transform="translate(588.048 408.093)" fill="#ffcc75" opacity="0.1"/>
    <ellipse id="Ellipse_32" data-name="Ellipse 32" cx="15.361" cy="2.595" rx="15.361" ry="2.595" transform="translate(2.625 451.268)" fill="#ffcc75" opacity="0.1"/>
    <ellipse id="Ellipse_33" data-name="Ellipse 33" cx="15.361" cy="2.595" rx="15.361" ry="2.595" transform="translate(91.797 454.519)" fill="#ffcc75" opacity="0.1"/>
    <ellipse id="Ellipse_34" data-name="Ellipse 34" cx="22.936" cy="3.879" rx="22.936" ry="3.879" transform="translate(546.853 434.623)" fill="#ffcc75"/>
    <path id="Path_285" data-name="Path 285" d="M1057.166,796.7a6.685,6.685,0,0,0,2.185-3.3,2.934,2.934,0,0,0-1.529-3.365c-1.4-.536-2.9.439-4.038,1.42s-2.441,2.1-3.93,1.894a5.978,5.978,0,0,0,1.854-5.6,2.357,2.357,0,0,0-.519-1.141c-.776-.833-2.19-.473-3.12.183-2.966,2.082-3.793,6.115-3.81,9.737a18.679,18.679,0,0,1-.057-3.993c-.011-1.323-.371-2.852-1.506-3.548a4.563,4.563,0,0,0-2.282-.57,4.732,4.732,0,0,0-3.725,1.061c-1.141,1.209-.839,3.24.143,4.563a14.522,14.522,0,0,0,3.862,3.092,8.557,8.557,0,0,1,2.755,2.63,2.381,2.381,0,0,1,.205.474h8.362A23.521,23.521,0,0,0,1057.166,796.7Z" transform="translate(-477.896 -364.54)" fill="#ffcc75"/>
    <path id="Path_286" data-name="Path 286" d="M95.2,720.81s3.132,4.1-1.443,10.267-8.357,11.408-6.845,15.264c0,0,6.913-11.488,12.549-11.648S101.392,727.718,95.2,720.81Z" transform="translate(-70.053 -336.48)" fill="#ffcc75"/>
    <path id="Path_287" data-name="Path 287" d="M95.342,720.81a4.922,4.922,0,0,1,.639,1.283c5.487,6.446,8.414,12.463,3.137,12.617-4.911.137-10.809,8.927-12.218,11.146.046.165.1.337.165.5,0,0,6.913-11.488,12.549-11.648S101.531,727.718,95.342,720.81Z" transform="translate(-70.192 -336.48)" opacity="0.1"/>
    <path id="Path_288" data-name="Path 288" d="M111.369,729.3c0,1.443-.16,2.612-.359,2.612s-.359-1.141-.359-2.612.2-.759.4-.759S111.369,727.833,111.369,729.3Z" transform="translate(-80.395 -339.726)" fill="#ffd037"/>
    <path id="Path_289" data-name="Path 289" d="M113.555,732.257c-1.266.69-2.373,1.107-2.47.935s.856-.878,2.122-1.569.77-.188.861,0S114.821,731.556,113.555,732.257Z" transform="translate(-80.579 -340.974)" fill="#ffd037"/>
    <path id="Path_290" data-name="Path 290" d="M67.381,720.81s-3.132,4.1,1.449,10.267,8.357,11.408,6.845,15.264c0,0-6.908-11.488-12.549-11.648S61.2,727.718,67.381,720.81Z" transform="translate(-58.784 -336.48)" fill="#ffcc75"/>
    <path id="Path_291" data-name="Path 291" d="M67.371,720.81a5.134,5.134,0,0,0-.639,1.283c-5.487,6.446-8.408,12.463-3.137,12.617,4.917.137,10.838,8.927,12.224,11.146-.051.165-.1.337-.171.5,0,0-6.908-11.488-12.549-11.648S61.188,727.718,67.371,720.81Z" transform="translate(-58.775 -336.48)" opacity="0.1"/>
    <path id="Path_292" data-name="Path 292" d="M62.47,729.3c0,1.443.16,2.612.365,2.612s.359-1.141.359-2.612-.205-.759-.4-.759S62.47,727.833,62.47,729.3Z" transform="translate(-59.697 -339.726)" fill="#ffd037"/>
    <path id="Path_293" data-name="Path 293" d="M58.414,732.257c1.266.69,2.367,1.107,2.464.935s-.856-.878-2.122-1.569-.764-.188-.861,0S57.13,731.556,58.414,732.257Z" transform="translate(-57.62 -340.974)" fill="#ffd037"/>
    <path id="Path_294" data-name="Path 294" d="M64.22,761.1s8.762-.268,11.408-2.151,13.473-4.124,14.135-1.078,13.171,15,3.274,15.076-22.982-1.54-25.617-3.149S64.22,761.1,64.22,761.1Z" transform="translate(-60.449 -351.758)" fill="#a8a8a8"/>
    <path id="Path_295" data-name="Path 295" d="M93.173,775.421c-9.891.08-22.982-1.54-25.617-3.149-2.008-1.221-2.806-5.607-3.075-7.632H64.19s.57,7.067,3.189,8.67S83.1,776.539,93,776.459c2.852,0,3.845-1.038,3.788-2.544C96.407,774.833,95.317,775.4,93.173,775.421Z" transform="translate(-60.436 -355.309)" opacity="0.2"/>
  </g>
</svg>
