<svg xmlns="http://www.w3.org/2000/svg" width="75.069" height="64.201" viewBox="0 0 75.069 64.201">
  <g id="Group_23" data-name="Group 23" transform="translate(0 -19.968)">
    <g id="drop" transform="translate(16.682 20.726)">
      <path id="Path_3" data-name="Path 3" d="M115.2,37.587a20.8,20.8,0,0,1-41.6,0C73.6,26.031,94.4,0,94.4,0S115.2,26.153,115.2,37.587Z" transform="translate(-73.6)" fill="#ffcc75"/>
    </g>
    <g id="drop-2" data-name="drop" transform="translate(0 23.254)">
      <path id="Path_3-2" data-name="Path 3" d="M115.2,37.587a20.8,20.8,0,0,1-41.6,0C73.6,26.031,94.4,0,94.4,0S115.2,26.153,115.2,37.587Z" transform="translate(-73.6 0)" fill="#1d68b3"/>
      <path id="Path_4" data-name="Path 4" d="M15.327,17.151A15.34,15.34,0,0,1,0,1.825,1.871,1.871,0,0,1,1.825,0,1.871,1.871,0,0,1,3.649,1.825,11.681,11.681,0,0,0,15.327,13.5a1.825,1.825,0,0,1,0,3.649Z" transform="translate(18.149 52.636) rotate(-79)" fill="#fff"/>
    </g>
    <g id="drop-3" data-name="drop" transform="translate(30.331 25.781)">
      <path id="Path_3-3" data-name="Path 3" d="M115.2,37.587a20.8,20.8,0,0,1-41.6,0C73.6,26.031,94.4,0,94.4,0S115.2,26.153,115.2,37.587Z" transform="translate(-73.6)" fill="#8cc6ff"/>
      <path id="Path_4-2" data-name="Path 4" d="M15.327,17.151A15.34,15.34,0,0,1,0,1.825,1.871,1.871,0,0,1,1.825,0,1.871,1.871,0,0,1,3.649,1.825,11.681,11.681,0,0,0,15.327,13.5a1.825,1.825,0,0,1,0,3.649Z" transform="translate(20.639 52.408) rotate(-90)" fill="#fff"/>
    </g>
    <path id="Subtraction_2" data-name="Subtraction 2" d="M13.568,16.268a.686.686,0,0,1-.685-.685V12.091a.685.685,0,1,1,1.37,0v3.493A.686.686,0,0,1,13.568,16.268ZM3.71,11.222a.709.709,0,0,1-.176-.023.685.685,0,0,1-.305-1.148L5.657,7.62a.685.685,0,0,1,.969.968L4.2,11.019A.682.682,0,0,1,3.71,11.222Zm10.7-2.278h0A8.937,8.937,0,0,1,7.165.173q0-.087,0-.173h7.241V8.943ZM4.178,1.363H.685A.685.685,0,0,1,.586,0H4.277a.685.685,0,0,1-.1,1.363Z" transform="translate(60.662 19.968)" fill="#ffc25c"/>
  </g>
</svg>
