<svg xmlns="http://www.w3.org/2000/svg" width="458.399" height="379.5" viewBox="0 0 458.399 379.5">
  <g id="undraw_map_1r69" transform="translate(0.183)">
    <ellipse id="Ellipse_65" data-name="Ellipse 65" cx="9.916" cy="24.074" rx="9.916" ry="24.074" transform="translate(407.082 345.455) rotate(-45)" fill="#ffcc75" opacity="0.1"/>
    <ellipse id="Ellipse_66" data-name="Ellipse 66" cx="5.323" cy="6.97" rx="5.323" ry="6.97" transform="translate(427.495 343.098)" fill="#3f3d56"/>
    <ellipse id="Ellipse_67" data-name="Ellipse 67" cx="5.323" cy="6.97" rx="5.323" ry="6.97" transform="translate(427.495 334.581)" fill="#3f3d56"/>
    <ellipse id="Ellipse_68" data-name="Ellipse 68" cx="5.323" cy="6.97" rx="5.323" ry="6.97" transform="translate(427.495 326.064)" fill="#3f3d56"/>
    <ellipse id="Ellipse_69" data-name="Ellipse 69" cx="5.323" cy="6.97" rx="5.323" ry="6.97" transform="translate(427.495 317.546)" fill="#3f3d56"/>
    <ellipse id="Ellipse_70" data-name="Ellipse 70" cx="5.323" cy="6.97" rx="5.323" ry="6.97" transform="translate(427.495 309.029)" fill="#3f3d56"/>
    <ellipse id="Ellipse_71" data-name="Ellipse 71" cx="5.323" cy="6.97" rx="5.323" ry="6.97" transform="translate(427.495 300.512)" fill="#3f3d56"/>
    <ellipse id="Ellipse_72" data-name="Ellipse 72" cx="5.323" cy="6.97" rx="5.323" ry="6.97" transform="translate(427.495 291.994)" fill="#3f3d56"/>
    <path id="Path_581" data-name="Path 581" d="M736.306,383.47a25.36,25.36,0,0,0,1.984-2.917l-13.989-2.3,15.13.109a25.567,25.567,0,0,0,.5-20.2l-20.294,10.531,18.706-13.761a25.5,25.5,0,1,0-42.115,28.538,25.38,25.38,0,0,0-2.907,4.648l18.156,9.425-19.346-6.5a25.522,25.522,0,0,0,4.112,23.945,25.5,25.5,0,1,0,40.081,0,25.5,25.5,0,0,0,0-31.529Z" transform="translate(-283.561 -142.793)" fill="#8cc6ff"/>
    <path id="Path_582" data-name="Path 582" d="M690.773,424.846a25.378,25.378,0,0,0,5.457,15.765,25.5,25.5,0,1,0,40.081,0C739.729,436.275,690.773,421.983,690.773,424.846Z" transform="translate(-283.567 -168.404)" opacity="0.1"/>
    <path id="Path_583" data-name="Path 583" d="M435.383,0V357.161L314.345,340.3,167.209,370.312l-1.186.243L48.954,338.311V27.779L170.488,0,303.432,27.779l5.055-1.067Z" transform="translate(-15.294)" fill="#444053"/>
    <path id="Path_584" data-name="Path 584" d="M424.236,28.319V347.885l-108.294-15.09L184.293,359.651l-1.062.213L78.484,331.019V53.172L187.229,28.319,306.174,53.172l4.524-.952Z" transform="translate(-24.485 -8.815)" fill="#fff"/>
    <path id="Path_585" data-name="Path 585" d="M367.786,340.3,220.65,370.312,223.929,0,356.872,27.779l5.055-1.067Z" transform="translate(-68.735)" opacity="0.1"/>
    <g id="Group_20" data-name="Group 20" transform="translate(43.581 68.456)" opacity="0.3">
      <path id="Path_586" data-name="Path 586" d="M412.944,99.392,413,203.316h43.157V160.655h73.913l8.681-11.132" transform="translate(-172.168 -99.392)" fill="none" stroke="#444053" stroke-miterlimit="10" stroke-width="2.161"/>
      <path id="Path_587" data-name="Path 587" d="M64.079,145.27H224.554l9.921-4.465h3.968v100.2h69.448l2.976,8.929v45.141h53.574v55.806" transform="translate(-63.583 -112.282)" fill="none" stroke="#444053" stroke-miterlimit="10" stroke-width="2.161"/>
      <line id="Line_35" data-name="Line 35" y1="109.877" transform="translate(196.057 128.727)" fill="none" stroke="#444053" stroke-miterlimit="10" stroke-width="2.161"/>
      <line id="Line_36" data-name="Line 36" x1="170.53" transform="translate(196.057 209.168)" fill="none" stroke="#444053" stroke-miterlimit="10" stroke-width="2.161"/>
      <line id="Line_37" data-name="Line 37" y2="238.604" transform="translate(323.876)" fill="none" stroke="#444053" stroke-miterlimit="10" stroke-width="2.161"/>
      <line id="Line_38" data-name="Line 38" x2="366.586" transform="translate(0 188.075)" fill="none" stroke="#444053" stroke-miterlimit="10" stroke-width="2.161"/>
      <line id="Line_39" data-name="Line 39" y1="238.604" transform="translate(44.615)" fill="none" stroke="#444053" stroke-miterlimit="10" stroke-width="2.161"/>
      <line id="Line_40" data-name="Line 40" y2="238.604" transform="translate(129.828)" fill="none" stroke="#444053" stroke-miterlimit="10" stroke-width="2.161"/>
      <line id="Line_41" data-name="Line 41" x2="283.497" y2="0.992" transform="translate(0.496 60.271)" fill="none" stroke="#444053" stroke-miterlimit="10" stroke-width="2.161"/>
      <line id="Line_42" data-name="Line 42" y2="238.172" transform="translate(83.005 0.432)" fill="none" stroke="#444053" stroke-miterlimit="10" stroke-width="2.161"/>
      <path id="Path_588" data-name="Path 588" d="M63.359,267.076H193.187l66.229,72.583" transform="translate(-63.359 -151.584)" fill="none" stroke="#444053" stroke-miterlimit="10" stroke-width="2.161"/>
      <line id="Line_43" data-name="Line 43" y2="128.727" transform="translate(210.403)" fill="none" stroke="#444053" stroke-miterlimit="10" stroke-width="2.161"/>
      <line id="Line_44" data-name="Line 44" x2="170.53" transform="translate(196.057 151.784)" fill="none" stroke="#444053" stroke-miterlimit="10" stroke-width="2.161"/>
    </g>
    <path id="Path_589" data-name="Path 589" d="M399.392,308.366h-50.1V286.54l47.373-.248,2.976,8.433Z" transform="translate(-108.774 -89.109)" fill="#ffcc75"/>
    <path id="Path_590" data-name="Path 590" d="M473.094,206.814a27.422,27.422,0,0,0-27.422,27.422c0,15.145,27.422,64.349,27.422,64.349s27.422-49.184,27.422-64.349a27.422,27.422,0,0,0-27.422-27.422Zm0,39.119a12.064,12.064,0,1,1,12.064-12.064,12.064,12.064,0,0,1-12.064,12.064Z" transform="translate(-207.279 -100.658)" fill="#ffcc75"/>
    <path id="Path_591" data-name="Path 591" d="M473.094,206.814a27.422,27.422,0,0,0-27.422,27.422c0,15.145,27.422,64.349,27.422,64.349s27.422-49.184,27.422-64.349a27.422,27.422,0,0,0-27.422-27.422Zm0,39.119a12.064,12.064,0,1,1,12.064-12.064,12.064,12.064,0,0,1-12.064,12.064Z" transform="translate(-207.279 -100.658)" opacity="0.1"/>
    <path id="Path_592" data-name="Path 592" d="M473.094,212.576A27.422,27.422,0,0,0,445.672,240c0,15.145,27.422,64.349,27.422,64.349S500.516,255.163,500.516,240A27.422,27.422,0,0,0,473.094,212.576Zm0,39.119a12.064,12.064,0,1,1,12.064-12.064A12.064,12.064,0,0,1,473.094,251.7Z" transform="translate(-207.279 -102.451)" fill="#8cc6ff"/>
    <ellipse id="Ellipse_73" data-name="Ellipse 73" cx="16.593" cy="6.836" rx="16.593" ry="6.836" transform="translate(235.876 364.103) rotate(-23.3)" fill="#ffcc75" opacity="0.1"/>
    <ellipse id="Ellipse_74" data-name="Ellipse 74" cx="3.671" cy="4.802" rx="3.671" ry="4.802" transform="translate(249.951 356.313)" fill="#3f3d56"/>
    <ellipse id="Ellipse_75" data-name="Ellipse 75" cx="3.671" cy="4.802" rx="3.671" ry="4.802" transform="translate(249.951 350.44)" fill="#3f3d56"/>
    <ellipse id="Ellipse_76" data-name="Ellipse 76" cx="3.671" cy="4.802" rx="3.671" ry="4.802" transform="translate(249.951 344.571)" fill="#3f3d56"/>
    <ellipse id="Ellipse_77" data-name="Ellipse 77" cx="3.671" cy="4.802" rx="3.671" ry="4.802" transform="translate(249.951 338.703)" fill="#3f3d56"/>
    <ellipse id="Ellipse_78" data-name="Ellipse 78" cx="3.671" cy="4.802" rx="3.671" ry="4.802" transform="translate(249.951 332.83)" fill="#3f3d56"/>
    <ellipse id="Ellipse_79" data-name="Ellipse 79" cx="3.671" cy="4.802" rx="3.671" ry="4.802" transform="translate(249.951 326.961)" fill="#3f3d56"/>
    <ellipse id="Ellipse_80" data-name="Ellipse 80" cx="3.671" cy="4.802" rx="3.671" ry="4.802" transform="translate(249.951 321.093)" fill="#3f3d56"/>
    <path id="Path_593" data-name="Path 593" d="M446.139,454.667a17.91,17.91,0,0,1-1.369-1.984l9.643-1.587L444,451.175a17.63,17.63,0,0,1-.337-13.924l13.989,7.233L444.75,435a17.575,17.575,0,1,1,29.024,19.669,17.635,17.635,0,0,1,1.984,3.2l-12.506,6.5,13.344-4.465a17.585,17.585,0,0,1-2.833,16.5,17.575,17.575,0,1,1-27.625,0,17.58,17.58,0,0,1,0-21.732Z" transform="translate(-206.253 -168.948)" fill="#ffcc75"/>
    <path id="Path_594" data-name="Path 594" d="M477.525,483.16a17.5,17.5,0,0,1-3.76,10.869,17.575,17.575,0,1,1-27.625,0C443.783,491.052,477.525,481.206,477.525,483.16Z" transform="translate(-206.253 -186.592)" opacity="0.1"/>
    <ellipse id="Ellipse_81" data-name="Ellipse 81" cx="9.916" cy="24.074" rx="9.916" ry="24.074" transform="translate(-0.183 334.542) rotate(-45)" fill="#ffcc75" opacity="0.1"/>
    <ellipse id="Ellipse_82" data-name="Ellipse 82" cx="5.323" cy="6.97" rx="5.323" ry="6.97" transform="translate(20.232 332.185)" fill="#3f3d56"/>
    <ellipse id="Ellipse_83" data-name="Ellipse 83" cx="5.323" cy="6.97" rx="5.323" ry="6.97" transform="translate(20.232 323.668)" fill="#3f3d56"/>
    <ellipse id="Ellipse_84" data-name="Ellipse 84" cx="5.323" cy="6.97" rx="5.323" ry="6.97" transform="translate(20.232 315.15)" fill="#3f3d56"/>
    <ellipse id="Ellipse_85" data-name="Ellipse 85" cx="5.323" cy="6.97" rx="5.323" ry="6.97" transform="translate(20.232 306.633)" fill="#3f3d56"/>
    <ellipse id="Ellipse_86" data-name="Ellipse 86" cx="5.323" cy="6.97" rx="5.323" ry="6.97" transform="translate(20.232 298.116)" fill="#3f3d56"/>
    <ellipse id="Ellipse_87" data-name="Ellipse 87" cx="5.323" cy="6.97" rx="5.323" ry="6.97" transform="translate(20.232 289.598)" fill="#3f3d56"/>
    <ellipse id="Ellipse_88" data-name="Ellipse 88" cx="5.323" cy="6.97" rx="5.323" ry="6.97" transform="translate(20.232 281.081)" fill="#3f3d56"/>
    <path id="Path_595" data-name="Path 595" d="M145,367.625a25.364,25.364,0,0,0,1.984-2.917l-13.989-2.3,15.13.109a25.567,25.567,0,0,0,.5-20.2l-20.294,10.531,18.706-13.761a25.5,25.5,0,1,0-42.115,28.538,25.376,25.376,0,0,0-2.907,4.648l18.156,9.425-19.346-6.5a25.522,25.522,0,0,0,4.112,23.945,25.5,25.5,0,1,0,40.081,0,25.5,25.5,0,0,0,0-31.529Z" transform="translate(-99.515 -137.861)" fill="#8cc6ff"/>
    <path id="Path_596" data-name="Path 596" d="M99.464,409a25.378,25.378,0,0,0,5.457,15.765,25.5,25.5,0,1,0,40.081,0C148.42,420.43,99.464,406.138,99.464,409Z" transform="translate(-99.521 -163.472)" opacity="0.1"/>
  </g>
</svg>
