<svg xmlns="http://www.w3.org/2000/svg" width="291" height="291.779" viewBox="0 0 291 291.779">
  <g id="hot" transform="translate(-0.683)">
    <path id="Path_447" data-name="Path 447" d="M198.709,246.227a39.121,39.121,0,1,0,27.662-11.458,38.865,38.865,0,0,0-27.662,11.458Zm49.676,27.662a22.015,22.015,0,1,1-6.448-15.566,21.87,21.87,0,0,1,6.448,15.566Z" transform="translate(-80.188 -100.905)"/>
    <path id="Path_448" data-name="Path 448" d="M0,0H31.767V17.106H0Z" transform="translate(178.304 128.736) rotate(-45)"/>
    <path id="Path_449" data-name="Path 449" d="M350.609,288.377h31.766v17.106H350.609Z" transform="translate(-150.4 -123.946)"/>
    <path id="Path_450" data-name="Path 450" d="M0,0H17.106V31.767H0Z" transform="translate(178.294 217.236) rotate(-45)"/>
    <path id="Path_451" data-name="Path 451" d="M240.859,398.127h17.106v31.766H240.859Z" transform="translate(-103.229 -171.117)"/>
    <path id="Path_452" data-name="Path 452" d="M0,0H31.766V17.106H0Z" transform="translate(79.44 227.586) rotate(-45)"/>
    <path id="Path_453" data-name="Path 453" d="M105.4,288.377h31.766v17.106H105.4Z" transform="translate(-45.007 -123.946)"/>
    <path id="Path_454" data-name="Path 454" d="M0,0H17.106V31.766H0Z" transform="translate(79.45 118.365) rotate(-45)"/>
    <path id="Path_455" data-name="Path 455" d="M240.859,152.916h17.106v31.766H240.859Z" transform="translate(-103.229 -65.724)"/>
    <path id="Path_456" data-name="Path 456" d="M291.683,119.283,146.183,0,.683,119.283l10.845,13.228,9.119-7.476V291.779H271.626V124.959l9.213,7.553ZM254.52,274.673H37.752V111.012L146.183,22.12,254.52,110.936Z"/>
  </g>
</svg>
