<svg xmlns="http://www.w3.org/2000/svg" xmlns:xlink="http://www.w3.org/1999/xlink" width="382.388" height="284.209" viewBox="0 0 382.388 284.209">
  <defs>
    <linearGradient id="linear-gradient" x1="0.5" y1="1" x2="0.5" gradientUnits="objectBoundingBox">
      <stop offset="0" stop-color="gray" stop-opacity="0.251"/>
      <stop offset="0.54" stop-color="gray" stop-opacity="0.122"/>
      <stop offset="1" stop-color="gray" stop-opacity="0.102"/>
    </linearGradient>
  </defs>
  <g id="undraw_in_progress_ql66" transform="translate(0.004 -0.05)">
    <path id="Path_296" data-name="Path 296" d="M317.4,128.567c-24.514-.633-47.862-6.511-70.156-12.943s-44.377-13.571-68.3-16.98c-15.39-2.193-32.991-2.5-45.388,3.629-11.935,5.894-15.791,16.068-17.863,25.537-1.561,7.11-2.477,14.59,1.8,21.245,2.97,4.621,8.235,8.5,11.878,12.931,12.678,15.4,3.716,34.389-10.019,49.426-6.439,7.053-13.92,13.78-18.893,21.291s-7.272,16.109-2.92,23.772c4.31,7.575,14.587,13.291,25.719,17.3,22.609,8.147,49.241,10.477,75.228,11.8,57.509,2.924,115.321,1.655,172.982.379,21.34-.47,42.771-.943,63.763-3.409,11.659-1.36,23.692-3.523,32.158-8.738,10.742-6.621,13.4-17.833,6.2-26.135-12.075-13.927-45.453-17.389-53.9-32.336-4.644-8.227.125-17.389,6.879-25.022,14.484-16.367,38.76-30.726,40.036-49.437.879-12.848-10.791-25.719-28.836-31.8-18.912-6.371-45.142-5.572-59.089,4.977C364.293,124.931,339.044,129.112,317.4,128.567Z" transform="translate(-95.23 -88.689)" fill="#ffcc75" opacity="0.1"/>
    <g id="Group_14" data-name="Group 14" transform="translate(274.635 0.05)" opacity="0.8">
      <path id="Path_297" data-name="Path 297" d="M901.244,142.548s-4.273-1.735-17.863,4.5-15.287,5.443-18.806,4.488-5.481-1.178-9.254-6.382c0,0-2.651-14.42-5.235-16.666s-13.515,1.276-13.515,1.276-13.113,3.015-15.628-14.518c0,0,1.773-13.212-.644-17.268,0,0,4.879,2.1,12.924-1.292s14.484,3.659,14.484,3.659,2.03,5.254,1.818,8.382,1.072,4.31,4.924,2.8c0,0,1.894-2.682-.784-7.113s-4.576-7.735-3.829-11.178,2.886-8.212,9.769-10.606,16.234-2.841,20.723-4.689S885.9,74.85,885.9,74.85s-2.761,2.769,3.746,14.5,2.36,16.821,2.36,16.821-3.462,8.25-18.742,7.575c0,0-14.723.538-6.7,6.78,0,0,5.14-1.045,12.829-3.489s13.231,7.64,14.609,14.655A18.4,18.4,0,0,0,901.244,142.548Z" transform="translate(-820.3 -74.85)" fill="#ffcc75"/>
      <path id="Path_298" data-name="Path 298" d="M962.738,98.253l.08-.023c.591,2.239-5.988,11.231-11.613,18.382l-.064-.049C959.072,106.476,963.208,99.972,962.738,98.253Z" transform="translate(-901.581 -89.374)" fill="#444053"/>
      <path id="Path_299" data-name="Path 299" d="M925.143,146.24l.034.091c-4.492,5.712-10.144,12.53-14.666,17.579-.432.481-.86.985-1.269,1.515l-.133-.1c.417-.519.845-1.026,1.277-1.515C914.909,158.751,920.655,151.948,925.143,146.24Z" transform="translate(-875.471 -119.199)" fill="#444053"/>
      <path id="Path_300" data-name="Path 300" d="M892.279,196.22l.091.152c-8.231,10.276-8.776,26.23-8.8,26.37l-1.735-1.985C881.859,220.6,883.991,206.564,892.279,196.22Z" transform="translate(-858.53 -150.248)" fill="#444053"/>
      <path id="Path_301" data-name="Path 301" d="M903.767,183.662s-9.7-5.045-17.268-3.235-24.59-6.4-24.59-6.4-7.231-2.935-8.685-6.284c0,0-4.958-5.246-5.242-7.954s-5.125-9.541-8.261-9.788" transform="translate(-832.364 -121.535)" fill="none" stroke="#444053" stroke-miterlimit="10" stroke-width="1"/>
      <path id="Path_302" data-name="Path 302" d="M997.943,239.992s-4.886-3.292-4.318-7.132" transform="translate(-927.945 -173.01)" fill="none" stroke="#444053" stroke-miterlimit="10" stroke-width="1"/>
      <path id="Path_303" data-name="Path 303" d="M972.693,242.42s-6.992-2.538-7.693-12.5" transform="translate(-910.191 -171.184)" fill="none" stroke="#444053" stroke-miterlimit="10" stroke-width="1"/>
      <path id="Path_304" data-name="Path 304" d="M947.471,244.747a15.638,15.638,0,0,1-4.462-15.227" transform="translate(-896.25 -170.935)" fill="none" stroke="#444053" stroke-miterlimit="10" stroke-width="1"/>
      <path id="Path_305" data-name="Path 305" d="M916.247,237.317s-4.447-9.329-.489-15.4" transform="translate(-878.582 -166.214)" fill="none" stroke="#444053" stroke-miterlimit="10" stroke-width="1"/>
      <path id="Path_306" data-name="Path 306" d="M1002.348,222.63s-5.057,1.606-3.969,4.265" transform="translate(-930.832 -166.655)" fill="none" stroke="#444053" stroke-miterlimit="10" stroke-width="1"/>
      <path id="Path_307" data-name="Path 307" d="M981.644,198.41s-6.765,2.144-6.924,11.715" transform="translate(-916.23 -151.609)" fill="none" stroke="#444053" stroke-miterlimit="10" stroke-width="1"/>
      <path id="Path_308" data-name="Path 308" d="M958.683,192.58s-6.155,7.6-5.719,14.5" transform="translate(-902.701 -147.987)" fill="none" stroke="#444053" stroke-miterlimit="10" stroke-width="1"/>
      <path id="Path_309" data-name="Path 309" d="M930.774,200.45s-6.117,5.844-5.337,9.091" transform="translate(-885.571 -152.876)" fill="none" stroke="#444053" stroke-miterlimit="10" stroke-width="1"/>
      <path id="Path_310" data-name="Path 310" d="M919.184,193.6s-5.735,1.026-6.534-.856" transform="translate(-877.67 -148.086)" fill="none" stroke="#444053" stroke-miterlimit="10" stroke-width="1"/>
      <path id="Path_311" data-name="Path 311" d="M910.23,176.72s2.9,3.837,3.644,2.977" transform="translate(-876.167 -138.134)" fill="none" stroke="#444053" stroke-miterlimit="10" stroke-width="1"/>
      <path id="Path_312" data-name="Path 312" d="M956.983,164.887s-14.454,1.049-17.723-3.307" transform="translate(-894.201 -128.729)" fill="none" stroke="#444053" stroke-miterlimit="10" stroke-width="1"/>
      <path id="Path_313" data-name="Path 313" d="M902.2,125.68s6.784,14.556,11.708,16.412" transform="translate(-871.178 -106.427)" fill="none" stroke="#444053" stroke-miterlimit="10" stroke-width="1"/>
      <path id="Path_314" data-name="Path 314" d="M921,107.37s4.167,13.39,9.325,17.571" transform="translate(-882.858 -95.052)" fill="none" stroke="#444053" stroke-miterlimit="10" stroke-width="1"/>
      <path id="Path_315" data-name="Path 315" d="M973.26,141.047s-10.984,4.716-17.59-.057" transform="translate(-904.395 -115.938)" fill="none" stroke="#444053" stroke-miterlimit="10" stroke-width="0.75"/>
      <path id="Path_316" data-name="Path 316" d="M946.84,99.83s2.511,9.848,5.894,12.223" transform="translate(-898.91 -90.368)" fill="none" stroke="#444053" stroke-miterlimit="10" stroke-width="0.75"/>
      <path id="Path_317" data-name="Path 317" d="M983.814,112s-6.178,2.337-8.484.545" transform="translate(-916.609 -97.929)" fill="none" stroke="#444053" stroke-miterlimit="10" stroke-width="0.75"/>
      <path id="Path_318" data-name="Path 318" d="M892.427,185.21s0,8.579-2.337,9.189" transform="translate(-863.655 -143.409)" fill="none" stroke="#444053" stroke-miterlimit="10" stroke-width="1"/>
      <path id="Path_319" data-name="Path 319" d="M845.84,208.012s9.28.8,13.556-3.992" transform="translate(-836.166 -155.094)" fill="none" stroke="#444053" stroke-miterlimit="10" stroke-width="1"/>
      <path id="Path_320" data-name="Path 320" d="M876.105,158.45s-2.242,8.712-8.435,11.045" transform="translate(-849.727 -126.785)" fill="none" stroke="#444053" stroke-miterlimit="10" stroke-width="1"/>
      <path id="Path_321" data-name="Path 321" d="M831.15,184.57a12.174,12.174,0,0,0,12.215-3.53" transform="translate(-827.04 -140.818)" fill="none" stroke="#444053" stroke-miterlimit="10" stroke-width="1"/>
      <path id="Path_322" data-name="Path 322" d="M863.06,138.7s-.621,7.39-4.64,10.848" transform="translate(-843.981 -114.515)" fill="none" stroke="#444053" stroke-miterlimit="10" stroke-width="1"/>
      <path id="Path_323" data-name="Path 323" d="M831.81,157.779s5.451.034,6.727-1.739" transform="translate(-827.45 -125.287)" fill="none" stroke="#444053" stroke-miterlimit="10" stroke-width="1"/>
    </g>
    <ellipse id="Ellipse_35" data-name="Ellipse 35" cx="82.573" cy="5.871" rx="82.573" ry="5.871" transform="translate(16.993 272.517)" fill="#ffcc75" opacity="0.1"/>
    <path id="Path_324" data-name="Path 324" d="M309.055,410.819c1.136-2.042,2.5-3.966,3.595-6.034,1-1.894,1.788-3.9,2.693-5.848,1.549-3.333,3.458-6.485,5.2-9.727,1.136-2.125,2.235-4.439,2.015-6.841-.208-2.273-1.542-4.242-2.057-6.439-2.1-9.019-7.147-17.3-10.227-26.022-.788-2.212-1.553-4.439-2.538-6.576a69.639,69.639,0,0,0-7.2-11.465,32.384,32.384,0,0,0-3.182-3.954c-.951-.951-2.019-1.788-2.882-2.818-1.78-2.121-2.614-5.174-4.841-6.818-.038.1-.08.193-.121.292-1.595-4.072-6.943-6.757-10.045-10.132a59.645,59.645,0,0,1-4.973-6.534l-6.754-9.761a16.4,16.4,0,0,1-2.818-5.413c-.576-2.417-.042-4.992-.61-7.409a9.344,9.344,0,0,0-2.064-3.924c.064-.019.133-.045.2-.061,1.288-.345,2.651-.405,3.928-.712,2.784-.663,5.2-2.443,7.977-3.155a19.457,19.457,0,0,0,4.212-1.136,3.5,3.5,0,0,0,1.629-3.72c-.9-4.754,1.61-9.572,1.186-14.393-.114-1.333-.455-2.632-.674-3.954a41.923,41.923,0,0,1-.235-9.325,19.7,19.7,0,0,1,3.087-3.837c1.7-1.644,3.738-3.03,4.924-5.087a9.92,9.92,0,0,0,1.023-6.106,5.891,5.891,0,0,0-1.894-4.03,4.761,4.761,0,0,0-4.348-.508c-.2.064-.4.144-.591.227a4.966,4.966,0,0,0-3.917-.227,11.869,11.869,0,0,0-3.833,2.417,8.761,8.761,0,0,0-1.788,1.894,11.231,11.231,0,0,0-1.22,3.875,37.879,37.879,0,0,1-2.557,7.5c-.2.424-.758,1.186-1.2,1.913l-.811-.167c-.352,3.375-3.178,5.852-4.9,8.769-.837,1.417-1.424,2.966-2.178,4.432a42.953,42.953,0,0,1-2.875,4.61q-1.534,2.273-3.072,4.5a64.005,64.005,0,0,1-4.167,5.636c-1.39-.114-2.78-.216-4.167-.239a33.821,33.821,0,0,0-6.935.617,19.319,19.319,0,0,1-.246-2.428v-.148c0-.2.023-.432.049-.686a14.015,14.015,0,0,0-.67-23.711,10.193,10.193,0,0,0,.144-1.288v-.758a1.786,1.786,0,0,0-.027-.379,5.013,5.013,0,0,0-.129-.758c-.03-.121-.064-.242-.106-.379a3.581,3.581,0,0,0-.314-.682.329.329,0,0,0-.027-.038c-.049-.08-.1-.159-.155-.235s-.049-.061-.072-.091a1.811,1.811,0,0,0-.129-.159l-.095-.1c-.042-.045-.083-.091-.129-.133l-.106-.095-.133-.117-.121-.091-.136-.1-.133-.087-.136-.087c-.045-.03-.095-.057-.144-.083l-.14-.08-.151-.076-.14-.068-.167-.072-.136-.061-.182-.068-.129-.049-.2-.068-.117-.038-.216-.068-.1-.03-.235-.064-.091-.027-.246-.061-.072-.019-.273-.061H233.6l-.4-.087q-2.489-.511-5.007-.883a11.281,11.281,0,0,0-4.14-.072c-1.871.417-3.432,1.682-5.182,2.466A34.834,34.834,0,0,1,212.3,234.7c-2.2.511-4.473,1.386-5.856,3.193a11.15,11.15,0,0,0-1.788,4.841c-2.621,14.257.2,28.881.739,43.373.208,5.64-.045,11.67-3.242,16.287l9.31-.246c.447,0,.9-.027,1.352-.053s.909-.061,1.356-.114a8.968,8.968,0,0,0,3.375-1.011,5.821,5.821,0,0,0,1.314-1.023,13.1,13.1,0,0,0,2.557-4.867c.208-.587.417-1.182.6-1.78.076-.25.148-.5.212-.758l.03-.121.106.049a23.429,23.429,0,0,0,1.261,2.083,45.132,45.132,0,0,0,5.731,6.473c4.064,4.034,8.219,8.14,13.314,10.731,1.72.867,3.579,1.6,4.89,3.03.644.693,1.2,1.583,2.114,1.822a10.513,10.513,0,0,1,1.735.242c.8.333,1.087,1.292,1.454,2.079s1.2,1.591,1.985,1.231a3.981,3.981,0,0,0,1.485,3.951,2.9,2.9,0,0,1,.962.864,3.14,3.14,0,0,1,.2,1.015,4.011,4.011,0,0,0,1.436,2.458c-.739,1.223-.148,2.977-.129,4.5a16.939,16.939,0,0,1-.708,3.761c-.837,3.655-.379,7.481.3,11.166a12.133,12.133,0,0,0,2.186,5.719c.432.511.947.954,1.4,1.451a13.485,13.485,0,0,1,2.14,3.261,25.567,25.567,0,0,1,2.322,7.439,13.545,13.545,0,0,0,1.1,3.75c.829,1.811.072,4.038.814,5.886a17.079,17.079,0,0,1,1.159,2.405c.284,1.261-.379,2.523-.557,3.807-.432,3.007,1.739,5.8,1.936,8.829a.7.7,0,0,1-.106.511c-.148.167-.4.163-.6.258-.379.182-.481.693-.6,1.117s-.462.905-.883.776c-6.223,3.329-12.666,6.405-18.889,9.734l-2.841,1.515-15.193,8.117a1.1,1.1,0,0,0-.61.992c0,.182.023.379.038.549-1.064.265-2.087.583-2.814.716-.3.057-.6.114-.894.178a.954.954,0,0,0,.136-.379.758.758,0,0,0-.67-.758,2.43,2.43,0,0,0-1.095.144,15.967,15.967,0,0,1-2.651.489,18.921,18.921,0,0,0-3.178.379,3.612,3.612,0,0,0-2.462,1.894,4.594,4.594,0,0,0-.273,1.788,27.366,27.366,0,0,0,.826,6.947.591.591,0,0,0,.277.443c.133.053.292,0,.424.061a.568.568,0,0,1,.246.311,15.575,15.575,0,0,1,.954,4.636q.379,3.5.958,6.988a7.756,7.756,0,0,0,1.39,3.818,6.236,6.236,0,0,0,3.985,1.841c3.125.42,6.28-.212,9.363-.86a2.744,2.744,0,0,0,1.579-.716,1.784,1.784,0,0,0,.379-1.261c-.072-1.557-1.489-2.651-2.776-3.526l-1.758-1.216a.758.758,0,0,1-.379-.856l.114-2.3h-.341a8.26,8.26,0,0,1,2.182-4.292c.822-.758,1.894-1.288,2.754-1.977a6.818,6.818,0,0,0,3.829,1.405c2.273-3.06,5.473-5.144,8.674-7.2a84.837,84.837,0,0,1,8.049-4.492q3.356-1.659,6.818-3.11c3.257-1.371,6.576-2.595,9.9-3.788a39.858,39.858,0,0,0,6.492-2.754c5.3-3.064,9.049-9.181,8.333-15.306-.9-7.727,1.026-15.78.9-23.56a23.349,23.349,0,0,0-.811-6.723,3.593,3.593,0,0,1,.451.379c1.379,1.288,1.712,3.333,3.03,4.8,1.026,1.155,2.587,1.894,3.208,3.3.473,1.079.405,2.538,1.394,3.159.28.178.614.254.894.428a2.991,2.991,0,0,1,.83.9c1.049,1.5,2.136,3.1,2.25,4.924.049.723-.019,1.561.511,2.049.151.14.345.242.424.432.167.379-.273.78-.348,1.2-.11.583.466,1.027.822,1.515a2.382,2.382,0,0,1,0,2.807c-3.106,4.034-3.667,9.469-6.382,13.784-.939,1.489-1.985,2.9-2.894,4.405-2.8,4.629-4.208,9.947-5.579,15.185a8.39,8.39,0,0,0,2.329,2.6,12.878,12.878,0,0,1-2.595,4.791,12.061,12.061,0,0,0-.856,1.072,2.083,2.083,0,0,0-.845-.636,30.009,30.009,0,0,0-.758,6.629c0,1.47.2,3.148,1.394,4a4.943,4.943,0,0,0,1.549.64l2.6.758a2.716,2.716,0,0,0,1.436.14c.307-.087.58-.277.894-.337a2.193,2.193,0,0,1,1.008.133l2.246.655a14.848,14.848,0,0,1,2.22.784c.64.307,1.231.7,1.86,1.045A22.475,22.475,0,0,0,304,443.84l3.871,1.333a14.086,14.086,0,0,0,3.356.871c.8.068,1.6,0,2.386.136.6.1,1.178.318,1.78.379a4.667,4.667,0,0,0,2.8-.833,2.5,2.5,0,0,0,.811-.731c.568-.886.08-2.057-.473-2.951a11.67,11.67,0,0,0-4-4.166c-.686-.379-1.428-.659-2.136-1.008-2.015-.985-3.534-2.629-5.439-3.754a1.292,1.292,0,0,0-1.633.11c-1.583-1.026-3.3-2.03-4.167-3.7a8.332,8.332,0,0,1-.758-2.557c.89.212,1.788.379,2.693.527C304.563,421.784,306.173,415.97,309.055,410.819ZM272.666,249.276c-.076.428-.159.852-.25,1.276-.758,3.557-1.841,7.541-4.318,10.189a9.47,9.47,0,0,1-2.8,1.845l-.277.136A60.764,60.764,0,0,1,272.666,249.276Z" transform="translate(-161.654 -164.396)" fill="url(#linear-gradient)"/>
    <path id="Path_325" data-name="Path 325" d="M390.836,229.273a11.305,11.305,0,0,1,1.223-3.848,8.791,8.791,0,0,1,1.792-1.894,11.946,11.946,0,0,1,3.841-2.4,4.8,4.8,0,0,1,4.352.5,5.793,5.793,0,0,1,1.913,4,9.857,9.857,0,0,1-1.026,6.06c-1.174,2.049-3.212,3.409-4.924,5.053a19.552,19.552,0,0,0-3.208,4,11.4,11.4,0,0,1-1.462,2.136,2.777,2.777,0,0,1-2.322.928,4.1,4.1,0,0,1-1.894-1.11c-.7-.614-2.587-1.708-2.651-2.682-.045-.788,1.428-2.576,1.788-3.314a37.318,37.318,0,0,0,2.579-7.435Z" transform="translate(-276.157 -165.491)" fill="#fbbebe"/>
    <path id="Path_326" data-name="Path 326" d="M390.836,229.273a11.305,11.305,0,0,1,1.223-3.848,8.791,8.791,0,0,1,1.792-1.894,11.946,11.946,0,0,1,3.841-2.4,4.8,4.8,0,0,1,4.352.5,5.793,5.793,0,0,1,1.913,4,9.857,9.857,0,0,1-1.026,6.06c-1.174,2.049-3.212,3.409-4.924,5.053a19.552,19.552,0,0,0-3.208,4,11.4,11.4,0,0,1-1.462,2.136,2.777,2.777,0,0,1-2.322.928,4.1,4.1,0,0,1-1.894-1.11c-.7-.614-2.587-1.708-2.651-2.682-.045-.788,1.428-2.576,1.788-3.314a37.318,37.318,0,0,0,2.579-7.435Z" transform="translate(-276.157 -165.491)" opacity="0.1"/>
    <path id="Path_327" data-name="Path 327" d="M293,298.245a33.977,33.977,0,0,1,9.306-1.136c5.238.076,10.632,1.345,15.621-.261a27.1,27.1,0,0,0,3.746-1.625,9.508,9.508,0,0,0,2.8-1.833c2.481-2.629,3.549-6.587,4.326-10.121a67.532,67.532,0,0,0,1.178-10.772,8.22,8.22,0,0,0,4.083,1.076,2.961,2.961,0,0,0,2.852-2.651,43.345,43.345,0,0,0,.186,10.034c.22,1.311.561,2.6.678,3.928.424,4.788-2.087,9.572-1.189,14.295a3.466,3.466,0,0,1-1.629,3.693,17.8,17.8,0,0,1-4.22,1.136c-2.776.708-5.2,2.473-7.988,3.132-1.3.307-2.651.379-3.932.708-1.841.485-3.511,1.538-5.386,1.871-1.405.25-2.852.08-4.273.2-1.235.1-2.447.428-3.685.458a10.634,10.634,0,0,1-7.913-3.917C295.542,304.184,294.265,301,293,298.245Z" transform="translate(-218.093 -196.604)" fill="#ffcc75"/>
    <path id="Path_328" data-name="Path 328" d="M293,298.245a33.977,33.977,0,0,1,9.306-1.136c5.238.076,10.632,1.345,15.621-.261a27.1,27.1,0,0,0,3.746-1.625,9.508,9.508,0,0,0,2.8-1.833c2.481-2.629,3.549-6.587,4.326-10.121a67.532,67.532,0,0,0,1.178-10.772,8.22,8.22,0,0,0,4.083,1.076,2.961,2.961,0,0,0,2.852-2.651,43.345,43.345,0,0,0,.186,10.034c.22,1.311.561,2.6.678,3.928.424,4.788-2.087,9.572-1.189,14.295a3.466,3.466,0,0,1-1.629,3.693,17.8,17.8,0,0,1-4.22,1.136c-2.776.708-5.2,2.473-7.988,3.132-1.3.307-2.651.379-3.932.708-1.841.485-3.511,1.538-5.386,1.871-1.405.25-2.852.08-4.273.2-1.235.1-2.447.428-3.685.458a10.634,10.634,0,0,1-7.913-3.917C295.542,304.184,294.265,301,293,298.245Z" transform="translate(-218.093 -196.604)" opacity="0.1"/>
    <path id="Path_329" data-name="Path 329" d="M599.3,344.789a26.075,26.075,0,1,1-26.075,26.073A26.075,26.075,0,0,1,599.3,344.789m0-6.439a32.514,32.514,0,1,0,32.514,32.513A32.514,32.514,0,0,0,599.3,338.35Z" transform="translate(-388.178 -238.493)" fill="#3f3d56"/>
    <rect id="Rectangle_57" data-name="Rectangle 57" width="7.621" height="8.022" transform="translate(206.312 92.251)" fill="#3f3d56"/>
    <rect id="Rectangle_58" data-name="Rectangle 58" width="7.621" height="8.022" transform="matrix(0.857, 0.515, -0.515, 0.857, 227.526, 95.506)" fill="#3f3d56"/>
    <rect id="Rectangle_59" data-name="Rectangle 59" width="7.621" height="8.022" transform="matrix(0.485, 0.875, -0.875, 0.485, 243.76, 108.642)" fill="#3f3d56"/>
    <rect id="Rectangle_60" data-name="Rectangle 60" width="7.621" height="8.022" transform="matrix(-0.53, 0.848, -0.848, -0.53, 247.698, 149.411)" fill="#3f3d56"/>
    <rect id="Rectangle_61" data-name="Rectangle 61" width="7.621" height="8.022" transform="matrix(-0.485, 0.875, -0.875, -0.485, 185.511, 112.529)" fill="#3f3d56"/>
    <rect id="Rectangle_62" data-name="Rectangle 62" width="7.621" height="8.022" transform="matrix(0.53, 0.848, -0.848, 0.53, 181.36, 145.157)" fill="#3f3d56"/>
    <rect id="Rectangle_63" data-name="Rectangle 63" width="7.621" height="8.022" transform="matrix(-0.857, 0.515, -0.515, -0.857, 198.855, 102.381)" fill="#3f3d56"/>
    <rect id="Rectangle_64" data-name="Rectangle 64" width="7.621" height="8.022" transform="translate(206.312 164.46)" fill="#3f3d56"/>
    <rect id="Rectangle_65" data-name="Rectangle 65" width="7.621" height="8.022" transform="matrix(0.857, -0.515, 0.515, 0.857, 223.396, 162.354)" fill="#3f3d56"/>
    <rect id="Rectangle_66" data-name="Rectangle 66" width="7.621" height="8.022" transform="matrix(-0.857, -0.515, 0.515, -0.857, 194.725, 169.23)" fill="#3f3d56"/>
    <rect id="Rectangle_67" data-name="Rectangle 67" width="9.227" height="6.818" transform="translate(170.211 129.159)" fill="#3f3d56"/>
    <rect id="Rectangle_68" data-name="Rectangle 68" width="9.227" height="6.818" transform="translate(252.041 135.977) rotate(180)" fill="#3f3d56"/>
    <path id="Path_330" data-name="Path 330" d="M759.224,220.879a26.075,26.075,0,1,1-26.075,26.073,26.075,26.075,0,0,1,26.075-26.073m0-6.439a32.514,32.514,0,1,0,32.514,32.513A32.514,32.514,0,0,0,759.224,214.44Z" transform="translate(-487.525 -161.517)" fill="#3f3d56"/>
    <rect id="Rectangle_69" data-name="Rectangle 69" width="7.621" height="8.022" transform="translate(266.885 45.321)" fill="#3f3d56"/>
    <rect id="Rectangle_70" data-name="Rectangle 70" width="7.621" height="8.022" transform="matrix(0.857, 0.515, -0.515, 0.857, 288.102, 48.57)" fill="#3f3d56"/>
    <rect id="Rectangle_71" data-name="Rectangle 71" width="7.621" height="8.022" transform="matrix(0.485, 0.875, -0.875, 0.485, 304.335, 61.707)" fill="#3f3d56"/>
    <rect id="Rectangle_72" data-name="Rectangle 72" width="7.621" height="8.022" transform="matrix(-0.53, 0.848, -0.848, -0.53, 308.27, 102.478)" fill="#3f3d56"/>
    <rect id="Rectangle_73" data-name="Rectangle 73" width="7.621" height="8.022" transform="matrix(-0.485, 0.875, -0.875, -0.485, 246.082, 65.6)" fill="#3f3d56"/>
    <rect id="Rectangle_74" data-name="Rectangle 74" width="7.621" height="8.022" transform="matrix(0.53, 0.848, -0.848, 0.53, 241.932, 98.226)" fill="#3f3d56"/>
    <rect id="Rectangle_75" data-name="Rectangle 75" width="7.621" height="8.022" transform="matrix(-0.857, 0.515, -0.515, -0.857, 259.429, 55.446)" fill="#3f3d56"/>
    <rect id="Rectangle_76" data-name="Rectangle 76" width="7.621" height="8.022" transform="translate(266.885 117.527)" fill="#3f3d56"/>
    <rect id="Rectangle_77" data-name="Rectangle 77" width="7.621" height="8.022" transform="matrix(0.857, -0.515, 0.515, 0.857, 283.969, 115.421)" fill="#3f3d56"/>
    <rect id="Rectangle_78" data-name="Rectangle 78" width="7.621" height="8.022" transform="matrix(-0.857, -0.515, 0.515, -0.857, 255.296, 122.295)" fill="#3f3d56"/>
    <rect id="Rectangle_79" data-name="Rectangle 79" width="9.227" height="6.818" transform="translate(230.78 82.225)" fill="#3f3d56"/>
    <rect id="Rectangle_80" data-name="Rectangle 80" width="9.227" height="6.818" transform="translate(312.618 89.043) rotate(180)" fill="#3f3d56"/>
    <path id="Path_331" data-name="Path 331" d="M438.431,215.571h.92a26.073,26.073,0,1,1-.886,52.138c-.307,0-.614,0-.924,0a26.073,26.073,0,1,1,.89-52.138m0-6.435h0a32.512,32.512,0,1,0-1.114,65.014c.379,0,.758.014,1.136.014a32.512,32.512,0,1,0,1.11-65.014c-.379,0-.758-.014-1.136-.014Z" transform="translate(-287.893 -158.216)" fill="#3f3d56"/>
    <rect id="Rectangle_81" data-name="Rectangle 81" width="7.621" height="8.022" transform="translate(147.13 43.178) rotate(1.99)" fill="#3f3d56"/>
    <rect id="Rectangle_82" data-name="Rectangle 82" width="7.621" height="8.022" transform="matrix(0.839, 0.544, -0.544, 0.839, 168.216, 47.16)" fill="#3f3d56"/>
    <rect id="Rectangle_83" data-name="Rectangle 83" width="7.621" height="8.022" transform="translate(183.986 60.853) rotate(62.99)" fill="#3f3d56"/>
    <rect id="Rectangle_84" data-name="Rectangle 84" width="7.621" height="8.022" transform="translate(186.51 101.723) rotate(123.99)" fill="#3f3d56"/>
    <rect id="Rectangle_85" data-name="Rectangle 85" width="7.621" height="8.022" transform="matrix(-0.515, 0.857, -0.857, -0.515, 125.635, 62.711)" fill="#3f3d56"/>
    <rect id="Rectangle_86" data-name="Rectangle 86" width="7.647" height="8.05" transform="translate(119.824 95.772) rotate(60.113)" fill="#3f3d56"/>
    <rect id="Rectangle_87" data-name="Rectangle 87" width="7.621" height="8.022" transform="translate(139.334 53.026) rotate(150.99)" fill="#3f3d56"/>
    <rect id="Rectangle_88" data-name="Rectangle 88" width="7.621" height="8.022" transform="translate(144.625 115.337) rotate(1.99)" fill="#3f3d56"/>
    <rect id="Rectangle_89" data-name="Rectangle 89" width="7.621" height="8.022" transform="translate(161.776 113.83) rotate(-29.01)" fill="#3f3d56"/>
    <rect id="Rectangle_90" data-name="Rectangle 90" width="7.621" height="8.022" transform="matrix(-0.839, -0.544, 0.544, -0.839, 132.888, 119.698)" fill="#3f3d56"/>
    <rect id="Rectangle_91" data-name="Rectangle 91" width="9.227" height="6.818" transform="translate(109.771 78.805) rotate(1.99)" fill="#3f3d56"/>
    <rect id="Rectangle_92" data-name="Rectangle 92" width="9.227" height="6.818" transform="translate(191.324 88.448) rotate(-178.01)" fill="#3f3d56"/>
    <path id="Path_332" data-name="Path 332" d="M260.176,732.071a7.827,7.827,0,0,0-2.686.837,6.31,6.31,0,0,0-2.337,3.151,27.288,27.288,0,0,0-1.568,9.848,21.175,21.175,0,0,0,1.011,7.973,5.038,5.038,0,0,0,1.337,2.087,4.759,4.759,0,0,0,1.829.886,4.993,4.993,0,0,0,4.288-.53c1.311-1.026,1.64-2.833,1.917-4.473.379-2.212.905-4.545,2.549-6.087,1.22-1.136,2.966-1.7,3.852-3.114,1.057-1.674.5-3.86-.174-5.723-.587-1.614-1.447-4.89-3.136-5.716S261.933,731.753,260.176,732.071Z" transform="translate(-193.601 -482.387)" fill="#fbbebe"/>
    <path id="Path_333" data-name="Path 333" d="M428.853,749.664a12.67,12.67,0,0,1-2.651,4.89c-.758.864-1.686,1.913-1.288,2.985a2.671,2.671,0,0,0,.7.943c5.553,5.435,13.321,8.079,21.029,9.041a.724.724,0,0,0,.379,0c.227-.1.28-.379.311-.633a8.006,8.006,0,0,0,0-2.424c-.379-1.894-2.026-3.208-3.64-4.246s-3.379-2.045-4.28-3.738c-1.136-2.106-.648-4.848-1.985-6.818-1.083-1.6-3.095-2.273-5-2.587-.663-.1-2.072-.83-2.651-.492S429.054,749.005,428.853,749.664Z" transform="translate(-299.982 -492.044)" fill="#fbbebe"/>
    <path id="Path_334" data-name="Path 334" d="M252.034,732.127a.758.758,0,0,0-.67-.758,2.425,2.425,0,0,0-1.095.14,15.992,15.992,0,0,1-2.651.485,19.051,19.051,0,0,0-3.185.379,3.6,3.6,0,0,0-2.466,1.894,4.694,4.694,0,0,0-.273,1.776,27.136,27.136,0,0,0,.826,6.9.6.6,0,0,0,.28.443c.133.053.292,0,.424.061a.561.561,0,0,1,.246.307,15.221,15.221,0,0,1,.958,4.606q.379,3.481.958,6.939a7.6,7.6,0,0,0,1.394,3.788,6.229,6.229,0,0,0,3.988,1.826c3.129.417,6.288-.212,9.378-.856a2.734,2.734,0,0,0,1.579-.708,1.765,1.765,0,0,0,.379-1.254c-.072-1.545-1.492-2.651-2.78-3.5l-1.773-1.193a.92.92,0,0,1-.311-.28,1,1,0,0,1-.087-.568l.114-2.273a6.508,6.508,0,0,0-5.682,3.526c-.246.489-.477,1.061-.989,1.25a1.307,1.307,0,0,1-1.549-.936,4.075,4.075,0,0,1,.057-2c1.038-5.56.8-11.276,1.428-16.9a3.848,3.848,0,0,1,.564-1.78C251.405,733.017,251.977,732.646,252.034,732.127Z" transform="translate(-186.217 -482.639)" fill="#3f3d56"/>
    <path id="Path_335" data-name="Path 335" d="M441.415,777.022c.261.432.667.758.909,1.2a1.02,1.02,0,0,1-.2,1.352,1.333,1.333,0,0,1-.818.083,27.688,27.688,0,0,1-14.973-6.772,10.5,10.5,0,0,1-1.833-2.011c-.489-.758-.9-1.648-1.735-1.958a29.608,29.608,0,0,0-.758,6.583c0,1.458.2,3.125,1.394,3.97a4.989,4.989,0,0,0,1.553.633l2.6.735a2.769,2.769,0,0,0,1.439.14c.307-.083.58-.276.894-.333a2.213,2.213,0,0,1,1.011.129l2.246.655a14.869,14.869,0,0,1,2.223.758c.64.3,1.235.7,1.86,1.038a22.262,22.262,0,0,0,3.254,1.322l3.954,1.371a13.948,13.948,0,0,0,3.364.864c.8.068,1.6,0,2.39.136.6.1,1.178.318,1.784.379a4.716,4.716,0,0,0,2.8-.83,2.535,2.535,0,0,0,.814-.723c.568-.883.08-2.045-.477-2.936a11.526,11.526,0,0,0-4.007-4.125c-.689-.379-1.432-.659-2.14-1-2.015-.977-3.542-2.61-5.447-3.727C441.725,772.908,440.566,775.632,441.415,777.022Z" transform="translate(-298.237 -505.975)" fill="#3f3d56"/>
    <path id="Path_336" data-name="Path 336" d="M281.652,339.112a16.382,16.382,0,0,1-6.992,2.72,28.2,28.2,0,0,1-3.958.212,100.678,100.678,0,0,1-16.461-1.375c2.167-2.386,4.356-4.924,5.174-8.053a13.227,13.227,0,0,0,.246-5.045,37.768,37.768,0,0,0-1.538-6.352,44.012,44.012,0,0,0,6.958-.178c1.318-.133,4.545-1.333,5.682-.424,1.064.845.261,3.833.242,5.212v.148a16.772,16.772,0,0,0,1.329,6.083C274,335.786,277.565,338.847,281.652,339.112Z" transform="translate(-194.014 -227.267)" fill="#fbbebe"/>
    <path id="Path_337" data-name="Path 337" d="M277.381,325.778a13.893,13.893,0,0,1-11.363,1.742,37.761,37.761,0,0,0-1.538-6.352,44.016,44.016,0,0,0,6.958-.178c1.318-.133,4.545-1.333,5.682-.424C278.2,321.411,277.4,324.4,277.381,325.778Z" transform="translate(-200.375 -227.236)" opacity="0.1"/>
    <circle id="Ellipse_36" data-name="Ellipse 36" cx="13.863" cy="13.863" r="13.863" transform="translate(55.552 72.43)" fill="#fbbebe"/>
    <path id="Path_338" data-name="Path 338" d="M316.119,404.831a6.439,6.439,0,0,1-3.125,5.564,12.347,12.347,0,0,1-3.409,1.193c-6.341,1.515-12.837,2.761-19.348,2.39a10.658,10.658,0,0,1-4.106-.864,4.386,4.386,0,0,1-2.534-3.167,3,3,0,0,0-.2-1.008,2.841,2.841,0,0,0-.962-.856,3.943,3.943,0,0,1-1.462-3.913c-.792.352-1.617-.443-1.989-1.227s-.663-1.731-1.458-2.061a11.855,11.855,0,0,0-1.739-.242c-.913-.235-1.47-1.136-2.114-1.811-1.314-1.405-3.178-2.132-4.9-3-5.1-2.572-9.261-6.647-13.333-10.655a44.292,44.292,0,0,1-5.738-6.439c-.458-.67-.871-1.36-1.261-2.068a58.146,58.146,0,0,1-3.2-7.314,8.411,8.411,0,0,1-.826-4.167c.019-.129.045-.258.076-.379a7.973,7.973,0,0,1,1.258-2.542c1.409-2.072,3.257-4.034,5.682-4.67s4.845.133,7.307.655a18.613,18.613,0,0,0,2.481.379,23.13,23.13,0,0,0,7.716-1.212l2.75-.758c1.379-.379,2.068-2.045,3.462-2.337a4.86,4.86,0,0,1,1.867.095,25.76,25.76,0,0,1,8.17,2.67,13.46,13.46,0,0,1,1.587,1.079,10.042,10.042,0,0,1,3.689,5.451c.568,2.4.034,4.958.61,7.356a16.3,16.3,0,0,0,2.826,5.379l6.769,9.666a60.051,60.051,0,0,0,4.981,6.492C309.278,396.467,316.028,399.456,316.119,404.831Z" transform="translate(-187.884 -248.389)" fill="#ffcc75"/>
    <path id="Path_339" data-name="Path 339" d="M378.9,229.273a11.3,11.3,0,0,1,1.22-3.848,8.792,8.792,0,0,1,1.792-1.894,11.987,11.987,0,0,1,3.841-2.4,4.8,4.8,0,0,1,4.352.5,5.793,5.793,0,0,1,1.913,4,9.857,9.857,0,0,1-1.026,6.06c-1.174,2.049-3.212,3.409-4.924,5.053a19.7,19.7,0,0,0-3.208,4,11.4,11.4,0,0,1-1.462,2.136,2.776,2.776,0,0,1-2.322.928,4.115,4.115,0,0,1-1.894-1.11c-.7-.614-2.591-1.708-2.651-2.682-.045-.788,1.428-2.576,1.788-3.314a37.568,37.568,0,0,0,2.583-7.435Z" transform="translate(-268.739 -165.491)" fill="#fbbebe"/>
    <path id="Path_340" data-name="Path 340" d="M367.817,551.534c-1.742,3.216-3.651,6.348-5.2,9.659-.905,1.935-1.689,3.928-2.7,5.81-1.1,2.053-2.451,3.962-3.6,5.992-2.89,5.117-4.5,10.89-5.988,16.575a33.017,33.017,0,0,1-11.8-4.167c-.246-.144-.481-.3-.708-.458a8.425,8.425,0,0,1-2.382-2.625c1.375-5.2,2.788-10.488,5.587-15.083.913-1.515,1.958-2.9,2.9-4.375,2.723-4.28,3.284-9.681,6.394-13.689a2.352,2.352,0,0,0,0-2.788c-.36-.466-.932-.909-.826-1.485.08-.42.519-.8.348-1.193-.08-.189-.273-.292-.424-.428-.53-.489-.462-1.322-.508-2.038a9.853,9.853,0,0,0-2.273-4.89,3.031,3.031,0,0,0-.83-.894c-.28-.17-.614-.246-.894-.42-.992-.621-.92-2.068-1.4-3.14-.621-1.413-2.186-2.133-3.212-3.28-1.307-1.458-1.64-3.492-3.03-4.769a3.789,3.789,0,0,0-.451-.379,23.352,23.352,0,0,1,.807,6.678c.133,7.723-1.8,15.719-.894,23.393.712,6.087-3.03,12.162-8.352,15.2a40.2,40.2,0,0,1-6.5,2.739c-3.329,1.178-6.648,2.394-9.913,3.757q-3.462,1.432-6.818,3.087a86.163,86.163,0,0,0-8.064,4.462c-3.2,2.038-6.409,4.11-8.685,7.151a7.813,7.813,0,0,1-5.61-3.087,21.408,21.408,0,0,1-3.072-5.818,16.148,16.148,0,0,1-1.458-5.477,1.083,1.083,0,0,1,.659-.947l15.215-8.064,2.845-1.515c6.231-3.307,12.685-6.363,18.916-9.666.42.125.758-.352.883-.758s.212-.928.606-1.11c.2-.095.455-.091.6-.258a.719.719,0,0,0,.106-.5c-.2-3.03-2.375-5.784-1.939-8.772.186-1.273.841-2.526.557-3.788a16.531,16.531,0,0,0-1.159-2.39c-.758-1.837,0-4.049-.818-5.848a13.522,13.522,0,0,1-1.1-3.727,25.313,25.313,0,0,0-2.326-7.386,13.466,13.466,0,0,0-2.14-3.239c-.458-.492-.973-.932-1.409-1.443a11.993,11.993,0,0,1-2.185-5.682c-.682-3.663-1.136-7.462-.3-11.091a15.745,15.745,0,0,0,.708-3.735c-.019-1.678-.758-3.636.409-4.848a3.765,3.765,0,0,1,1.7-.875,51.433,51.433,0,0,1,8.25-1.515l12.708-1.663a11.541,11.541,0,0,0,4.227-1.1,8.5,8.5,0,0,0,3.568-4.545c2.231,1.629,3.064,4.663,4.845,6.765.867,1.026,1.939,1.856,2.89,2.8a32.431,32.431,0,0,1,3.185,3.928,69.146,69.146,0,0,1,7.2,11.39c.989,2.121,1.754,4.333,2.542,6.534,3.1,8.663,8.159,16.886,10.257,25.84.515,2.189,1.852,4.166,2.061,6.4C370.056,547.125,368.957,549.421,367.817,551.534Z" transform="translate(-208.936 -327.167)" fill="#3f3d56"/>
    <path id="Path_341" data-name="Path 341" d="M338.23,473.525a3.9,3.9,0,0,0-.47,1.875c.284-1.4,2.212-2.178,2.337-3.564.057-.64-.061-.61-.455-.273C339.044,472.082,338.783,472.976,338.23,473.525Z" transform="translate(-245.899 -321.102)" opacity="0.1"/>
    <path id="Path_342" data-name="Path 342" d="M352.574,487.635a2.89,2.89,0,0,0-.879,1.3,3.3,3.3,0,0,0-.178,2.273c.284-.133.379-.481.466-.784a5.471,5.471,0,0,1,.6-1.341c.227-.379,1.276-1.223,1.273-1.621C353.846,486.851,352.854,487.419,352.574,487.635Z" transform="translate(-254.368 -330.955)" opacity="0.1"/>
    <path id="Path_343" data-name="Path 343" d="M284.664,358.091a14.3,14.3,0,0,1-2.924,1.947c-2.746,1.39-5.788,2.125-8.553,3.473a42.341,42.341,0,0,0-3.97,2.314L261,371.034a8.813,8.813,0,0,0-1.811,1.375c-.989,1.053-.985,2.905-1.894,4.034a5.548,5.548,0,0,1-3.988,1.841,12.958,12.958,0,0,1-4.443-.758,23.065,23.065,0,0,1-2.538-.924,11.962,11.962,0,0,1-2.439-1.394,6.96,6.96,0,0,1-2.871-4.545,8.977,8.977,0,0,1,.489-3.7,14.215,14.215,0,0,1,.875-2.246,9.037,9.037,0,0,1,.7-1.182c1.894-2.674,5.216-3.928,8.432-4.545,1.689-.33,3.409-.53,5.117-.818a18.618,18.618,0,0,0,2.481.379,23.131,23.131,0,0,0,7.716-1.212l2.75-.758c1.379-.379,2.068-2.045,3.462-2.337a4.859,4.859,0,0,1,1.867.095,25.759,25.759,0,0,1,8.17,2.67A13.457,13.457,0,0,1,284.664,358.091Z" transform="translate(-185.781 -248.333)" opacity="0.1"/>
    <path id="Path_344" data-name="Path 344" d="M291.365,267.35c-.352,3.352-3.182,5.814-4.924,8.712-.837,1.405-1.424,2.947-2.178,4.4a43.63,43.63,0,0,1-2.879,4.583l-3.079,4.47A46.245,46.245,0,0,1,272.35,297c-4.034.686-7.416,3.682-11.242,5.136-3.061,1.163-6.4,1.322-9.609,1.947s-6.541,1.894-8.428,4.545a11.9,11.9,0,0,0-1.576,3.409,8.833,8.833,0,0,0-.485,3.7,7.026,7.026,0,0,0,2.867,4.545,15.866,15.866,0,0,0,4.977,2.318,13.048,13.048,0,0,0,4.443.758,5.406,5.406,0,0,0,3.992-1.841c.939-1.182.894-2.981,1.894-4.034A8.842,8.842,0,0,1,261,316.106l8.219-5.208a42.362,42.362,0,0,1,3.966-2.3c2.765-1.352,5.807-2.083,8.553-3.473s5.3-3.685,5.852-6.716c1.674-9.31,8.117-17.158,13.636-24.848-.182-.038-.125-.451-.193-.625a7.936,7.936,0,0,0-4.038-4.068A23.888,23.888,0,0,0,291.365,267.35Z" transform="translate(-185.777 -194.386)" fill="#ffcc75"/>
    <path id="Path_345" data-name="Path 345" d="M237.9,256.961a5.136,5.136,0,0,0-.572-2.924c-.913-1.515-2.826-2.049-4.545-2.405q-2.5-.511-5.015-.879a11.321,11.321,0,0,0-4.148-.068c-1.894.413-3.435,1.667-5.189,2.447a35.433,35.433,0,0,1-6.579,1.678c-2.212.511-4.477,1.379-5.863,3.174a10.979,10.979,0,0,0-1.788,4.8c-2.625,14.162.2,28.688.739,43.082.208,5.6-.045,11.59-3.246,16.193l9.322-.246c2.386-.061,4.951-.186,6.818-1.659,1.651-1.3,2.432-3.382,3.14-5.36a16.583,16.583,0,0,0,1.189-4.8c.148-3.382-1.773-6.7-1.136-10.034.466-2.485,2.273-4.492,4.208-6.125s4.087-3.03,5.651-5.03c2.8-3.534,3.329-8.363,2.981-12.852a49.007,49.007,0,0,1-.455-8.011,10.1,10.1,0,0,1,2.114-5.613C236.992,260.57,237.768,259.464,237.9,256.961Z" transform="translate(-161.368 -183.929)" fill="#3f3d56"/>
    <path id="Path_346" data-name="Path 346" d="M237.294,255.9c-.9-1.492-2.761-2.03-4.47-2.386a4.405,4.405,0,0,1,2.212,1.742,5.106,5.106,0,0,1,.572,2.924c-.129,2.5-.905,3.606-2.39,5.375a10.09,10.09,0,0,0-2.114,5.613,49.005,49.005,0,0,0,.455,8.011c.348,4.488-.186,9.318-2.977,12.852-1.568,1.985-3.72,3.409-5.651,5.03s-3.746,3.64-4.212,6.125c-.625,3.329,1.3,6.651,1.136,10.034a16.591,16.591,0,0,1-1.193,4.8c-.7,1.977-1.489,4.06-3.14,5.356-1.894,1.473-4.443,1.6-6.818,1.663l-6.6.174c-.148.242-.3.485-.462.716l9.322-.246c2.386-.061,4.951-.186,6.818-1.659,1.651-1.3,2.432-3.382,3.14-5.36a16.584,16.584,0,0,0,1.189-4.8c.148-3.382-1.773-6.7-1.136-10.034.466-2.485,2.273-4.492,4.208-6.125s4.087-3.03,5.651-5.03c2.8-3.534,3.329-8.363,2.981-12.852a49.005,49.005,0,0,1-.455-8.011,10.1,10.1,0,0,1,2.114-5.613c1.485-1.765,2.273-2.871,2.39-5.375A5.136,5.136,0,0,0,237.294,255.9Z" transform="translate(-161.337 -185.788)" opacity="0.1"/>
    <path id="Path_347" data-name="Path 347" d="M448.7,599.719l-17.109,41.722a8.424,8.424,0,0,1-2.383-2.625c1.375-5.2,2.788-10.488,5.587-15.083.913-1.515,1.958-2.9,2.9-4.375,2.723-4.28,3.284-9.681,6.394-13.689a2.352,2.352,0,0,0,0-2.788c-.36-.466-.932-.909-.826-1.485.08-.42.519-.8.349-1.193-.08-.189-.273-.292-.424-.428-.53-.489-.462-1.322-.508-2.038a9.853,9.853,0,0,0-2.273-4.89,3.031,3.031,0,0,0-.83-.894c-.28-.17-.614-.246-.894-.42-.992-.621-.92-2.068-1.4-3.14-.621-1.413-2.186-2.132-3.212-3.28-1.307-1.458-1.64-3.492-3.03-4.769l-.117-.3L432.259,572Z" transform="translate(-302.71 -383.643)" opacity="0.1"/>
  </g>
</svg>
