<svg xmlns="http://www.w3.org/2000/svg" width="267.456" height="320.972" viewBox="0 0 267.456 320.972">
  <g id="water-pump" transform="translate(-43.69 -1)">
    <g id="Group_16" data-name="Group 16" transform="translate(43.69 1)">
      <g id="Group_15" data-name="Group 15">
        <path id="Path_445" data-name="Path 445" d="M298.287,182.9H282.24a26.777,26.777,0,0,1-26.745-26.745v-10.7a21.4,21.4,0,1,0,0-42.791V70.573a58.906,58.906,0,0,0-58.839-58.839H191.17a26.641,26.641,0,1,0-42.655,31.928V65.223h-5.349a16.047,16.047,0,0,0,0,32.094v5.349H105.724a53.55,53.55,0,0,0-53.489,53.489,5.348,5.348,0,0,0,5.349,5.349H89.678a5.348,5.348,0,0,0,5.349-5.349,10.71,10.71,0,0,1,10.7-10.7h37.442v6.335a15.95,15.95,0,0,0,0,30.122v86.569a16.064,16.064,0,0,0-16.047,16.047v6.335a16.021,16.021,0,0,0-10.7,15.061v10.7a5.348,5.348,0,0,0,5.349,5.349h96.281a5.348,5.348,0,0,0,5.349-5.349v-10.7a16.021,16.021,0,0,0-10.7-15.061v-6.335a16.064,16.064,0,0,0-16.047-16.047V181.914a15.951,15.951,0,0,0,0-30.123v-6.335H223.4v10.7a58.906,58.906,0,0,0,58.839,58.839h16.047a16.047,16.047,0,1,0,0-32.093ZM196.116,22.432h.54a48.2,48.2,0,0,1,48.14,48.14v32.094H234.1V70.573A37.485,37.485,0,0,0,196.656,33.13h-.54A26.732,26.732,0,0,0,196.116,22.432Zm-4.808,21.4h5.349A26.777,26.777,0,0,1,223.4,70.572v32.094H196.657V97.317a16.047,16.047,0,1,0,0-32.094h-5.349Zm-21.4-32.094a16.047,16.047,0,1,1-16.047,16.047A16.047,16.047,0,0,1,169.912,11.734Zm10.7,40.524V65.223h-21.4V52.258A26.375,26.375,0,0,0,180.61,52.258Zm-74.885,82.5a21.43,21.43,0,0,0-20.717,16.047H63.268a42.854,42.854,0,0,1,42.457-37.442h37.442v21.4ZM212.7,305.925v5.349H127.121v-5.349a5.354,5.354,0,0,1,5.349-5.349h74.885A5.354,5.354,0,0,1,212.7,305.925Zm-10.7-21.4v5.349H137.818V284.53a5.354,5.354,0,0,1,5.349-5.349h53.489A5.353,5.353,0,0,1,202.006,284.53Zm-48.14-16.047V182.9h32.094v85.583ZM191.308,172.2H148.517a5.349,5.349,0,1,1,0-10.7h42.792a5.349,5.349,0,0,1,0,10.7Zm-37.443-21.4V97.317h32.094v53.489Zm-10.7-64.187a5.349,5.349,0,0,1,0-10.7h53.489a5.349,5.349,0,0,1,0,10.7Zm53.489,48.14v-21.4H255.5a10.7,10.7,0,0,1,0,21.4H196.657ZM298.287,204.3H282.24a48.2,48.2,0,0,1-48.14-48.14v-10.7h10.7v10.7A37.486,37.486,0,0,0,282.24,193.6h16.047a5.349,5.349,0,0,1,0,10.7Z" transform="translate(-46.878 -1)"/>
        <path id="Path_446" data-name="Path 446" d="M74.914,276.632a5.552,5.552,0,0,0-8.942,0C63.689,280.111,43.7,311.053,43.7,326.207a27.556,27.556,0,0,0,26.745,28.244,27.557,27.557,0,0,0,26.745-28.244C97.187,311.053,77.2,280.111,74.914,276.632Zm-4.472,67.12A16.866,16.866,0,0,1,54.4,326.206c0-7.452,8.588-24.151,16.047-36.562,7.459,12.411,16.047,29.111,16.047,36.562A16.866,16.866,0,0,1,70.442,343.753Z" transform="translate(-43.69 -103.015)"/>
      </g>
    </g>
  </g>
</svg>
